<?xml version="1.0" encoding="utf-8"?>
<!-- Generator: Adobe Illustrator 19.1.0, SVG Export Plug-In . SVG Version: 6.00 Build 0)  -->
<svg version="1.1" id="Layer_1" xmlns="http://www.w3.org/2000/svg" xmlns:xlink="http://www.w3.org/1999/xlink" x="0px" y="0px"
	 viewBox="0 0 410 80" style="enable-background:new 0 0 410 80;" xml:space="preserve">
<style type="text/css">
	.st0{opacity:0.15;fill:#010101;}
	.st1{fill:#EDEDED;}
	.st2{fill:#90B8E2;}
	.st3{fill:#96B546;}
	.st4{clip-path:url(#SVGID_2_);}
	.st5{fill:#5893CE;}
	.st6{fill:#F7C1A2;}
	.st7{fill:#F79728;}
	.st8{fill:#ED5F52;}
	.st9{fill:#523533;}
	.st10{fill:#F7954D;}
	.st11{opacity:3.000000e-002;fill:#010101;}
	.st12{clip-path:url(#SVGID_4_);}
	.st13{clip-path:url(#SVGID_6_);}
	.st14{clip-path:url(#SVGID_8_);}
	.st15{clip-path:url(#SVGID_10_);}
	.st16{clip-path:url(#SVGID_12_);}
	.st17{clip-path:url(#SVGID_14_);}
	.st18{clip-path:url(#SVGID_16_);}
	.st19{clip-path:url(#SVGID_18_);}
	.st20{opacity:0.15;}
	.st21{clip-path:url(#SVGID_20_);fill:#010101;}
	.st22{opacity:0.25;clip-path:url(#SVGID_20_);fill:#010101;}
	.st23{opacity:0.75;clip-path:url(#SVGID_20_);fill:#010101;}
	.st24{opacity:0.5;clip-path:url(#SVGID_20_);fill:#010101;}
	.st25{opacity:0;clip-path:url(#SVGID_20_);fill:#010101;}
	.st26{opacity:0.5;clip-path:url(#SVGID_22_);fill:#010101;}
	.st27{clip-path:url(#SVGID_22_);fill:#010101;}
	.st28{opacity:0.25;clip-path:url(#SVGID_22_);fill:#010101;}
	.st29{opacity:0.75;clip-path:url(#SVGID_22_);fill:#010101;}
	.st30{clip-path:url(#SVGID_24_);fill:#010101;}
	.st31{opacity:0.25;clip-path:url(#SVGID_24_);fill:#010101;}
	.st32{opacity:0.75;clip-path:url(#SVGID_24_);fill:#010101;}
	.st33{opacity:0.5;clip-path:url(#SVGID_24_);fill:#010101;}
	.st34{opacity:0;clip-path:url(#SVGID_24_);fill:#010101;}
	.st35{clip-path:url(#SVGID_26_);fill:#010101;}
	.st36{opacity:0.25;clip-path:url(#SVGID_26_);fill:#010101;}
	.st37{opacity:0.75;clip-path:url(#SVGID_26_);fill:#010101;}
	.st38{opacity:0.5;clip-path:url(#SVGID_26_);fill:#010101;}
	.st39{opacity:0;clip-path:url(#SVGID_26_);fill:#010101;}
	.st40{clip-path:url(#SVGID_28_);fill:#FFFFFF;}
	.st41{opacity:0.25;clip-path:url(#SVGID_28_);fill:#FFFFFF;}
	.st42{opacity:0.75;clip-path:url(#SVGID_28_);fill:#FFFFFF;}
	.st43{opacity:0.5;clip-path:url(#SVGID_28_);fill:#FFFFFF;}
	.st44{opacity:0;clip-path:url(#SVGID_28_);fill:#FFFFFF;}
	.st45{opacity:0.5;clip-path:url(#SVGID_30_);fill:#FFFFFF;}
	.st46{clip-path:url(#SVGID_30_);fill:#FFFFFF;}
	.st47{opacity:0.25;clip-path:url(#SVGID_30_);fill:#FFFFFF;}
	.st48{opacity:0.75;clip-path:url(#SVGID_30_);fill:#FFFFFF;}
	.st49{clip-path:url(#SVGID_32_);fill:#FFFFFF;}
	.st50{opacity:0.25;clip-path:url(#SVGID_32_);fill:#FFFFFF;}
	.st51{opacity:0.75;clip-path:url(#SVGID_32_);fill:#FFFFFF;}
	.st52{opacity:0.5;clip-path:url(#SVGID_32_);fill:#FFFFFF;}
	.st53{opacity:0;clip-path:url(#SVGID_32_);fill:#FFFFFF;}
	.st54{clip-path:url(#SVGID_34_);fill:#FFFFFF;}
	.st55{opacity:0.25;clip-path:url(#SVGID_34_);fill:#FFFFFF;}
	.st56{opacity:0.75;clip-path:url(#SVGID_34_);fill:#FFFFFF;}
	.st57{opacity:0.5;clip-path:url(#SVGID_34_);fill:#FFFFFF;}
	.st58{opacity:0;clip-path:url(#SVGID_34_);fill:#FFFFFF;}
	.st59{fill:#5992CD;}
	.st60{fill:none;stroke:#FFFFFF;stroke-width:2.2108;stroke-miterlimit:10;}
	.st61{fill:#FFFFFF;}
</style>
<g>
	<g>
		<polygon class="st0" points="410,74.4 314,74.4 314,24.3 327.9,10.4 410,10.4 		"/>
		<polygon class="st1" points="407.9,72.3 311.9,72.3 311.9,17.3 320.9,8.3 407.9,8.3 		"/>
		<rect x="318.3" y="14.7" class="st2" width="83.2" height="51.2"/>
		<rect x="318.3" y="43.5" class="st3" width="83.2" height="22.4"/>
		<g>
			<defs>
				<rect id="SVGID_1_" x="318.3" y="14.7" width="83.2" height="51.2"/>
			</defs>
			<clipPath id="SVGID_2_">
				<use xlink:href="#SVGID_1_"  style="overflow:visible;"/>
			</clipPath>
			<g class="st4">
				<g>
					<path class="st5" d="M368.2,66.1c0-4.3-2.9-7.8-6.4-7.8c-3.6,0-6.4,3.5-6.4,7.8l0,0c0,2.1,2.9,3.9,6.4,3.9
						C365.3,70,368.2,68.3,368.2,66.1L368.2,66.1z"/>
					<g>
						<path class="st5" d="M355.3,66.1c0-4.3,2.9-7.7,6.4-7.7c3.6,0,6.4,3.5,6.4,7.7H355.3z"/>
					</g>
					<g>
						<path class="st6" d="M361.8,63.5c2,0,3.7-1.1,4.6-2.8c-1.2-1.4-2.8-2.3-4.6-2.3c-1.8,0-3.4,0.9-4.6,2.3
							C358,62.4,359.8,63.5,361.8,63.5z"/>
						<rect x="360.5" y="54.3" class="st6" width="2.6" height="5"/>
					</g>
					<g>
						<path class="st7" d="M365.1,39.5L365.1,39.5c0.9-1,2.1-1.6,3.5-1.6c2.6,0,4.7,2.1,4.7,4.7c0,0.5-0.1,1-0.2,1.5
							c-0.5-1.2-1.5-2.1-2.7-2.5c0,0,2.6,3.6,0.8,8.2c-1.8,4.6,1,6.5,1,6.5s-4.1,3.4-8.1-0.3h-2.3V40.3L365.1,39.5z"/>
						<path class="st7" d="M358.4,39.5L358.4,39.5c-0.9-1-2.1-1.6-3.5-1.6c-2.6,0-4.7,2.1-4.7,4.7c0,0.5,0.1,1,0.2,1.5
							c0.5-1.2,1.5-2.1,2.7-2.5c0,0-2.6,3.6-0.8,8.2c1.8,4.6-1,6.5-1,6.5s4.1,3.4,8.1-0.3h2.3V40.3L358.4,39.5z"/>
					</g>
					<path class="st6" d="M361.8,40.3c-3.6,0-6.4,3-6.4,6.7v3.3c0,3.7,2.9,6.7,6.4,6.7c3.6,0,6.4-3,6.4-6.7V47
						C368.2,43.3,365.3,40.3,361.8,40.3z"/>
					<g>
						<path class="st8" d="M358.4,39.5L358.4,39.5L358.4,39.5c-0.2-0.3-0.5-0.5-0.8-0.7c-0.5,0.1-1.2,0.6-1.9,1.3
							c-1,1-1.6,2.2-1.2,2.6c0.4,0.4,1.6-0.1,2.6-1.2C357.8,40.8,358.3,40.1,358.4,39.5z"/>
						<path class="st8" d="M365.1,39.5L365.1,39.5L365.1,39.5c0.2-0.3,0.5-0.5,0.8-0.7c0.5,0.1,1.2,0.6,1.9,1.3c1,1,1.6,2.2,1.2,2.6
							c-0.4,0.4-1.6-0.1-2.6-1.2C365.7,40.8,365.3,40.1,365.1,39.5z"/>
						<path class="st7" d="M369.4,44.5c-1-3.3-4.1-5.7-7.6-5.7c-3.5,0-6.6,2.4-7.6,5.7c-0.2,0.8-0.2,1.7-0.1,2.5h1.2
							c0,0,5.3-0.6,6.4-3.4h0c1.1,2.8,6.4,3.4,6.4,3.4h1.2C369.6,46.2,369.6,45.2,369.4,44.5z"/>
					</g>
				</g>
				<g>
					<path class="st9" d="M344.3,55.3H340c-5.8,0-10.5-4.7-10.5-10.5V32.2c0-5.8,4.7-10.5,10.5-10.5h4.3c5.8,0,10.5,4.7,10.5,10.5
						v12.6C354.9,50.6,350.1,55.3,344.3,55.3z"/>
					<g>
						<path class="st5" d="M352,64c0-6.6-4.5-12-10-12c-5.5,0-10,5.4-10,12l0,0c0,3.3,4.5,6,10,6S352,67.3,352,64L352,64z"/>
						<path class="st10" d="M345.9,53c-1.2-0.6-2.5-0.9-3.9-0.9s-2.7,0.3-3.9,0.9c-0.6,1.7,0,7.1,3.9,7.1l0,0
							C345.9,60,346.4,54.6,345.9,53z"/>
					</g>
					<g>
						<path class="st6" d="M345.9,53c-1.2-0.6-2.5-0.9-3.9-0.9s-2.7,0.3-3.9,0.9c0.4,1.8,2,3.1,3.9,3.1
							C343.9,56,345.4,54.7,345.9,53z"/>
						<rect x="340" y="45.7" class="st6" width="4" height="7.7"/>
					</g>
					<path class="st6" d="M342,24c-5.5,0-10,4.7-10,10.4v5.2c0,5.7,4.5,10.4,10,10.4s10-4.7,10-10.4v-5.2C352,28.7,347.5,24,342,24z
						"/>
					<path class="st9" d="M342,21.6c-6.8,0-12.4,5.7-12.4,12.8v5.2c0,2,0.6,3.8,1.2,5.5c0.2,0.7,0.4,1.7,0.3,2.8h2.9
						c-0.8-2.2-0.5-9.5,4.1-11.7s7.8-7.3,7.8-7.3c2.9,1.3,6.1,5.5,6.1,5.5h2.4C354.4,27.4,348.8,21.6,342,21.6z"/>
				</g>
			</g>
		</g>
		<g>
			<g>
				<polygon class="st11" points="320.9,8.3 320.9,17.3 311.9,17.3 311.9,17.9 321.5,17.9 321.5,8.3 				"/>
			</g>
			<g>
				<polygon class="st11" points="320.9,8.3 320.9,17.3 311.9,17.3 311.9,18.4 322,18.4 322,8.3 				"/>
			</g>
			<g>
				<polygon class="st11" points="320.9,8.3 320.9,17.3 311.9,17.3 311.9,18.9 322.5,18.9 322.5,8.3 				"/>
			</g>
			<polygon class="st11" points="321.3,8.3 320.9,8.3 320.9,17.3 311.9,17.3 311.9,17.7 311.9,19.5 323.1,19.5 323.1,8.3 			"/>
			<polygon class="st11" points="321,8.3 320.9,8.3 320.9,17.3 311.9,17.3 311.9,17.3 311.9,20 323.6,20 323.6,8.3 			"/>
			<polygon class="st1" points="320.9,8.3 311.9,17.3 320.9,17.3 			"/>
		</g>
	</g>
	<g>
		<rect x="216.7" y="46.7" class="st0" width="48" height="32"/>
		<rect x="157.5" y="46.7" class="st0" width="48" height="32"/>
		<g>
			<defs>
				<rect id="SVGID_3_" x="155.4" y="44.9" width="48" height="32"/>
			</defs>
			<clipPath id="SVGID_4_">
				<use xlink:href="#SVGID_3_"  style="overflow:visible;"/>
			</clipPath>
			<g class="st12">
				<rect x="155.4" y="12.9" class="st1" width="96" height="64"/>
				<rect x="161.8" y="19.3" class="st2" width="83.2" height="51.2"/>
				<rect x="161.8" y="48.1" class="st3" width="83.2" height="22.4"/>
				<g>
					<defs>
						<rect id="SVGID_5_" x="161.8" y="19.3" width="83.2" height="51.2"/>
					</defs>
					<clipPath id="SVGID_6_">
						<use xlink:href="#SVGID_5_"  style="overflow:visible;"/>
					</clipPath>
					<g class="st13">
						<g>
							<path class="st5" d="M211.7,70.7c0-4.3-2.9-7.8-6.4-7.8c-3.6,0-6.4,3.5-6.4,7.8l0,0c0,2.1,2.9,3.9,6.4,3.9
								C208.8,74.6,211.7,72.8,211.7,70.7L211.7,70.7z"/>
							<g>
								<path class="st5" d="M198.8,70.6c0-4.3,2.9-7.7,6.4-7.7s6.4,3.5,6.4,7.7H198.8z"/>
							</g>
							<g>
								<path class="st6" d="M205.3,68.1c2,0,3.7-1.1,4.6-2.8c-1.2-1.4-2.8-2.3-4.6-2.3c-1.8,0-3.4,0.9-4.6,2.3
									C201.5,66.9,203.3,68.1,205.3,68.1z"/>
								<rect x="204" y="58.8" class="st6" width="2.6" height="5"/>
							</g>
							<g>
								<path class="st7" d="M208.6,44.1L208.6,44.1c0.9-1,2.1-1.6,3.5-1.6c2.6,0,4.7,2.1,4.7,4.7c0,0.5-0.1,1-0.2,1.5
									c-0.5-1.2-1.5-2.1-2.7-2.5c0,0,2.6,3.6,0.8,8.2c-1.8,4.6,1,6.5,1,6.5s-4.1,3.4-8.1-0.3h-2.3V44.9L208.6,44.1z"/>
								<path class="st7" d="M201.9,44.1L201.9,44.1c-0.9-1-2.1-1.6-3.5-1.6c-2.6,0-4.7,2.1-4.7,4.7c0,0.5,0.1,1,0.2,1.5
									c0.5-1.2,1.5-2.1,2.7-2.5c0,0-2.6,3.6-0.8,8.2c1.8,4.6-1,6.5-1,6.5s4.1,3.4,8.1-0.3h2.3V44.9L201.9,44.1z"/>
							</g>
							<path class="st6" d="M205.3,44.9c-3.6,0-6.4,3-6.4,6.7v3.3c0,3.7,2.9,6.7,6.4,6.7s6.4-3,6.4-6.7v-3.3
								C211.7,47.9,208.8,44.9,205.3,44.9z"/>
							<g>
								<path class="st8" d="M201.9,44.1L201.9,44.1L201.9,44.1c-0.2-0.3-0.5-0.5-0.8-0.7c-0.5,0.1-1.2,0.6-1.9,1.3
									c-1,1-1.6,2.2-1.2,2.6c0.4,0.4,1.6-0.1,2.6-1.2C201.3,45.4,201.8,44.6,201.9,44.1z"/>
								<path class="st8" d="M208.6,44.1L208.6,44.1L208.6,44.1c0.2-0.3,0.5-0.5,0.8-0.7c0.5,0.1,1.2,0.6,1.9,1.3
									c1,1,1.6,2.2,1.2,2.6c-0.4,0.4-1.6-0.1-2.6-1.2C209.2,45.4,208.8,44.6,208.6,44.1z"/>
								<path class="st7" d="M212.9,49c-1-3.3-4.1-5.7-7.6-5.7c-3.5,0-6.6,2.4-7.6,5.7c-0.2,0.8-0.2,1.7-0.1,2.5h1.2
									c0,0,5.3-0.6,6.4-3.4h0c1.1,2.8,6.4,3.4,6.4,3.4h1.2C213.1,50.7,213.1,49.8,212.9,49z"/>
							</g>
						</g>
						<g>
							<path class="st9" d="M187.8,59.9h-4.3c-5.8,0-10.5-4.7-10.5-10.5V36.8c0-5.8,4.7-10.5,10.5-10.5h4.3
								c5.8,0,10.5,4.7,10.5,10.5v12.6C198.3,55.1,193.6,59.9,187.8,59.9z"/>
							<g>
								<path class="st5" d="M195.5,68.6c0-6.6-4.5-12-10-12c-5.5,0-10,5.4-10,12l0,0c0,3.3,4.5,6,10,6
									C191,74.6,195.5,71.9,195.5,68.6L195.5,68.6z"/>
								<path class="st10" d="M189.3,57.5c-1.2-0.6-2.5-0.9-3.9-0.9c-1.4,0-2.7,0.3-3.9,0.9c-0.6,1.7,0,7.1,3.9,7.1l0,0
									C189.3,64.6,189.9,59.2,189.3,57.5z"/>
							</g>
							<g>
								<path class="st6" d="M189.3,57.5c-1.2-0.6-2.5-0.9-3.9-0.9c-1.4,0-2.7,0.3-3.9,0.9c0.4,1.8,2,3.1,3.9,3.1
									C187.3,60.6,188.9,59.3,189.3,57.5z"/>
								<rect x="183.5" y="50.3" class="st6" width="4" height="7.7"/>
							</g>
							<path class="st6" d="M185.5,28.6c-5.5,0-10,4.7-10,10.4v5.2c0,5.7,4.5,10.4,10,10.4s10-4.7,10-10.4V39
								C195.5,33.3,191,28.6,185.5,28.6z"/>
							<path class="st9" d="M185.5,26.2c-6.8,0-12.4,5.7-12.4,12.8v5.2c0,2,0.6,3.8,1.2,5.5c0.2,0.7,0.4,1.7,0.3,2.8h2.9
								c-0.8-2.2-0.5-9.5,4.1-11.7s7.8-7.3,7.8-7.3c2.9,1.3,6.1,5.5,6.1,5.5h2.4C197.9,32,192.3,26.2,185.5,26.2z"/>
						</g>
					</g>
				</g>
			</g>
		</g>
		<rect x="216.7" y="3.8" class="st0" width="48" height="32"/>
		<g>
			<defs>
				<rect id="SVGID_7_" x="214.6" y="1.7" width="48" height="32"/>
			</defs>
			<clipPath id="SVGID_8_">
				<use xlink:href="#SVGID_7_"  style="overflow:visible;"/>
			</clipPath>
			<g class="st14">
				<rect x="166.6" y="1.7" class="st1" width="96" height="64"/>
				<rect x="173" y="8.1" class="st2" width="83.2" height="51.2"/>
				<rect x="173" y="36.9" class="st3" width="83.2" height="22.4"/>
				<g>
					<defs>
						<rect id="SVGID_9_" x="173" y="8.1" width="83.2" height="51.2"/>
					</defs>
					<clipPath id="SVGID_10_">
						<use xlink:href="#SVGID_9_"  style="overflow:visible;"/>
					</clipPath>
					<g class="st15">
						<g>
							<path class="st5" d="M222.9,59.5c0-4.3-2.9-7.8-6.4-7.8c-3.6,0-6.4,3.5-6.4,7.8l0,0c0,2.1,2.9,3.9,6.4,3.9
								C220,63.4,222.9,61.6,222.9,59.5L222.9,59.5z"/>
							<g>
								<path class="st5" d="M210,59.4c0-4.3,2.9-7.7,6.4-7.7s6.4,3.5,6.4,7.7H210z"/>
							</g>
							<g>
								<path class="st6" d="M216.5,56.9c2,0,3.7-1.1,4.6-2.8c-1.2-1.4-2.8-2.3-4.6-2.3c-1.8,0-3.4,0.9-4.6,2.3
									C212.7,55.7,214.5,56.9,216.5,56.9z"/>
								<rect x="215.2" y="47.6" class="st6" width="2.6" height="5"/>
							</g>
							<g>
								<path class="st7" d="M219.8,32.9L219.8,32.9c0.9-1,2.1-1.6,3.5-1.6c2.6,0,4.7,2.1,4.7,4.7c0,0.5-0.1,1-0.2,1.5
									c-0.5-1.2-1.5-2.1-2.7-2.5c0,0,2.6,3.6,0.8,8.2c-1.8,4.6,1,6.5,1,6.5s-4.1,3.4-8.1-0.3h-2.3V33.7L219.8,32.9z"/>
								<path class="st7" d="M213.1,32.9L213.1,32.9c-0.9-1-2.1-1.6-3.5-1.6c-2.6,0-4.7,2.1-4.7,4.7c0,0.5,0.1,1,0.2,1.5
									c0.5-1.2,1.5-2.1,2.7-2.5c0,0-2.6,3.6-0.8,8.2c1.8,4.6-1,6.5-1,6.5s4.1,3.4,8.1-0.3h2.3V33.7L213.1,32.9z"/>
							</g>
							<path class="st6" d="M216.5,33.7c-3.6,0-6.4,3-6.4,6.7v3.3c0,3.7,2.9,6.7,6.4,6.7c3.6,0,6.4-3,6.4-6.7v-3.3
								C222.9,36.7,220,33.7,216.5,33.7z"/>
							<g>
								<path class="st8" d="M213.1,32.9L213.1,32.9L213.1,32.9c-0.2-0.3-0.5-0.5-0.8-0.7c-0.5,0.1-1.2,0.6-1.9,1.3
									c-1,1-1.6,2.2-1.2,2.6c0.4,0.4,1.6-0.1,2.6-1.2C212.5,34.2,213,33.5,213.1,32.9z"/>
								<path class="st8" d="M219.8,32.9L219.8,32.9L219.8,32.9c0.2-0.3,0.5-0.5,0.8-0.7c0.5,0.1,1.2,0.6,1.9,1.3
									c1,1,1.6,2.2,1.2,2.6c-0.4,0.4-1.6-0.1-2.6-1.2C220.4,34.2,219.9,33.5,219.8,32.9z"/>
								<path class="st7" d="M224.1,37.8c-1-3.3-4.1-5.7-7.6-5.7c-3.5,0-6.6,2.4-7.6,5.7c-0.2,0.8-0.2,1.7-0.1,2.5h1.2
									c0,0,5.3-0.6,6.4-3.4h0c1.1,2.8,6.4,3.4,6.4,3.4h1.2C224.3,39.5,224.3,38.6,224.1,37.8z"/>
							</g>
						</g>
						<g>
							<path class="st9" d="M199,48.7h-4.3c-5.8,0-10.5-4.7-10.5-10.5V25.6c0-5.8,4.7-10.5,10.5-10.5h4.3c5.8,0,10.5,4.7,10.5,10.5
								v12.6C209.5,43.9,204.8,48.7,199,48.7z"/>
							<g>
								<path class="st5" d="M206.7,57.4c0-6.6-4.5-12-10-12c-5.5,0-10,5.4-10,12l0,0c0,3.3,4.5,6,10,6S206.7,60.7,206.7,57.4
									L206.7,57.4z"/>
								<path class="st10" d="M200.5,46.3c-1.2-0.6-2.5-0.9-3.9-0.9s-2.7,0.3-3.9,0.9c-0.6,1.7,0,7.1,3.9,7.1l0,0
									C200.5,53.4,201.1,48,200.5,46.3z"/>
							</g>
							<g>
								<path class="st6" d="M200.5,46.3c-1.2-0.6-2.5-0.9-3.9-0.9c-1.4,0-2.7,0.3-3.9,0.9c0.4,1.8,2,3.1,3.9,3.1
									S200.1,48.1,200.5,46.3z"/>
								<rect x="194.7" y="39.1" class="st6" width="4" height="7.7"/>
							</g>
							<path class="st6" d="M196.7,17.4c-5.5,0-10,4.7-10,10.4V33c0,5.7,4.5,10.4,10,10.4c5.5,0,10-4.7,10-10.4v-5.2
								C206.7,22.1,202.2,17.4,196.7,17.4z"/>
							<path class="st9" d="M196.7,15c-6.8,0-12.4,5.7-12.4,12.8V33c0,2,0.6,3.8,1.2,5.5c0.2,0.7,0.4,1.7,0.3,2.8h2.9
								c-0.8-2.2-0.5-9.5,4.1-11.7c4.6-2.2,7.8-7.3,7.8-7.3c2.9,1.3,6.1,5.5,6.1,5.5h2.4C209,20.8,203.5,15,196.7,15z"/>
						</g>
					</g>
				</g>
			</g>
		</g>
		<g>
			<defs>
				<rect id="SVGID_11_" x="214.6" y="44.9" width="48" height="32"/>
			</defs>
			<clipPath id="SVGID_12_">
				<use xlink:href="#SVGID_11_"  style="overflow:visible;"/>
			</clipPath>
			<g class="st16">
				<rect x="166.6" y="12.9" class="st1" width="96" height="64"/>
				<rect x="173" y="19.3" class="st2" width="83.2" height="51.2"/>
				<rect x="173" y="48.1" class="st3" width="83.2" height="22.4"/>
				<g>
					<defs>
						<rect id="SVGID_13_" x="173" y="19.3" width="83.2" height="51.2"/>
					</defs>
					<clipPath id="SVGID_14_">
						<use xlink:href="#SVGID_13_"  style="overflow:visible;"/>
					</clipPath>
					<g class="st17">
						<g>
							<path class="st5" d="M222.9,70.7c0-4.3-2.9-7.8-6.4-7.8c-3.6,0-6.4,3.5-6.4,7.8l0,0c0,2.1,2.9,3.9,6.4,3.9
								C220,74.6,222.9,72.8,222.9,70.7L222.9,70.7z"/>
							<g>
								<path class="st5" d="M210,70.6c0-4.3,2.9-7.7,6.4-7.7s6.4,3.5,6.4,7.7H210z"/>
							</g>
							<g>
								<path class="st6" d="M216.5,68.1c2,0,3.7-1.1,4.6-2.8c-1.2-1.4-2.8-2.3-4.6-2.3c-1.8,0-3.4,0.9-4.6,2.3
									C212.7,66.9,214.5,68.1,216.5,68.1z"/>
								<rect x="215.2" y="58.8" class="st6" width="2.6" height="5"/>
							</g>
							<g>
								<path class="st7" d="M219.8,44.1L219.8,44.1c0.9-1,2.1-1.6,3.5-1.6c2.6,0,4.7,2.1,4.7,4.7c0,0.5-0.1,1-0.2,1.5
									c-0.5-1.2-1.5-2.1-2.7-2.5c0,0,2.6,3.6,0.8,8.2c-1.8,4.6,1,6.5,1,6.5s-4.1,3.4-8.1-0.3h-2.3V44.9L219.8,44.1z"/>
								<path class="st7" d="M213.1,44.1L213.1,44.1c-0.9-1-2.1-1.6-3.5-1.6c-2.6,0-4.7,2.1-4.7,4.7c0,0.5,0.1,1,0.2,1.5
									c0.5-1.2,1.5-2.1,2.7-2.5c0,0-2.6,3.6-0.8,8.2c1.8,4.6-1,6.5-1,6.5s4.1,3.4,8.1-0.3h2.3V44.9L213.1,44.1z"/>
							</g>
							<path class="st6" d="M216.5,44.9c-3.6,0-6.4,3-6.4,6.7v3.3c0,3.7,2.9,6.7,6.4,6.7c3.6,0,6.4-3,6.4-6.7v-3.3
								C222.9,47.9,220,44.9,216.5,44.9z"/>
							<g>
								<path class="st8" d="M213.1,44.1L213.1,44.1L213.1,44.1c-0.2-0.3-0.5-0.5-0.8-0.7c-0.5,0.1-1.2,0.6-1.9,1.3
									c-1,1-1.6,2.2-1.2,2.6c0.4,0.4,1.6-0.1,2.6-1.2C212.5,45.4,213,44.6,213.1,44.1z"/>
								<path class="st8" d="M219.8,44.1L219.8,44.1L219.8,44.1c0.2-0.3,0.5-0.5,0.8-0.7c0.5,0.1,1.2,0.6,1.9,1.3
									c1,1,1.6,2.2,1.2,2.6c-0.4,0.4-1.6-0.1-2.6-1.2C220.4,45.4,219.9,44.6,219.8,44.1z"/>
								<path class="st7" d="M224.1,49c-1-3.3-4.1-5.7-7.6-5.7c-3.5,0-6.6,2.4-7.6,5.7c-0.2,0.8-0.2,1.7-0.1,2.5h1.2
									c0,0,5.3-0.6,6.4-3.4h0c1.1,2.8,6.4,3.4,6.4,3.4h1.2C224.3,50.7,224.3,49.8,224.1,49z"/>
							</g>
						</g>
						<g>
							<path class="st9" d="M199,59.9h-4.3c-5.8,0-10.5-4.7-10.5-10.5V36.8c0-5.8,4.7-10.5,10.5-10.5h4.3c5.8,0,10.5,4.7,10.5,10.5
								v12.6C209.5,55.1,204.8,59.9,199,59.9z"/>
							<g>
								<path class="st5" d="M206.7,68.6c0-6.6-4.5-12-10-12c-5.5,0-10,5.4-10,12l0,0c0,3.3,4.5,6,10,6S206.7,71.9,206.7,68.6
									L206.7,68.6z"/>
								<path class="st10" d="M200.5,57.5c-1.2-0.6-2.5-0.9-3.9-0.9s-2.7,0.3-3.9,0.9c-0.6,1.7,0,7.1,3.9,7.1l0,0
									C200.5,64.6,201.1,59.2,200.5,57.5z"/>
							</g>
							<g>
								<path class="st6" d="M200.5,57.5c-1.2-0.6-2.5-0.9-3.9-0.9c-1.4,0-2.7,0.3-3.9,0.9c0.4,1.8,2,3.1,3.9,3.1
									S200.1,59.3,200.5,57.5z"/>
								<rect x="194.7" y="50.3" class="st6" width="4" height="7.7"/>
							</g>
							<path class="st6" d="M196.7,28.6c-5.5,0-10,4.7-10,10.4v5.2c0,5.7,4.5,10.4,10,10.4c5.5,0,10-4.7,10-10.4V39
								C206.7,33.3,202.2,28.6,196.7,28.6z"/>
							<path class="st9" d="M196.7,26.2c-6.8,0-12.4,5.7-12.4,12.8v5.2c0,2,0.6,3.8,1.2,5.5c0.2,0.7,0.4,1.7,0.3,2.8h2.9
								c-0.8-2.2-0.5-9.5,4.1-11.7c4.6-2.2,7.8-7.3,7.8-7.3c2.9,1.3,6.1,5.5,6.1,5.5h2.4C209,32,203.5,26.2,196.7,26.2z"/>
						</g>
					</g>
				</g>
			</g>
		</g>
		<rect x="157.5" y="3.8" class="st0" width="48" height="32"/>
		<g>
			<defs>
				<rect id="SVGID_15_" x="155.4" y="1.7" width="48" height="32"/>
			</defs>
			<clipPath id="SVGID_16_">
				<use xlink:href="#SVGID_15_"  style="overflow:visible;"/>
			</clipPath>
			<g class="st18">
				<rect x="155.4" y="1.7" class="st1" width="96" height="64"/>
				<rect x="161.8" y="8.1" class="st2" width="83.2" height="51.2"/>
				<rect x="161.8" y="36.9" class="st3" width="83.2" height="22.4"/>
				<g>
					<defs>
						<rect id="SVGID_17_" x="161.8" y="8.1" width="83.2" height="51.2"/>
					</defs>
					<clipPath id="SVGID_18_">
						<use xlink:href="#SVGID_17_"  style="overflow:visible;"/>
					</clipPath>
					<g class="st19">
						<g>
							<path class="st5" d="M211.7,59.5c0-4.3-2.9-7.8-6.4-7.8c-3.6,0-6.4,3.5-6.4,7.8l0,0c0,2.1,2.9,3.9,6.4,3.9
								C208.8,63.4,211.7,61.6,211.7,59.5L211.7,59.5z"/>
							<g>
								<path class="st5" d="M198.8,59.4c0-4.3,2.9-7.7,6.4-7.7s6.4,3.5,6.4,7.7H198.8z"/>
							</g>
							<g>
								<path class="st6" d="M205.3,56.9c2,0,3.7-1.1,4.6-2.8c-1.2-1.4-2.8-2.3-4.6-2.3c-1.8,0-3.4,0.9-4.6,2.3
									C201.5,55.7,203.3,56.9,205.3,56.9z"/>
								<rect x="204" y="47.6" class="st6" width="2.6" height="5"/>
							</g>
							<g>
								<path class="st7" d="M208.6,32.9L208.6,32.9c0.9-1,2.1-1.6,3.5-1.6c2.6,0,4.7,2.1,4.7,4.7c0,0.5-0.1,1-0.2,1.5
									c-0.5-1.2-1.5-2.1-2.7-2.5c0,0,2.6,3.6,0.8,8.2c-1.8,4.6,1,6.5,1,6.5s-4.1,3.4-8.1-0.3h-2.3V33.7L208.6,32.9z"/>
								<path class="st7" d="M201.9,32.9L201.9,32.9c-0.9-1-2.1-1.6-3.5-1.6c-2.6,0-4.7,2.1-4.7,4.7c0,0.5,0.1,1,0.2,1.5
									c0.5-1.2,1.5-2.1,2.7-2.5c0,0-2.6,3.6-0.8,8.2c1.8,4.6-1,6.5-1,6.5s4.1,3.4,8.1-0.3h2.3V33.7L201.9,32.9z"/>
							</g>
							<path class="st6" d="M205.3,33.7c-3.6,0-6.4,3-6.4,6.7v3.3c0,3.7,2.9,6.7,6.4,6.7s6.4-3,6.4-6.7v-3.3
								C211.7,36.7,208.8,33.7,205.3,33.7z"/>
							<g>
								<path class="st8" d="M201.9,32.9L201.9,32.9L201.9,32.9c-0.2-0.3-0.5-0.5-0.8-0.7c-0.5,0.1-1.2,0.6-1.9,1.3
									c-1,1-1.6,2.2-1.2,2.6c0.4,0.4,1.6-0.1,2.6-1.2C201.3,34.2,201.8,33.5,201.9,32.9z"/>
								<path class="st8" d="M208.6,32.9L208.6,32.9L208.6,32.9c0.2-0.3,0.5-0.5,0.8-0.7c0.5,0.1,1.2,0.6,1.9,1.3
									c1,1,1.6,2.2,1.2,2.6c-0.4,0.4-1.6-0.1-2.6-1.2C209.2,34.2,208.8,33.5,208.6,32.9z"/>
								<path class="st7" d="M212.9,37.8c-1-3.3-4.1-5.7-7.6-5.7c-3.5,0-6.6,2.4-7.6,5.7c-0.2,0.8-0.2,1.7-0.1,2.5h1.2
									c0,0,5.3-0.6,6.4-3.4h0c1.1,2.8,6.4,3.4,6.4,3.4h1.2C213.1,39.5,213.1,38.6,212.9,37.8z"/>
							</g>
						</g>
						<g>
							<path class="st9" d="M187.8,48.7h-4.3c-5.8,0-10.5-4.7-10.5-10.5V25.6c0-5.8,4.7-10.5,10.5-10.5h4.3
								c5.8,0,10.5,4.7,10.5,10.5v12.6C198.3,43.9,193.6,48.7,187.8,48.7z"/>
							<g>
								<path class="st5" d="M195.5,57.4c0-6.6-4.5-12-10-12c-5.5,0-10,5.4-10,12l0,0c0,3.3,4.5,6,10,6
									C191,63.4,195.5,60.7,195.5,57.4L195.5,57.4z"/>
								<path class="st10" d="M189.3,46.3c-1.2-0.6-2.5-0.9-3.9-0.9c-1.4,0-2.7,0.3-3.9,0.9c-0.6,1.7,0,7.1,3.9,7.1l0,0
									C189.3,53.4,189.9,48,189.3,46.3z"/>
							</g>
							<g>
								<path class="st6" d="M189.3,46.3c-1.2-0.6-2.5-0.9-3.9-0.9c-1.4,0-2.7,0.3-3.9,0.9c0.4,1.8,2,3.1,3.9,3.1
									C187.3,49.4,188.9,48.1,189.3,46.3z"/>
								<rect x="183.5" y="39.1" class="st6" width="4" height="7.7"/>
							</g>
							<path class="st6" d="M185.5,17.4c-5.5,0-10,4.7-10,10.4V33c0,5.7,4.5,10.4,10,10.4s10-4.7,10-10.4v-5.2
								C195.5,22.1,191,17.4,185.5,17.4z"/>
							<path class="st9" d="M185.5,15c-6.8,0-12.4,5.7-12.4,12.8V33c0,2,0.6,3.8,1.2,5.5c0.2,0.7,0.4,1.7,0.3,2.8h2.9
								c-0.8-2.2-0.5-9.5,4.1-11.7s7.8-7.3,7.8-7.3c2.9,1.3,6.1,5.5,6.1,5.5h2.4C197.9,20.8,192.3,15,185.5,15z"/>
						</g>
					</g>
				</g>
			</g>
		</g>
	</g>
	<g>
		<g class="st20">
			<defs>
				<rect id="SVGID_19_" x="2.1" y="46.6" class="st20" width="48" height="32"/>
			</defs>
			<clipPath id="SVGID_20_">
				<use xlink:href="#SVGID_19_"  style="overflow:visible;"/>
			</clipPath>
			<rect x="40.5" y="54.6" class="st21" width="9.6" height="8"/>
			<rect x="40.5" y="46.6" class="st22" width="9.6" height="8"/>
			<rect x="40.5" y="62.6" class="st23" width="9.6" height="8"/>
			<rect x="40.5" y="70.6" class="st24" width="9.6" height="8"/>
			<rect x="30.9" y="46.6" class="st23" width="9.6" height="8"/>
			<rect x="30.9" y="54.6" class="st22" width="9.6" height="8"/>
			<rect x="30.9" y="62.6" class="st21" width="9.6" height="8"/>
			<rect x="30.9" y="70.6" class="st22" width="9.6" height="8"/>
			<rect x="21.3" y="70.6" class="st21" width="9.6" height="8"/>
			<rect x="21.3" y="46.6" class="st23" width="9.6" height="8"/>
			<rect x="21.3" y="54.6" class="st22" width="9.6" height="8"/>
			<rect x="21.3" y="62.6" class="st21" width="9.6" height="8"/>
			<rect x="11.7" y="46.6" class="st25" width="9.6" height="8"/>
			<rect x="11.7" y="54.6" class="st23" width="9.6" height="8"/>
			<rect x="11.7" y="46.6" class="st21" width="9.6" height="8"/>
			<rect x="11.7" y="62.6" class="st23" width="9.6" height="8"/>
			<rect x="11.7" y="70.6" class="st21" width="9.6" height="8"/>
			<rect x="2.1" y="46.6" class="st24" width="9.6" height="8"/>
			<rect x="2.1" y="54.6" class="st22" width="9.6" height="8"/>
			<rect x="2.1" y="70.6" class="st25" width="9.6" height="8"/>
			<rect x="2.1" y="62.6" class="st21" width="9.6" height="8"/>
		</g>
		<g class="st20">
			<defs>
				<rect id="SVGID_21_" x="61.3" y="3.4" class="st20" width="48" height="32"/>
			</defs>
			<clipPath id="SVGID_22_">
				<use xlink:href="#SVGID_21_"  style="overflow:visible;"/>
			</clipPath>
			<rect x="61.3" y="19.4" class="st26" width="9.6" height="8"/>
			<rect x="61.3" y="11.4" class="st27" width="9.6" height="8"/>
			<rect x="61.3" y="3.4" class="st26" width="9.6" height="8"/>
			<rect x="70.9" y="27.4" class="st27" width="9.6" height="8"/>
			<rect x="70.9" y="19.4" class="st28" width="9.6" height="8"/>
			<rect x="70.9" y="11.4" class="st29" width="9.6" height="8"/>
			<rect x="70.9" y="3.4" class="st27" width="9.6" height="8"/>
			<rect x="80.5" y="27.4" class="st29" width="9.6" height="8"/>
			<rect x="80.5" y="19.4" class="st27" width="9.6" height="8"/>
			<rect x="80.5" y="11.4" class="st27" width="9.6" height="8"/>
			<rect x="90.1" y="27.4" class="st27" width="9.6" height="8"/>
			<rect x="90.1" y="19.4" class="st29" width="9.6" height="8"/>
			<rect x="90.1" y="11.4" class="st28" width="9.6" height="8"/>
			<rect x="90.1" y="3.4" class="st27" width="9.6" height="8"/>
			<rect x="99.7" y="27.4" class="st28" width="9.6" height="8"/>
			<rect x="99.7" y="19.4" class="st27" width="9.6" height="8"/>
			<rect x="99.7" y="3.4" class="st29" width="9.6" height="8"/>
		</g>
		<g class="st20">
			<defs>
				<rect id="SVGID_23_" x="61.3" y="46.6" class="st20" width="48" height="32"/>
			</defs>
			<clipPath id="SVGID_24_">
				<use xlink:href="#SVGID_23_"  style="overflow:visible;"/>
			</clipPath>
			<rect x="99.7" y="54.6" class="st30" width="9.6" height="8"/>
			<rect x="99.7" y="46.6" class="st31" width="9.6" height="8"/>
			<rect x="99.7" y="62.6" class="st32" width="9.6" height="8"/>
			<rect x="99.7" y="70.6" class="st33" width="9.6" height="8"/>
			<rect x="90.1" y="46.6" class="st30" width="9.6" height="8"/>
			<rect x="90.1" y="54.6" class="st31" width="9.6" height="8"/>
			<rect x="90.1" y="62.6" class="st30" width="9.6" height="8"/>
			<rect x="90.1" y="70.6" class="st31" width="9.6" height="8"/>
			<rect x="80.5" y="70.6" class="st34" width="9.6" height="8"/>
			<rect x="80.5" y="46.6" class="st32" width="9.6" height="8"/>
			<rect x="80.5" y="54.6" class="st30" width="9.6" height="8"/>
			<rect x="80.5" y="62.6" class="st31" width="9.6" height="8"/>
			<rect x="70.9" y="46.6" class="st34" width="9.6" height="8"/>
			<rect x="70.9" y="54.6" class="st32" width="9.6" height="8"/>
			<rect x="70.9" y="46.6" class="st30" width="9.6" height="8"/>
			<rect x="70.9" y="62.6" class="st32" width="9.6" height="8"/>
			<rect x="70.9" y="70.6" class="st30" width="9.6" height="8"/>
			<rect x="61.3" y="46.6" class="st33" width="9.6" height="8"/>
			<rect x="61.3" y="54.6" class="st30" width="9.6" height="8"/>
			<rect x="61.3" y="70.6" class="st34" width="9.6" height="8"/>
			<rect x="61.3" y="62.6" class="st31" width="9.6" height="8"/>
		</g>
		<g class="st20">
			<defs>
				<rect id="SVGID_25_" x="2.1" y="3.4" class="st20" width="48" height="32"/>
			</defs>
			<clipPath id="SVGID_26_">
				<use xlink:href="#SVGID_25_"  style="overflow:visible;"/>
			</clipPath>
			<rect x="2.1" y="19.4" class="st35" width="9.6" height="8"/>
			<rect x="2.1" y="27.4" class="st36" width="9.6" height="8"/>
			<rect x="2.1" y="11.4" class="st37" width="9.6" height="8"/>
			<rect x="2.1" y="3.4" class="st38" width="9.6" height="8"/>
			<rect x="11.7" y="27.4" class="st35" width="9.6" height="8"/>
			<rect x="11.7" y="19.4" class="st36" width="9.6" height="8"/>
			<rect x="11.7" y="11.4" class="st35" width="9.6" height="8"/>
			<rect x="11.7" y="3.4" class="st36" width="9.6" height="8"/>
			<rect x="21.3" y="3.4" class="st39" width="9.6" height="8"/>
			<rect x="21.3" y="27.4" class="st37" width="9.6" height="8"/>
			<rect x="21.3" y="19.4" class="st35" width="9.6" height="8"/>
			<rect x="21.3" y="11.4" class="st36" width="9.6" height="8"/>
			<rect x="30.9" y="27.4" class="st39" width="9.6" height="8"/>
			<rect x="30.9" y="19.4" class="st37" width="9.6" height="8"/>
			<rect x="30.9" y="27.4" class="st35" width="9.6" height="8"/>
			<rect x="30.9" y="11.4" class="st37" width="9.6" height="8"/>
			<rect x="30.9" y="3.4" class="st35" width="9.6" height="8"/>
			<rect x="40.5" y="27.4" class="st38" width="9.6" height="8"/>
			<rect x="40.5" y="19.4" class="st35" width="9.6" height="8"/>
			<rect x="40.5" y="3.4" class="st39" width="9.6" height="8"/>
			<rect x="40.5" y="11.4" class="st36" width="9.6" height="8"/>
		</g>
		<g>
			<defs>
				<rect id="SVGID_27_" x="0" y="44.5" width="48" height="32"/>
			</defs>
			<clipPath id="SVGID_28_">
				<use xlink:href="#SVGID_27_"  style="overflow:visible;"/>
			</clipPath>
			<rect x="38.4" y="52.5" class="st40" width="9.6" height="8"/>
			<rect x="38.4" y="44.5" class="st41" width="9.6" height="8"/>
			<rect x="38.4" y="60.5" class="st42" width="9.6" height="8"/>
			<rect x="38.4" y="68.5" class="st43" width="9.6" height="8"/>
			<rect x="28.8" y="44.5" class="st42" width="9.6" height="8"/>
			<rect x="28.8" y="52.5" class="st41" width="9.6" height="8"/>
			<rect x="28.8" y="60.5" class="st40" width="9.6" height="8"/>
			<rect x="28.8" y="68.5" class="st41" width="9.6" height="8"/>
			<rect x="19.2" y="68.5" class="st40" width="9.6" height="8"/>
			<rect x="19.2" y="44.5" class="st42" width="9.6" height="8"/>
			<rect x="19.2" y="52.5" class="st41" width="9.6" height="8"/>
			<rect x="19.2" y="60.5" class="st40" width="9.6" height="8"/>
			<rect x="9.6" y="44.5" class="st44" width="9.6" height="8"/>
			<rect x="9.6" y="52.5" class="st42" width="9.6" height="8"/>
			<rect x="9.6" y="44.5" class="st40" width="9.6" height="8"/>
			<rect x="9.6" y="60.5" class="st42" width="9.6" height="8"/>
			<rect x="9.6" y="68.5" class="st40" width="9.6" height="8"/>
			<rect x="0" y="44.5" class="st43" width="9.6" height="8"/>
			<rect x="0" y="52.5" class="st41" width="9.6" height="8"/>
			<rect x="0" y="68.5" class="st44" width="9.6" height="8"/>
			<rect x="0" y="60.5" class="st40" width="9.6" height="8"/>
		</g>
		<g>
			<defs>
				<rect id="SVGID_29_" x="59.2" y="1.3" width="48" height="32"/>
			</defs>
			<clipPath id="SVGID_30_">
				<use xlink:href="#SVGID_29_"  style="overflow:visible;"/>
			</clipPath>
			<rect x="59.2" y="17.3" class="st45" width="9.6" height="8"/>
			<rect x="59.2" y="9.3" class="st46" width="9.6" height="8"/>
			<rect x="59.2" y="1.3" class="st45" width="9.6" height="8"/>
			<rect x="68.8" y="25.3" class="st46" width="9.6" height="8"/>
			<rect x="68.8" y="17.3" class="st47" width="9.6" height="8"/>
			<rect x="68.8" y="9.3" class="st48" width="9.6" height="8"/>
			<rect x="68.8" y="1.3" class="st46" width="9.6" height="8"/>
			<rect x="78.4" y="25.3" class="st48" width="9.6" height="8"/>
			<rect x="78.4" y="17.3" class="st46" width="9.6" height="8"/>
			<rect x="78.4" y="9.3" class="st46" width="9.6" height="8"/>
			<rect x="88" y="25.3" class="st46" width="9.6" height="8"/>
			<rect x="88" y="17.3" class="st48" width="9.6" height="8"/>
			<rect x="88" y="9.3" class="st47" width="9.6" height="8"/>
			<rect x="88" y="1.3" class="st46" width="9.6" height="8"/>
			<rect x="97.6" y="25.3" class="st47" width="9.6" height="8"/>
			<rect x="97.6" y="17.3" class="st46" width="9.6" height="8"/>
			<rect x="97.6" y="1.3" class="st48" width="9.6" height="8"/>
		</g>
		<g>
			<defs>
				<rect id="SVGID_31_" x="59.2" y="44.5" width="48" height="32"/>
			</defs>
			<clipPath id="SVGID_32_">
				<use xlink:href="#SVGID_31_"  style="overflow:visible;"/>
			</clipPath>
			<rect x="97.6" y="52.5" class="st49" width="9.6" height="8"/>
			<rect x="97.6" y="44.5" class="st50" width="9.6" height="8"/>
			<rect x="97.6" y="60.5" class="st51" width="9.6" height="8"/>
			<rect x="97.6" y="68.5" class="st52" width="9.6" height="8"/>
			<rect x="88" y="44.5" class="st49" width="9.6" height="8"/>
			<rect x="88" y="52.5" class="st50" width="9.6" height="8"/>
			<rect x="88" y="60.5" class="st49" width="9.6" height="8"/>
			<rect x="88" y="68.5" class="st50" width="9.6" height="8"/>
			<rect x="78.4" y="68.5" class="st53" width="9.6" height="8"/>
			<rect x="78.4" y="44.5" class="st51" width="9.6" height="8"/>
			<rect x="78.4" y="52.5" class="st49" width="9.6" height="8"/>
			<rect x="78.4" y="60.5" class="st50" width="9.6" height="8"/>
			<rect x="68.8" y="44.5" class="st53" width="9.6" height="8"/>
			<rect x="68.8" y="52.5" class="st51" width="9.6" height="8"/>
			<rect x="68.8" y="44.5" class="st49" width="9.6" height="8"/>
			<rect x="68.8" y="60.5" class="st51" width="9.6" height="8"/>
			<rect x="68.8" y="68.5" class="st49" width="9.6" height="8"/>
			<rect x="59.2" y="44.5" class="st52" width="9.6" height="8"/>
			<rect x="59.2" y="52.5" class="st49" width="9.6" height="8"/>
			<rect x="59.2" y="68.5" class="st53" width="9.6" height="8"/>
			<rect x="59.2" y="60.5" class="st50" width="9.6" height="8"/>
		</g>
		<g>
			<defs>
				<rect id="SVGID_33_" x="0" y="1.3" width="48" height="32"/>
			</defs>
			<clipPath id="SVGID_34_">
				<use xlink:href="#SVGID_33_"  style="overflow:visible;"/>
			</clipPath>
			<rect x="0" y="17.3" class="st54" width="9.6" height="8"/>
			<rect x="0" y="25.3" class="st55" width="9.6" height="8"/>
			<rect x="0" y="9.3" class="st56" width="9.6" height="8"/>
			<rect x="0" y="1.3" class="st57" width="9.6" height="8"/>
			<rect x="9.6" y="25.3" class="st54" width="9.6" height="8"/>
			<rect x="9.6" y="17.3" class="st55" width="9.6" height="8"/>
			<rect x="9.6" y="9.3" class="st54" width="9.6" height="8"/>
			<rect x="9.6" y="1.3" class="st55" width="9.6" height="8"/>
			<rect x="19.2" y="1.3" class="st58" width="9.6" height="8"/>
			<rect x="19.2" y="25.3" class="st56" width="9.6" height="8"/>
			<rect x="19.2" y="17.3" class="st54" width="9.6" height="8"/>
			<rect x="19.2" y="9.3" class="st55" width="9.6" height="8"/>
			<rect x="28.8" y="25.3" class="st58" width="9.6" height="8"/>
			<rect x="28.8" y="17.3" class="st56" width="9.6" height="8"/>
			<rect x="28.8" y="25.3" class="st54" width="9.6" height="8"/>
			<rect x="28.8" y="9.3" class="st56" width="9.6" height="8"/>
			<rect x="28.8" y="1.3" class="st54" width="9.6" height="8"/>
			<rect x="38.4" y="25.3" class="st57" width="9.6" height="8"/>
			<rect x="38.4" y="17.3" class="st54" width="9.6" height="8"/>
			<rect x="38.4" y="1.3" class="st58" width="9.6" height="8"/>
			<rect x="38.4" y="9.3" class="st55" width="9.6" height="8"/>
		</g>
	</g>
	<g>
		<line class="st59" x1="118.3" y1="40.3" x2="147.3" y2="40.3"/>
		<g>
			<line class="st60" x1="118.3" y1="40.3" x2="144.9" y2="40.3"/>
			<g>
				<polygon class="st61" points="137.6,49.3 136.1,47.7 144.1,40.3 136.1,32.8 137.6,31.2 147.3,40.3 				"/>
			</g>
		</g>
	</g>
	<g>
		<line class="st59" x1="273.6" y1="40.3" x2="302.7" y2="40.3"/>
		<g>
			<line class="st60" x1="273.6" y1="40.3" x2="300.3" y2="40.3"/>
			<g>
				<polygon class="st61" points="293,49.3 291.5,47.7 299.5,40.3 291.5,32.8 293,31.2 302.7,40.3 				"/>
			</g>
		</g>
	</g>
</g>
</svg>
