<?xml version="1.0" encoding="utf-8"?>
<!-- Generator: Adobe Illustrator 19.1.0, SVG Export Plug-In . SVG Version: 6.00 Build 0)  -->
<svg version="1.1" id="Layer_1" xmlns="http://www.w3.org/2000/svg" xmlns:xlink="http://www.w3.org/1999/xlink" x="0px" y="0px"
	 viewBox="0 0 410 155" style="enable-background:new 0 0 410 155;" xml:space="preserve">
<style type="text/css">
	.st0{opacity:0.3;}
	.st1{fill:url(#SVGID_1_);}
	.st2{fill:url(#SVGID_2_);}
	.st3{fill:#3776B5;}
	.st4{opacity:0.15;}
	.st5{opacity:0.5;clip-path:url(#SVGID_4_);fill:#010101;}
	.st6{clip-path:url(#SVGID_4_);fill:#010101;}
	.st7{opacity:0.25;clip-path:url(#SVGID_4_);fill:#010101;}
	.st8{opacity:0.75;clip-path:url(#SVGID_4_);fill:#010101;}
	.st9{opacity:0.5;clip-path:url(#SVGID_6_);fill:#FFFFFF;}
	.st10{clip-path:url(#SVGID_6_);fill:#FFFFFF;}
	.st11{opacity:0.25;clip-path:url(#SVGID_6_);fill:#FFFFFF;}
	.st12{opacity:0.75;clip-path:url(#SVGID_6_);fill:#FFFFFF;}
</style>
<g class="st0">
	<linearGradient id="SVGID_1_" gradientUnits="userSpaceOnUse" x1="2.7961" y1="14.7047" x2="2.7961" y2="-1.255103e-010">
		<stop  offset="0" style="stop-color:#FFFFFF;stop-opacity:0"/>
		<stop  offset="0.5" style="stop-color:#FFFFFF;stop-opacity:0.5"/>
		<stop  offset="1" style="stop-color:#FEFFFF;stop-opacity:0"/>
	</linearGradient>
	<polygon class="st1" points="3.5,0 0,9.1 0,14.7 5.6,0 	"/>
	<linearGradient id="SVGID_2_" gradientUnits="userSpaceOnUse" x1="205.0584" y1="155" x2="205.0584" y2="-7.090421e-009">
		<stop  offset="0" style="stop-color:#FFFFFF;stop-opacity:0"/>
		<stop  offset="0.5" style="stop-color:#FFFFFF"/>
		<stop  offset="1" style="stop-color:#FEFFFF;stop-opacity:0"/>
	</linearGradient>
	<path class="st2" d="M223.3,155l10.7-24.2c1.7,0.5,3.5,0.2,5-0.6l19,24.8h2.5l-19.9-26c0.7-0.7,1.2-1.5,1.5-2.5
		c0.3-0.9,0.4-1.8,0.3-2.7l37.4-9c0.6,1.4,1.7,2.7,3.1,3.4L270.6,155h2.1l12.1-36.2c1.2,0.2,2.4,0.1,3.5-0.3l13.6,24.2
		c-1,0.8-1.8,1.9-2.2,3.1c-0.4,1.3-0.4,2.7-0.1,3.9l-11.8,5.3h4.9l7.7-3.5c0.7,1.1,1.7,1.9,2.9,2.5l-0.3,1h2.1l0.1-0.5
		c1,0.1,2,0,2.9-0.3l0.4,0.8h2.2l-0.9-1.7c1.1-0.8,2-1.9,2.5-3.3c0.2-0.6,0.3-1.2,0.3-1.8l33.8-3.6c0.5,1.7,1.6,3.2,3.2,4.1
		l-2.4,6.2h2.1l2.1-5.5c1.5,0.3,3.1,0.1,4.4-0.6l4.3,6.1h2.5l-5.2-7.3c0.7-0.7,1.3-1.6,1.7-2.7c0.3-1,0.4-2.1,0.3-3.1l37.6-11.6
		c0.6,1.2,1.5,2.2,2.7,2.9l-8.3,21.8h2.1l8-21c1.4,0.3,2.9,0.1,4.1-0.4l4.2,6.5v-3.7l-2.5-3.9c0.9-0.8,1.5-1.7,1.9-2.9
		c0.4-1.3,0.4-2.7,0.1-3.9l0.5-0.2v-2.2l-1.3,0.6c-0.6-1-1.5-1.8-2.6-2.3l3.9-11.6v-6.3l-5.8,17.2c-1.3-0.2-2.6-0.1-3.8,0.4
		l-20.6-33c0.9-0.8,1.6-1.8,2-3c0.4-1.2,0.4-2.5,0.1-3.7l28-11.6v-2.2l-28.7,11.9c-0.6-1-1.5-1.9-2.7-2.5l15.7-46.9
		c1.5,0.3,3,0,4.3-0.7L410.1,45v-3.3l-9.8-13.1c0.7-0.7,1.2-1.6,1.6-2.6c1.2-3.5-0.7-7.3-4.2-8.5c-3.5-1.2-7.3,0.7-8.5,4.2
		c-0.3,1-0.4,1.9-0.3,2.9l-36.7,9.8c-0.4-1.2-1.1-2.2-2-3L363,0h-2.2l-12.4,30.4c-0.1-0.1-0.3-0.1-0.4-0.2c-1.6-0.5-3.3-0.4-4.8,0.2
		L320.1,0h-9.2c0.4,0.3,0.8,0.5,1.3,0.7l-10.5,47.9c-1.5-0.1-2.9,0.3-4.1,1.1l-26-28.5c0.5-0.6,0.9-1.3,1.1-2.1
		c0.5-1.4,0.4-2.7,0.1-4L305,0h-4.7l-28.4,13.3c-0.6-0.9-1.5-1.7-2.5-2.2l3.7-11H271l-3.5,10.4c-1.4-0.2-2.8,0-4.1,0.6l-7.6-11h-2.4
		l8.4,12.1c-0.8,0.7-1.4,1.7-1.8,2.7c-0.3,1-0.4,2-0.3,3l-37.8,11c-0.6-1.4-1.7-2.5-3.1-3.2L227.1,0H225l-8,25
		c-1.3-0.2-2.7,0-3.8,0.5L196.4,0H194l17.4,26.6c-0.8,0.7-1.5,1.7-1.9,2.9c-0.2,0.5-0.2,0.9-0.3,1.4l-38.1,1.4
		c-0.3-1.7-1.3-3.2-2.8-4.3l13.7-28h-2.2l-13.2,27.1c-1.8-0.6-3.6-0.3-5.2,0.5L140.6,0h-2.5l21.8,28.8c-0.7,0.7-1.2,1.6-1.6,2.5
		c-0.3,1-0.4,2.1-0.3,3.1l-41.9,13c-0.6-1.1-1.4-2.1-2.5-2.8L132.2,0h-2.2l-18.4,43.9c-1.3-0.3-2.6-0.2-3.8,0.1L92.1,13.3
		c1.1-0.8,2-1.9,2.4-3.3C94.9,9,95,7.9,94.8,6.8l21-6.8h-6.5L94.2,4.9c-0.6-1.1-1.4-2.1-2.5-2.7L92.6,0h-2.2l-0.6,1.4
		c-1.5-0.4-3.1-0.2-4.4,0.4L84.2,0h-2.4l2,3c-0.8,0.7-1.5,1.7-1.9,2.8c-0.4,1.2-0.4,2.5-0.2,3.6L45,24.2c-0.6-0.8-1.3-1.6-2.2-2.1
		L51.4,0h-2.1l-8.3,21.3c-1.7-0.4-3.4-0.1-4.8,0.7L18.6,0h-2.6l18.5,23.3c-0.6,0.7-1.1,1.5-1.5,2.4c-0.4,1.1-0.4,2.2-0.2,3.2L0,39.9
		V42l33.5-11.1c0.6,1.2,1.6,2.3,2.9,2.9L20,82.9c-1.4-0.3-2.9,0-4.1,0.6L0,61.2v3.5l14.2,20c-0.8,0.7-1.4,1.6-1.7,2.7
		c-0.4,1.2-0.4,2.5-0.2,3.7L0,96.1v2.2l13.1-5.3c0.6,1.1,1.6,2,2.8,2.6L0,144.2V155h3.8c0-0.1,0-0.3-0.1-0.4l33-13.2
		c0.7,1.2,1.8,2.2,3.2,2.8L37.2,155h2.1l2.6-10.4c1.1,0.1,2.3-0.1,3.3-0.5L52,155h2.4l-7.6-12c0.9-0.8,1.6-1.7,2-2.9
		c0.5-1.4,0.4-2.8,0-4.1l34.1-16.8c0.8,1.1,1.8,2,3.2,2.5L79.2,155h2l6.7-33c1.2,0.1,2.3-0.2,3.3-0.7l23.6,33.7h9.1
		c-0.2-0.2-0.4-0.3-0.7-0.5l23.5-52.9c1.5,0.4,3.1,0.3,4.5-0.4l22.5,34.7c-0.6,0.7-1.1,1.5-1.4,2.4c-0.4,1.1-0.4,2.2-0.2,3.3
		L131.9,155h6.3l34.5-11.6c0.6,1.1,1.5,2.1,2.6,2.7l-3.5,8.8h2.2l3.2-8.1c1.5,0.3,3,0.2,4.3-0.4l5.5,8.5h2.4l-6.2-9.6
		c0.9-0.8,1.5-1.7,1.9-2.9c0.3-1,0.4-2,0.3-2.9l44.4-12.5c0.5,1.2,1.4,2.2,2.5,2.9l-11,25H223.3z M279.7,110.1
		c-0.3,0.9-0.4,1.8-0.3,2.7l-37.4,9c-0.6-1.6-1.9-2.9-3.6-3.6l9.8-38.5c1.6,0.1,3.1-0.3,4.4-1.2l28.2,29.6
		C280.3,108.7,279.9,109.3,279.7,110.1z M308.1,141.5c-1.5-0.5-3-0.4-4.4,0.1l-13.6-24.2c1-0.8,1.8-1.9,2.2-3.1
		c0.4-1.1,0.4-2.3,0.2-3.4l32.9-11.5c0.5,0.9,1.2,1.7,2.1,2.4L308.1,141.5z M346.7,140.8c-0.2,0.6-0.3,1.2-0.3,1.8l-33.8,3.6
		c-0.4-1.5-1.3-2.9-2.7-3.8l19.5-39.7c1.3,0.4,2.7,0.4,3.9,0l16.1,34.6C348.1,138.2,347.2,139.3,346.7,140.8z M354.4,136.4
		c-1.1-0.2-2.2-0.2-3.3,0.1l-16.1-34.6c1.2-0.8,2.2-2,2.7-3.4c0.3-1,0.4-2,0.3-3l31.6-9.4c0.6,1.2,1.5,2.3,2.8,3L354.4,136.4z
		 M398.9,122.4c-0.9,0.8-1.6,1.8-2,3c-0.3,1-0.4,2.1-0.3,3.1L359,140c-0.6-1.2-1.5-2.2-2.7-2.9l18-47.3c1.4,0.3,2.8,0.1,4-0.4
		L398.9,122.4z M352.2,38.7c0.3-0.8,0.4-1.5,0.3-2.3l36.9-9.9c0.6,1.4,1.7,2.5,3.1,3.3l-15.7,46.9c-1.3-0.2-2.6-0.1-3.8,0.4
		l-22.3-35.9C351.4,40.5,351.9,39.6,352.2,38.7z M346.3,43.2c1-0.1,2-0.3,2.9-0.8l22.2,35.8c-0.9,0.8-1.6,1.8-2,3
		c-0.3,1-0.4,2-0.3,3l-31.6,9.4c-0.7-1.4-1.9-2.6-3.4-3.3L346.3,43.2z M343.8,42.9c0.2,0.1,0.3,0.1,0.5,0.1l-12.2,46.7
		c-1.3-0.1-2.6,0.1-3.8,0.7L306,60c0.7-0.7,1.3-1.6,1.6-2.6c0.4-1.3,0.4-2.6,0.1-3.7L340.2,40C341,41.3,342.2,42.4,343.8,42.9z
		 M314.1,1.1c1.3,0.1,2.5-0.2,3.6-0.8l23.8,31.2c-0.9,0.8-1.6,1.8-2,2.9c-0.4,1.3-0.4,2.6-0.1,3.7L307,51.8
		c-0.7-1.2-1.9-2.2-3.3-2.8L314.1,1.1z M304.4,61.1l22.3,30.5c-0.7,0.7-1.3,1.6-1.6,2.6c-0.4,1.1-0.4,2.3-0.2,3.4l-32.9,11.5
		c-0.7-1.3-1.8-2.4-3.2-3l11.8-44.2C301.9,62,303.2,61.7,304.4,61.1z M298.6,61.3l-11.8,44.2c-1.6-0.2-3.3,0.3-4.6,1.2L254,77.1
		c0.5-0.6,0.8-1.2,1.1-2c0.4-1.1,0.4-2.2,0.3-3.2l40-13.6C296,59.6,297.1,60.7,298.6,61.3z M270.1,22.5l26,28.5
		c-0.5,0.6-0.9,1.3-1.1,2.1c-0.4,1.1-0.4,2.2-0.2,3.3l-40,13.6c-0.6-1.3-1.7-2.3-3-3l13.6-43.5C267,23.8,268.7,23.4,270.1,22.5z
		 M222.2,33.7c0.3-1,0.4-2,0.3-3l37.8-11c0.6,1.4,1.7,2.5,3.1,3.2l-13.6,43.5c-1.6-0.3-3.1,0-4.4,0.8l-24.6-31.1
		C221.4,35.5,221.9,34.7,222.2,33.7z M214.2,38.1c1.7,0.4,3.5,0.2,5-0.7l24.6,31.1c-0.6,0.7-1.1,1.5-1.5,2.4
		c-0.2,0.5-0.3,1.1-0.3,1.6l-38.8,2.6c-0.4-1.7-1.5-3.3-3-4.2L214.2,38.1z M171,35.6c0.2-0.5,0.2-0.9,0.3-1.4l38.1-1.4
		c0.3,1.8,1.4,3.4,3.1,4.4l-14,32.8c-1.7-0.4-3.4-0.2-4.8,0.6l-24.3-32.5C170.1,37.5,170.6,36.6,171,35.6z M86.7,14.4
		c1.2,0.3,2.5,0.2,3.6-0.2L106.2,45c-1.1,0.8-2,1.9-2.4,3.3c-0.4,1.3-0.4,2.6-0.1,3.8L69,66.9c-0.6-0.9-1.3-1.7-2.3-2.2L86.7,14.4z
		 M45.8,30c0.5-1.4,0.4-2.8,0.1-4l36.6-14.7c0.6,1,1.4,1.8,2.4,2.4L64.8,64c-1.3-0.3-2.6-0.2-3.7,0.2L44.3,32.4
		C45,31.7,45.5,30.9,45.8,30z M38.3,34.4c1.6,0.3,3.1,0,4.4-0.8l16.6,31.4c-1.1,0.8-1.9,1.9-2.4,3.2c-0.4,1.2-0.4,2.5-0.2,3.7
		L23.9,85.2c-0.6-0.7-1.3-1.2-2.1-1.7L38.3,34.4z M36.1,135.8c-0.4,1.2-0.4,2.5-0.2,3.7l-33,13.2c-0.6-1.1-1.6-2-2.8-2.6l17.5-54
		c0.8,0.1,1.5,0.1,2.3,0l18.5,36.4C37.4,133.3,36.6,134.4,36.1,135.8z M43.4,131.3c-1.1-0.2-2.1-0.1-3.1,0.3L21.9,95.4
		c1.5-0.8,2.7-2.1,3.2-3.8c0.5-1.6,0.4-3.2-0.2-4.7l32.6-13.1c0.7,1.1,1.6,2,2.8,2.6L43.4,131.3z M82,113.2c-0.5,1.4-0.4,2.8,0,4.1
		l-34.1,16.8c-0.6-0.9-1.5-1.7-2.6-2.2l17-54.9c1.2,0.2,2.4,0,3.4-0.4l19.1,32.9C83.6,110.4,82.5,111.6,82,113.2z M89.5,108.7
		c-1-0.2-1.9-0.1-2.8,0.1L67.5,75.7c1-0.8,1.7-1.8,2.2-3.1c0.4-1.3,0.4-2.6,0.1-3.8l34.6-14.9c0.6,1,1.5,1.9,2.6,2.4L89.5,108.7z
		 M108.9,57c1.7,0.3,3.3-0.1,4.7-0.9l29.8,34.7c-0.6,0.6-1,1.4-1.3,2.2c-0.4,1.1-0.4,2.2-0.2,3.3l-47.6,16c-0.6-1.2-1.6-2.2-2.9-2.9
		L108.9,57z M121.4,153.7c-1.6-0.4-3.3-0.3-4.7,0.5l-23.8-34c0.8-0.7,1.4-1.6,1.7-2.7c0.4-1.1,0.4-2.2,0.2-3.3l47.6-16
		c0.5,1,1.3,1.9,2.4,2.6L121.4,153.7z M144.9,89.5l-29.8-34.7c0.6-0.6,1-1.4,1.3-2.2c0.3-1,0.4-2.1,0.3-3.1l41.9-13
		c0.7,1.4,1.9,2.6,3.4,3.2l-12.8,48.9C147.7,88.3,146.2,88.7,144.9,89.5z M151.1,89l12.8-48.9c1.4,0.1,2.7-0.1,3.9-0.8L192,71.9
		c-0.7,0.7-1.3,1.6-1.6,2.6c-0.4,1.2-0.4,2.4-0.2,3.6l-36,13.8C153.6,90.6,152.5,89.6,151.1,89z M179.5,133.8
		c-1.5-0.2-3,0.1-4.2,0.9l-22.3-34.5c0.8-0.8,1.5-1.7,1.9-2.9c0.4-1.2,0.4-2.4,0.2-3.6l36-13.8c0.7,1.2,1.7,2.2,3,2.8L179.5,133.8z
		 M229.4,122.2c-0.3,1-0.4,2-0.3,2.9l-44.4,12.5c-0.7-1.4-1.8-2.6-3.3-3.3l14.5-51.1c1.5,0.2,3-0.1,4.2-0.9l30.6,37.5
		C230.2,120.5,229.7,121.3,229.4,122.2z M201.7,81c0.6-0.7,1.1-1.5,1.4-2.4c0.2-0.5,0.3-1,0.3-1.6l38.8-2.6c0.5,2.1,1.9,3.8,4,4.7
		l-9.8,38.5c-1.4-0.1-2.9,0.2-4.1,0.9L201.7,81z"/>
</g>
<g>
	<rect x="176.3" y="64.4" class="st3" width="39.8" height="26.5"/>
	<g class="st4">
		<defs>
			<rect id="SVGID_3_" x="178" y="66.1" class="st4" width="39.8" height="26.5"/>
		</defs>
		<clipPath id="SVGID_4_">
			<use xlink:href="#SVGID_3_"  style="overflow:visible;"/>
		</clipPath>
		<rect x="178" y="79.4" class="st5" width="8" height="6.6"/>
		<rect x="178" y="72.8" class="st6" width="8" height="6.6"/>
		<rect x="178" y="66.1" class="st5" width="8" height="6.6"/>
		<rect x="186" y="86" class="st6" width="8" height="6.6"/>
		<rect x="186" y="79.4" class="st7" width="8" height="6.6"/>
		<rect x="186" y="72.8" class="st8" width="8" height="6.6"/>
		<rect x="186" y="66.1" class="st6" width="8" height="6.6"/>
		<rect x="193.9" y="86" class="st8" width="8" height="6.6"/>
		<rect x="193.9" y="79.4" class="st6" width="8" height="6.6"/>
		<rect x="193.9" y="72.8" class="st6" width="8" height="6.6"/>
		<rect x="201.9" y="86" class="st6" width="8" height="6.6"/>
		<rect x="201.9" y="79.4" class="st8" width="8" height="6.6"/>
		<rect x="201.9" y="72.8" class="st7" width="8" height="6.6"/>
		<rect x="201.9" y="66.1" class="st6" width="8" height="6.6"/>
		<rect x="209.9" y="86" class="st7" width="8" height="6.6"/>
		<rect x="209.9" y="79.4" class="st6" width="8" height="6.6"/>
		<rect x="209.9" y="66.1" class="st8" width="8" height="6.6"/>
	</g>
	<g>
		<defs>
			<rect id="SVGID_5_" x="176.3" y="64.4" width="39.8" height="26.5"/>
		</defs>
		<clipPath id="SVGID_6_">
			<use xlink:href="#SVGID_5_"  style="overflow:visible;"/>
		</clipPath>
		<rect x="176.3" y="77.6" class="st9" width="8" height="6.6"/>
		<rect x="176.3" y="71" class="st10" width="8" height="6.6"/>
		<rect x="176.3" y="64.4" class="st9" width="8" height="6.6"/>
		<rect x="184.2" y="84.2" class="st10" width="8" height="6.6"/>
		<rect x="184.2" y="77.6" class="st11" width="8" height="6.6"/>
		<rect x="184.2" y="71" class="st12" width="8" height="6.6"/>
		<rect x="184.2" y="64.4" class="st10" width="8" height="6.6"/>
		<rect x="192.2" y="84.2" class="st12" width="8" height="6.6"/>
		<rect x="192.2" y="77.6" class="st10" width="8" height="6.6"/>
		<rect x="192.2" y="71" class="st10" width="8" height="6.6"/>
		<rect x="200.1" y="84.2" class="st10" width="8" height="6.6"/>
		<rect x="200.1" y="77.6" class="st12" width="8" height="6.6"/>
		<rect x="200.1" y="71" class="st11" width="8" height="6.6"/>
		<rect x="200.1" y="64.4" class="st10" width="8" height="6.6"/>
		<rect x="208.1" y="84.2" class="st11" width="8" height="6.6"/>
		<rect x="208.1" y="77.6" class="st10" width="8" height="6.6"/>
		<rect x="208.1" y="64.4" class="st12" width="8" height="6.6"/>
	</g>
</g>
</svg>
