<?xml version="1.0" encoding="utf-8"?>
<!-- Generator: Adobe Illustrator 19.1.0, SVG Export Plug-In . SVG Version: 6.00 Build 0)  -->
<svg version="1.1" id="Layer_1" xmlns="http://www.w3.org/2000/svg" xmlns:xlink="http://www.w3.org/1999/xlink" x="0px" y="0px"
	 viewBox="-467 269 24 24" style="enable-background:new -467 269 24 24;" xml:space="preserve">
<style type="text/css">
	.st0{fill:#FFF;}
</style>
<g>
	<g>
		<path class="st0" d="M-453.1,284.1l3.7-5.1l-5.3,3.3c-0.6-0.1-1.2,0-1.7,0.5c-0.8,0.8-0.9,2-0.1,2.8c0.8,0.8,2,0.9,2.8,0.1
			C-453.2,285.4-453,284.7-453.1,284.1z"/>
		<path class="st0" d="M-460.8,287.8c-1.4-1.4-2.2-3.4-2.2-5.5c0-4.4,3.6-8,8-8c4.4,0,8,3.6,8,8c0,2.1-0.9,4.1-2.2,5.5l1.8,1
			c1.5-1.8,2.5-4.1,2.5-6.6c0-5.5-4.5-10-10-10s-10,4.5-10,10c0,2.5,0.9,4.8,2.5,6.6L-460.8,287.8z"/>
	</g>
</g>
</svg>
