<?xml version="1.0" encoding="utf-8"?>
<!-- Generator: Adobe Illustrator 19.1.0, SVG Export Plug-In . SVG Version: 6.00 Build 0)  -->
<svg version="1.1" id="Layer_1" xmlns="http://www.w3.org/2000/svg" xmlns:xlink="http://www.w3.org/1999/xlink" x="0px" y="0px"
	 viewBox="-467 269 24 24" style="enable-background:new -467 269 24 24;" xml:space="preserve">
<style type="text/css">
	.st0{fill:#FFF;}
</style>
<path class="st0" d="M-456,287h2v-2h-2V287z M-455,271c-5.5,0-10,4.5-10,10s4.5,10,10,10s10-4.5,10-10S-449.5,271-455,271z
	 M-455,289c-4.4,0-8-3.6-8-8s3.6-8,8-8s8,3.6,8,8S-450.6,289-455,289z M-455,275c-2.2,0-4,1.8-4,4h2c0-1.1,0.9-2,2-2s2,0.9,2,2
	c0,2-3,1.8-3,5h2c0-2.3,3-2.5,3-5C-451,276.8-452.8,275-455,275z"/>
</svg>
