<?xml version="1.0" encoding="utf-8"?>
<!-- Generator: Adobe Illustrator 19.1.0, SVG Export Plug-In . SVG Version: 6.00 Build 0)  -->
<svg version="1.1" id="Layer_1" xmlns="http://www.w3.org/2000/svg" xmlns:xlink="http://www.w3.org/1999/xlink" x="0px" y="0px"
	 viewBox="0 0 24 24" style="enable-background:new 0 0 24 24;" xml:space="preserve">
<style type="text/css">
	.st0{fill:#FFFFFF;}
</style>
<path class="st0" d="M12,2c5.51392,0,10,4.48608,10,10s-4.48608,10-10,10S2,17.51392,2,12S6.48608,2,12,2 M12,0
	C5.37256,0,0,5.37256,0,12s5.37256,12,12,12s12-5.37256,12-12S18.62744,0,12,0L12,0z"/>
<path class="st0" d="M7.07164,15.42229c1.89006,2.72184,5.62892,3.39598,8.35056,1.50605
	c2.72204-1.8902,3.39612-5.62872,1.50605-8.35056l0,0c-0.00097-0.0014-0.00181-0.00261-0.00278-0.00401l-0.00042-0.0006
	c-0.00084-0.0012-0.00139-0.00201-0.00223-0.00321l-0.00042-0.0006c-0.00097-0.0014-0.00153-0.00221-0.00237-0.00341
	l-0.00056-0.0008c-0.00084-0.0012-0.00139-0.00201-0.00209-0.00301l-0.00056-0.0008
	c-0.00084-0.0012-0.00167-0.00241-0.00223-0.00321l-0.00056-0.0008c-0.00084-0.0012-0.00153-0.00221-0.00209-0.00301l-0.0007-0.001
	c-0.00084-0.0012-0.00153-0.00221-0.00209-0.00301l-0.00097-0.0014c-0.00056-0.0008-0.00111-0.00161-0.00111-0.00161
	s-0.00125-0.0018-0.00167-0.00241c-0.00056-0.0008-0.00111-0.0016-0.00167-0.00241l-0.0007-0.001
	c-0.00084-0.0012-0.00139-0.002-0.00195-0.00281l-0.00111-0.00161c0,0-0.00111-0.0016-0.00153-0.00221l-0.00125-0.0018
	c-0.00082-0.00032-0.00124-0.00093-0.00179-0.00173c-0.00042-0.0006-0.00097-0.0014-0.00097-0.0014s-0.00125-0.0018-0.00167-0.00241
	s-0.00097-0.0014-0.00153-0.00221c-0.00042-0.0006-0.0007-0.001-0.0007-0.001c-0.00097-0.0014-0.00153-0.00221-0.00209-0.00301
	l-0.0007-0.001c-0.0007-0.001-0.00139-0.00201-0.00223-0.00321l-0.00014-0.0002c-0.01447-0.01997-0.02839-0.04003-0.04326-0.05972
	l-1.61439,1.1799l0.05776,0.08146c1.258,1.81162,0.80758,4.30904-1.00403,5.56704s-4.30904,0.80758-5.56704-1.00403
	L7.07164,15.42229L7.07164,15.42229L7.07164,15.42229z"/>
</svg>
