<?xml version="1.0" encoding="utf-8"?>
<!-- Generator: Adobe Illustrator 19.1.0, SVG Export Plug-In . SVG Version: 6.00 Build 0)  -->
<svg version="1.1" id="Layer_1" xmlns="http://www.w3.org/2000/svg" xmlns:xlink="http://www.w3.org/1999/xlink" x="0px" y="0px"
	 viewBox="0 0 420 120" style="enable-background:new 0 0 420 120;" xml:space="preserve">
<style type="text/css">
	.st0{opacity:0.15;}
	.st1{fill:#EDEDED;}
	.st2{fill:#8FB8E2;}
	.st3{fill:#96B548;}
	.st4{clip-path:url(#SVGID_2_);}
	.st5{fill:#5593D7;}
	.st6{fill:#F7C1A1;}
	.st7{fill:#F69626;}
	.st8{fill:#ED5E51;}
	.st9{fill:#513432;}
	.st10{fill:#F7944B;}
	.st11{opacity:3.000000e-002;}
	.st12{clip-path:url(#SVGID_4_);}
	.st13{clip-path:url(#SVGID_6_);}
	.st14{clip-path:url(#SVGID_8_);}
	.st15{clip-path:url(#SVGID_10_);}
	.st16{clip-path:url(#SVGID_12_);}
	.st17{clip-path:url(#SVGID_14_);}
	.st18{clip-path:url(#SVGID_16_);}
	.st19{clip-path:url(#SVGID_18_);}
	.st20{clip-path:url(#SVGID_20_);}
	.st21{opacity:0.25;clip-path:url(#SVGID_20_);}
	.st22{opacity:0.75;clip-path:url(#SVGID_20_);}
	.st23{opacity:0.5;clip-path:url(#SVGID_20_);}
	.st24{opacity:0;clip-path:url(#SVGID_20_);}
	.st25{opacity:0.5;clip-path:url(#SVGID_22_);}
	.st26{clip-path:url(#SVGID_22_);}
	.st27{opacity:0.25;clip-path:url(#SVGID_22_);}
	.st28{opacity:0.75;clip-path:url(#SVGID_22_);}
	.st29{clip-path:url(#SVGID_24_);}
	.st30{opacity:0.25;clip-path:url(#SVGID_24_);}
	.st31{opacity:0.75;clip-path:url(#SVGID_24_);}
	.st32{opacity:0.5;clip-path:url(#SVGID_24_);}
	.st33{opacity:0;clip-path:url(#SVGID_24_);}
	.st34{clip-path:url(#SVGID_26_);}
	.st35{opacity:0.25;clip-path:url(#SVGID_26_);}
	.st36{opacity:0.75;clip-path:url(#SVGID_26_);}
	.st37{opacity:0.5;clip-path:url(#SVGID_26_);}
	.st38{opacity:0;clip-path:url(#SVGID_26_);}
	.st39{clip-path:url(#SVGID_28_);fill:#FFFFFF;}
	.st40{opacity:0.25;clip-path:url(#SVGID_28_);fill:#FFFFFF;}
	.st41{opacity:0.75;clip-path:url(#SVGID_28_);fill:#FFFFFF;}
	.st42{opacity:0.5;clip-path:url(#SVGID_28_);fill:#FFFFFF;}
	.st43{opacity:0;clip-path:url(#SVGID_28_);fill:#FFFFFF;}
	.st44{opacity:0.5;clip-path:url(#SVGID_30_);fill:#FFFFFF;}
	.st45{clip-path:url(#SVGID_30_);fill:#FFFFFF;}
	.st46{opacity:0.25;clip-path:url(#SVGID_30_);fill:#FFFFFF;}
	.st47{opacity:0.75;clip-path:url(#SVGID_30_);fill:#FFFFFF;}
	.st48{clip-path:url(#SVGID_32_);fill:#FFFFFF;}
	.st49{opacity:0.25;clip-path:url(#SVGID_32_);fill:#FFFFFF;}
	.st50{opacity:0.75;clip-path:url(#SVGID_32_);fill:#FFFFFF;}
	.st51{opacity:0.5;clip-path:url(#SVGID_32_);fill:#FFFFFF;}
	.st52{opacity:0;clip-path:url(#SVGID_32_);fill:#FFFFFF;}
	.st53{clip-path:url(#SVGID_34_);fill:#FFFFFF;}
	.st54{opacity:0.25;clip-path:url(#SVGID_34_);fill:#FFFFFF;}
	.st55{opacity:0.75;clip-path:url(#SVGID_34_);fill:#FFFFFF;}
	.st56{opacity:0.5;clip-path:url(#SVGID_34_);fill:#FFFFFF;}
	.st57{opacity:0;clip-path:url(#SVGID_34_);fill:#FFFFFF;}
	.st58{fill:#5592D7;}
	.st59{fill:none;stroke:#FFFFFF;stroke-width:2.2108;stroke-miterlimit:10;}
	.st60{fill:#FFFFFF;}
</style>
<g>
	<g>
		<polygon class="st0" points="405.1,86.5 325.5,86.5 325.5,45 337,33.5 405.1,33.5 		"/>
		<polygon class="st1" points="403.3,84.8 323.7,84.8 323.7,39.2 331.2,31.7 403.3,31.7 		"/>
		<rect x="329" y="37" class="st2" width="69" height="42.4"/>
		<rect x="329" y="60.9" class="st3" width="69" height="18.6"/>
		<g>
			<defs>
				<rect id="SVGID_1_" x="329" y="37" width="69" height="42.4"/>
			</defs>
			<clipPath id="SVGID_2_">
				<use xlink:href="#SVGID_1_"  style="overflow:visible;"/>
			</clipPath>
			<g class="st4">
				<g>
					<path class="st5" d="M370.4,79.7c0-3.6-2.4-6.5-5.3-6.5c-2.9,0-5.3,2.9-5.3,6.5l0,0c0,1.8,2.4,3.2,5.3,3.2
						C368,82.9,370.4,81.4,370.4,79.7L370.4,79.7z"/>
					<g>
						<path class="st5" d="M359.7,79.6c0-3.5,2.4-6.4,5.3-6.4c2.9,0,5.3,2.9,5.3,6.4H359.7z"/>
					</g>
					<g>
						<path class="st6" d="M365.1,77.5c1.6,0,3.1-0.9,3.8-2.3c-1-1.2-2.3-1.9-3.8-1.9c-1.5,0-2.8,0.7-3.8,1.9
							C362,76.5,363.4,77.5,365.1,77.5z"/>
						<rect x="364" y="69.8" class="st6" width="2.1" height="4.1"/>
					</g>
					<g>
						<path class="st7" d="M367.9,57.6L367.9,57.6c0.7-0.8,1.8-1.3,2.9-1.3c2.2,0,3.9,1.7,3.9,3.9c0,0.4-0.1,0.9-0.2,1.2
							c-0.4-1-1.2-1.7-2.2-2.1c0,0,2.1,3,0.7,6.8c-1.5,3.8,0.8,5.4,0.8,5.4s-3.4,2.9-6.7-0.2h-1.9v-13L367.9,57.6z"/>
						<path class="st7" d="M362.3,57.6L362.3,57.6c-0.7-0.8-1.8-1.3-2.9-1.3c-2.2,0-3.9,1.7-3.9,3.9c0,0.4,0.1,0.9,0.2,1.2
							c0.4-1,1.2-1.7,2.2-2.1c0,0-2.1,3-0.7,6.8c1.5,3.8-0.8,5.4-0.8,5.4s3.4,2.9,6.7-0.2h1.9v-13L362.3,57.6z"/>
					</g>
					<path class="st6" d="M365.1,58.3c-2.9,0-5.3,2.5-5.3,5.6v2.8c0,3.1,2.4,5.6,5.3,5.6c2.9,0,5.3-2.5,5.3-5.6v-2.8
						C370.4,60.7,368,58.3,365.1,58.3z"/>
					<g>
						<path class="st8" d="M362.3,57.6L362.3,57.6L362.3,57.6c-0.2-0.2-0.4-0.4-0.7-0.6c-0.4,0.1-1,0.5-1.6,1
							c-0.9,0.9-1.3,1.8-1,2.2c0.3,0.3,1.3-0.1,2.2-1C361.8,58.7,362.2,58.1,362.3,57.6z"/>
						<path class="st8" d="M367.9,57.6L367.9,57.6L367.9,57.6c0.2-0.2,0.4-0.4,0.7-0.6c0.4,0.1,1,0.5,1.6,1c0.9,0.9,1.3,1.8,1,2.2
							c-0.3,0.3-1.3-0.1-2.2-1C368.3,58.7,368,58.1,367.9,57.6z"/>
						<path class="st7" d="M371.4,61.7c-0.9-2.7-3.4-4.7-6.3-4.7c-2.9,0-5.4,2-6.3,4.7c-0.2,0.6-0.2,1.4-0.1,2.1h1
							c0,0,4.4-0.5,5.3-2.8h0c0.9,2.3,5.3,2.8,5.3,2.8h1C371.6,63.1,371.6,62.3,371.4,61.7z"/>
					</g>
				</g>
				<g>
					<path class="st9" d="M348.8,70.7L348.8,70.7c-5.8,0-10.5-4.7-10.5-10.5v-6.8c0-5.8,4.7-10.5,10.5-10.5h0
						c5.8,0,10.5,4.7,10.5,10.5v6.8C359.3,66,354.6,70.7,348.8,70.7z"/>
					<g>
						<path class="st5" d="M356.9,77.9c0-5.5-3.7-9.9-8.3-9.9c-4.6,0-8.3,4.5-8.3,9.9l0,0c0,2.7,3.7,5,8.3,5
							C353.2,82.9,356.9,80.7,356.9,77.9L356.9,77.9z"/>
						<path class="st10" d="M351.9,68.8c-1-0.5-2.1-0.8-3.2-0.8c-1.1,0-2.2,0.3-3.2,0.8c-0.5,1.4,0,5.8,3.2,5.8l0,0
							C351.9,74.6,352.4,70.1,351.9,68.8z"/>
					</g>
					<g>
						<path class="st6" d="M351.9,68.8c-1-0.5-2.1-0.8-3.2-0.8s-2.2,0.3-3.2,0.8c0.4,1.5,1.7,2.5,3.2,2.5S351.5,70.2,351.9,68.8z"/>
						<rect x="347" y="62.7" class="st6" width="3.3" height="6.4"/>
					</g>
					<path class="st6" d="M348.7,44.8c-4.6,0-8.3,3.9-8.3,8.6v4.3c0,4.8,3.7,8.6,8.3,8.6s8.3-3.9,8.3-8.6v-4.3
						C356.9,48.6,353.2,44.8,348.7,44.8z"/>
					<path class="st9" d="M348.7,42.8c-5.7,0-10.3,4.8-10.3,10.6v4.3c0,1.6,0.5,3.1,1,4.6c0.2,0.6,0.4,1.4,0.2,2.3h2.4
						c-0.7-1.8-0.4-7.9,3.4-9.7c3.8-1.8,6.4-6,6.4-6c2.4,1.1,5.1,4.6,5.1,4.6h2C358.9,47.5,354.3,42.8,348.7,42.8z"/>
				</g>
			</g>
		</g>
		<g>
			<g>
				<polygon class="st11" points="331.2,31.7 331.2,39.2 323.7,39.2 323.7,39.7 331.7,39.7 331.7,31.7 				"/>
			</g>
			<g>
				<polygon class="st11" points="331.2,31.7 331.2,39.2 323.7,39.2 323.7,40.1 332.1,40.1 332.1,31.7 				"/>
			</g>
			<g>
				<polygon class="st11" points="331.2,31.7 331.2,39.2 323.7,39.2 323.7,40.5 332.5,40.5 332.5,31.7 				"/>
			</g>
			<polygon class="st11" points="331.5,31.7 331.2,31.7 331.2,39.2 323.7,39.2 323.7,39.5 323.7,41 333,41 333,31.7 			"/>
			<polygon class="st11" points="331.3,31.7 331.2,31.7 331.2,39.2 323.7,39.2 323.7,39.2 323.7,41.4 333.4,41.4 333.4,31.7 			"/>
			<polygon class="st1" points="331.2,31.7 323.7,39.2 331.2,39.2 			"/>
		</g>
	</g>
	<g>
		<rect x="223.7" y="67.6" class="st0" width="39.8" height="26.5"/>
		<rect x="170.6" y="67.6" class="st0" width="39.8" height="26.5"/>
		<g>
			<defs>
				<rect id="SVGID_3_" x="168.8" y="66" width="39.8" height="26.5"/>
			</defs>
			<clipPath id="SVGID_4_">
				<use xlink:href="#SVGID_3_"  style="overflow:visible;"/>
			</clipPath>
			<g class="st12">
				<rect x="168.8" y="39.5" class="st1" width="79.6" height="53.1"/>
				<rect x="174.2" y="44.8" class="st2" width="69" height="42.4"/>
				<rect x="174.2" y="68.7" class="st3" width="69" height="18.6"/>
				<g>
					<defs>
						<rect id="SVGID_5_" x="174.2" y="44.8" width="69" height="42.4"/>
					</defs>
					<clipPath id="SVGID_6_">
						<use xlink:href="#SVGID_5_"  style="overflow:visible;"/>
					</clipPath>
					<g class="st13">
						<g>
							<path class="st5" d="M215.6,87.4c0-3.6-2.4-6.5-5.3-6.5c-2.9,0-5.3,2.9-5.3,6.5l0,0c0,1.8,2.4,3.2,5.3,3.2
								C213.2,90.7,215.6,89.2,215.6,87.4L215.6,87.4z"/>
							<g>
								<path class="st5" d="M204.9,87.4c0-3.5,2.4-6.4,5.3-6.4c2.9,0,5.3,2.9,5.3,6.4H204.9z"/>
							</g>
							<g>
								<path class="st6" d="M210.2,85.3c1.6,0,3.1-0.9,3.8-2.3c-1-1.2-2.3-1.9-3.8-1.9c-1.5,0-2.8,0.7-3.8,1.9
									C207.1,84.3,208.6,85.3,210.2,85.3z"/>
								<rect x="209.2" y="77.6" class="st6" width="2.1" height="4.1"/>
							</g>
							<g>
								<path class="st7" d="M213,65.4L213,65.4c0.7-0.8,1.8-1.3,2.9-1.3c2.2,0,3.9,1.7,3.9,3.9c0,0.4-0.1,0.9-0.2,1.2
									c-0.4-1-1.2-1.7-2.2-2.1c0,0,2.1,3,0.7,6.8c-1.5,3.8,0.8,5.4,0.8,5.4s-3.4,2.9-6.7-0.2h-1.9V66L213,65.4z"/>
								<path class="st7" d="M207.4,65.4L207.4,65.4c-0.7-0.8-1.8-1.3-2.9-1.3c-2.2,0-3.9,1.7-3.9,3.9c0,0.4,0.1,0.9,0.2,1.2
									c0.4-1,1.2-1.7,2.2-2.1c0,0-2.1,3-0.7,6.8c1.5,3.8-0.8,5.4-0.8,5.4s3.4,2.9,6.7-0.2h1.9V66L207.4,65.4z"/>
							</g>
							<path class="st6" d="M210.2,66c-2.9,0-5.3,2.5-5.3,5.6v2.8c0,3.1,2.4,5.6,5.3,5.6c2.9,0,5.3-2.5,5.3-5.6v-2.8
								C215.6,68.5,213.2,66,210.2,66z"/>
							<g>
								<path class="st8" d="M207.4,65.4L207.4,65.4L207.4,65.4c-0.2-0.2-0.4-0.4-0.7-0.6c-0.4,0.1-1,0.5-1.6,1
									c-0.9,0.9-1.3,1.8-1,2.2c0.3,0.3,1.3-0.1,2.2-1C207,66.5,207.3,65.8,207.4,65.4z"/>
								<path class="st8" d="M213,65.4L213,65.4L213,65.4c0.2-0.2,0.4-0.4,0.7-0.6c0.4,0.1,1,0.5,1.6,1c0.9,0.9,1.3,1.8,1,2.2
									c-0.3,0.3-1.3-0.1-2.2-1C213.5,66.5,213.1,65.8,213,65.4z"/>
								<path class="st7" d="M216.5,69.5c-0.9-2.7-3.4-4.7-6.3-4.7c-2.9,0-5.4,2-6.3,4.7c-0.2,0.6-0.2,1.4-0.1,2.1h1
									c0,0,4.4-0.5,5.3-2.8h0c0.9,2.3,5.3,2.8,5.3,2.8h1C216.7,70.9,216.7,70.1,216.5,69.5z"/>
							</g>
						</g>
						<g>
							<path class="st9" d="M194,78.5L194,78.5c-5.8,0-10.5-4.7-10.5-10.5v-6.8c0-5.8,4.7-10.5,10.5-10.5h0
								c5.8,0,10.5,4.7,10.5,10.5v6.8C204.5,73.7,199.8,78.5,194,78.5z"/>
							<g>
								<path class="st5" d="M202.1,85.7c0-5.5-3.7-9.9-8.3-9.9c-4.6,0-8.3,4.5-8.3,9.9l0,0c0,2.7,3.7,5,8.3,5
									C198.4,90.7,202.1,88.4,202.1,85.7L202.1,85.7z"/>
								<path class="st10" d="M197,76.5c-1-0.5-2.1-0.8-3.2-0.8s-2.2,0.3-3.2,0.8c-0.5,1.4,0,5.8,3.2,5.8l0,0
									C197,82.4,197.5,77.9,197,76.5z"/>
							</g>
							<g>
								<path class="st6" d="M197,76.5c-1-0.5-2.1-0.8-3.2-0.8c-1.1,0-2.2,0.3-3.2,0.8c0.4,1.5,1.7,2.5,3.2,2.5
									C195.4,79.1,196.7,78,197,76.5z"/>
								<rect x="192.1" y="70.5" class="st6" width="3.3" height="6.4"/>
							</g>
							<path class="st6" d="M193.8,52.6c-4.6,0-8.3,3.9-8.3,8.6v4.3c0,4.8,3.7,8.6,8.3,8.6c4.6,0,8.3-3.9,8.3-8.6v-4.3
								C202.1,56.4,198.4,52.6,193.8,52.6z"/>
							<path class="st9" d="M193.8,50.6c-5.7,0-10.3,4.8-10.3,10.6v4.3c0,1.6,0.5,3.1,1,4.6c0.2,0.6,0.4,1.4,0.2,2.3h2.4
								c-0.7-1.8-0.4-7.9,3.4-9.7c3.8-1.8,6.4-6,6.4-6c2.4,1.1,5.1,4.6,5.1,4.6h2C204.1,55.3,199.5,50.6,193.8,50.6z"/>
						</g>
					</g>
				</g>
			</g>
		</g>
		<rect x="223.7" y="28" class="st0" width="39.8" height="26.5"/>
		<g>
			<defs>
				<rect id="SVGID_7_" x="221.9" y="26.2" width="39.8" height="26.5"/>
			</defs>
			<clipPath id="SVGID_8_">
				<use xlink:href="#SVGID_7_"  style="overflow:visible;"/>
			</clipPath>
			<g class="st14">
				<rect x="182.1" y="26.2" class="st1" width="79.6" height="53.1"/>
				<rect x="187.4" y="31.5" class="st2" width="69" height="42.4"/>
				<rect x="187.4" y="55.4" class="st3" width="69" height="18.6"/>
				<g>
					<defs>
						<rect id="SVGID_9_" x="187.4" y="31.5" width="69" height="42.4"/>
					</defs>
					<clipPath id="SVGID_10_">
						<use xlink:href="#SVGID_9_"  style="overflow:visible;"/>
					</clipPath>
					<g class="st15">
						<g>
							<path class="st5" d="M228.8,74.2c0-3.6-2.4-6.5-5.3-6.5c-2.9,0-5.3,2.9-5.3,6.5l0,0c0,1.8,2.4,3.2,5.3,3.2
								C226.4,77.4,228.8,76,228.8,74.2L228.8,74.2z"/>
							<g>
								<path class="st5" d="M218.2,74.1c0-3.5,2.4-6.4,5.3-6.4c2.9,0,5.3,2.9,5.3,6.4H218.2z"/>
							</g>
							<g>
								<path class="st6" d="M223.5,72c1.6,0,3.1-0.9,3.8-2.3c-1-1.2-2.3-1.9-3.8-1.9c-1.5,0-2.8,0.7-3.8,1.9
									C220.4,71.1,221.8,72,223.5,72z"/>
								<rect x="222.4" y="64.3" class="st6" width="2.1" height="4.1"/>
							</g>
							<g>
								<path class="st7" d="M226.3,52.1L226.3,52.1c0.7-0.8,1.8-1.3,2.9-1.3c2.2,0,3.9,1.7,3.9,3.9c0,0.4-0.1,0.9-0.2,1.2
									c-0.4-1-1.2-1.7-2.2-2.1c0,0,2.1,3,0.7,6.8c-1.5,3.8,0.8,5.4,0.8,5.4s-3.4,2.9-6.7-0.2h-1.9v-13L226.3,52.1z"/>
								<path class="st7" d="M220.7,52.1L220.7,52.1c-0.7-0.8-1.8-1.3-2.9-1.3c-2.2,0-3.9,1.7-3.9,3.9c0,0.4,0.1,0.9,0.2,1.2
									c0.4-1,1.2-1.7,2.2-2.1c0,0-2.1,3-0.7,6.8c1.5,3.8-0.8,5.4-0.8,5.4s3.4,2.9,6.7-0.2h1.9v-13L220.7,52.1z"/>
							</g>
							<path class="st6" d="M223.5,52.8c-2.9,0-5.3,2.5-5.3,5.6v2.8c0,3.1,2.4,5.6,5.3,5.6c2.9,0,5.3-2.5,5.3-5.6v-2.8
								C228.8,55.3,226.4,52.8,223.5,52.8z"/>
							<g>
								<path class="st8" d="M220.7,52.1L220.7,52.1L220.7,52.1c-0.2-0.2-0.4-0.4-0.7-0.6c-0.4,0.1-1,0.5-1.6,1
									c-0.9,0.9-1.3,1.8-1,2.2c0.3,0.3,1.3-0.1,2.2-1C220.2,53.2,220.6,52.6,220.7,52.1z"/>
								<path class="st8" d="M226.3,52.1L226.3,52.1L226.3,52.1c0.2-0.2,0.4-0.4,0.7-0.6c0.4,0.1,1,0.5,1.6,1c0.9,0.9,1.3,1.8,1,2.2
									c-0.3,0.3-1.3-0.1-2.2-1C226.8,53.2,226.4,52.6,226.3,52.1z"/>
								<path class="st7" d="M229.8,56.2c-0.9-2.7-3.4-4.7-6.3-4.7c-2.9,0-5.4,2-6.3,4.7c-0.2,0.6-0.2,1.4-0.1,2.1h1
									c0,0,4.4-0.5,5.3-2.8h0c0.9,2.3,5.3,2.8,5.3,2.8h1C230,57.6,230,56.9,229.8,56.2z"/>
							</g>
						</g>
						<g>
							<path class="st9" d="M207.2,65.2L207.2,65.2c-5.8,0-10.5-4.7-10.5-10.5v-6.8c0-5.8,4.7-10.5,10.5-10.5h0
								c5.8,0,10.5,4.7,10.5,10.5v6.8C217.7,60.5,213,65.2,207.2,65.2z"/>
							<g>
								<path class="st5" d="M215.4,72.4c0-5.5-3.7-9.9-8.3-9.9c-4.6,0-8.3,4.5-8.3,9.9l0,0c0,2.7,3.7,5,8.3,5
									C211.6,77.4,215.4,75.2,215.4,72.4L215.4,72.4z"/>
								<path class="st10" d="M210.3,63.3c-1-0.5-2.1-0.8-3.2-0.8s-2.2,0.3-3.2,0.8c-0.5,1.4,0,5.8,3.2,5.8l0,0
									C210.3,69.1,210.8,64.6,210.3,63.3z"/>
							</g>
							<g>
								<path class="st6" d="M210.3,63.3c-1-0.5-2.1-0.8-3.2-0.8s-2.2,0.3-3.2,0.8c0.4,1.5,1.7,2.5,3.2,2.5S209.9,64.7,210.3,63.3z"
									/>
								<rect x="205.4" y="57.2" class="st6" width="3.3" height="6.4"/>
							</g>
							<path class="st6" d="M207.1,39.3c-4.6,0-8.3,3.9-8.3,8.6v4.3c0,4.8,3.7,8.6,8.3,8.6c4.6,0,8.3-3.9,8.3-8.6v-4.3
								C215.4,43.2,211.6,39.3,207.1,39.3z"/>
							<path class="st9" d="M207.1,37.3c-5.7,0-10.3,4.8-10.3,10.6v4.3c0,1.6,0.5,3.1,1,4.6c0.2,0.6,0.4,1.4,0.2,2.3h2.4
								c-0.7-1.8-0.4-7.9,3.4-9.7s6.4-6,6.4-6c2.4,1.1,5.1,4.6,5.1,4.6h2C217.3,42.1,212.7,37.3,207.1,37.3z"/>
						</g>
					</g>
				</g>
			</g>
		</g>
		<g>
			<defs>
				<rect id="SVGID_11_" x="221.9" y="66" width="39.8" height="26.5"/>
			</defs>
			<clipPath id="SVGID_12_">
				<use xlink:href="#SVGID_11_"  style="overflow:visible;"/>
			</clipPath>
			<g class="st16">
				<rect x="182.1" y="39.5" class="st1" width="79.6" height="53.1"/>
				<rect x="187.4" y="44.8" class="st2" width="69" height="42.4"/>
				<rect x="187.4" y="68.7" class="st3" width="69" height="18.6"/>
				<g>
					<defs>
						<rect id="SVGID_13_" x="187.4" y="44.8" width="69" height="42.4"/>
					</defs>
					<clipPath id="SVGID_14_">
						<use xlink:href="#SVGID_13_"  style="overflow:visible;"/>
					</clipPath>
					<g class="st17">
						<g>
							<path class="st5" d="M228.8,87.4c0-3.6-2.4-6.5-5.3-6.5c-2.9,0-5.3,2.9-5.3,6.5l0,0c0,1.8,2.4,3.2,5.3,3.2
								C226.4,90.7,228.8,89.2,228.8,87.4L228.8,87.4z"/>
							<g>
								<path class="st5" d="M218.2,87.4c0-3.5,2.4-6.4,5.3-6.4c2.9,0,5.3,2.9,5.3,6.4H218.2z"/>
							</g>
							<g>
								<path class="st6" d="M223.5,85.3c1.6,0,3.1-0.9,3.8-2.3c-1-1.2-2.3-1.9-3.8-1.9c-1.5,0-2.8,0.7-3.8,1.9
									C220.4,84.3,221.8,85.3,223.5,85.3z"/>
								<rect x="222.4" y="77.6" class="st6" width="2.1" height="4.1"/>
							</g>
							<g>
								<path class="st7" d="M226.3,65.4L226.3,65.4c0.7-0.8,1.8-1.3,2.9-1.3c2.2,0,3.9,1.7,3.9,3.9c0,0.4-0.1,0.9-0.2,1.2
									c-0.4-1-1.2-1.7-2.2-2.1c0,0,2.1,3,0.7,6.8c-1.5,3.8,0.8,5.4,0.8,5.4s-3.4,2.9-6.7-0.2h-1.9V66L226.3,65.4z"/>
								<path class="st7" d="M220.7,65.4L220.7,65.4c-0.7-0.8-1.8-1.3-2.9-1.3c-2.2,0-3.9,1.7-3.9,3.9c0,0.4,0.1,0.9,0.2,1.2
									c0.4-1,1.2-1.7,2.2-2.1c0,0-2.1,3-0.7,6.8c1.5,3.8-0.8,5.4-0.8,5.4s3.4,2.9,6.7-0.2h1.9V66L220.7,65.4z"/>
							</g>
							<path class="st6" d="M223.5,66c-2.9,0-5.3,2.5-5.3,5.6v2.8c0,3.1,2.4,5.6,5.3,5.6c2.9,0,5.3-2.5,5.3-5.6v-2.8
								C228.8,68.5,226.4,66,223.5,66z"/>
							<g>
								<path class="st8" d="M220.7,65.4L220.7,65.4L220.7,65.4c-0.2-0.2-0.4-0.4-0.7-0.6c-0.4,0.1-1,0.5-1.6,1
									c-0.9,0.9-1.3,1.8-1,2.2c0.3,0.3,1.3-0.1,2.2-1C220.2,66.5,220.6,65.8,220.7,65.4z"/>
								<path class="st8" d="M226.3,65.4L226.3,65.4L226.3,65.4c0.2-0.2,0.4-0.4,0.7-0.6c0.4,0.1,1,0.5,1.6,1c0.9,0.9,1.3,1.8,1,2.2
									c-0.3,0.3-1.3-0.1-2.2-1C226.8,66.5,226.4,65.8,226.3,65.4z"/>
								<path class="st7" d="M229.8,69.5c-0.9-2.7-3.4-4.7-6.3-4.7c-2.9,0-5.4,2-6.3,4.7c-0.2,0.6-0.2,1.4-0.1,2.1h1
									c0,0,4.4-0.5,5.3-2.8h0c0.9,2.3,5.3,2.8,5.3,2.8h1C230,70.9,230,70.1,229.8,69.5z"/>
							</g>
						</g>
						<g>
							<path class="st9" d="M207.2,78.5L207.2,78.5c-5.8,0-10.5-4.7-10.5-10.5v-6.8c0-5.8,4.7-10.5,10.5-10.5h0
								c5.8,0,10.5,4.7,10.5,10.5v6.8C217.7,73.7,213,78.5,207.2,78.5z"/>
							<g>
								<path class="st5" d="M215.4,85.7c0-5.5-3.7-9.9-8.3-9.9c-4.6,0-8.3,4.5-8.3,9.9l0,0c0,2.7,3.7,5,8.3,5
									C211.6,90.7,215.4,88.4,215.4,85.7L215.4,85.7z"/>
								<path class="st10" d="M210.3,76.5c-1-0.5-2.1-0.8-3.2-0.8s-2.2,0.3-3.2,0.8c-0.5,1.4,0,5.8,3.2,5.8l0,0
									C210.3,82.4,210.8,77.9,210.3,76.5z"/>
							</g>
							<g>
								<path class="st6" d="M210.3,76.5c-1-0.5-2.1-0.8-3.2-0.8s-2.2,0.3-3.2,0.8c0.4,1.5,1.7,2.5,3.2,2.5S209.9,78,210.3,76.5z"/>
								<rect x="205.4" y="70.5" class="st6" width="3.3" height="6.4"/>
							</g>
							<path class="st6" d="M207.1,52.6c-4.6,0-8.3,3.9-8.3,8.6v4.3c0,4.8,3.7,8.6,8.3,8.6c4.6,0,8.3-3.9,8.3-8.6v-4.3
								C215.4,56.4,211.6,52.6,207.1,52.6z"/>
							<path class="st9" d="M207.1,50.6c-5.7,0-10.3,4.8-10.3,10.6v4.3c0,1.6,0.5,3.1,1,4.6c0.2,0.6,0.4,1.4,0.2,2.3h2.4
								c-0.7-1.8-0.4-7.9,3.4-9.7c3.8-1.8,6.4-6,6.4-6c2.4,1.1,5.1,4.6,5.1,4.6h2C217.3,55.3,212.7,50.6,207.1,50.6z"/>
						</g>
					</g>
				</g>
			</g>
		</g>
		<rect x="170.6" y="28" class="st0" width="39.8" height="26.5"/>
		<g>
			<defs>
				<rect id="SVGID_15_" x="168.8" y="26.2" width="39.8" height="26.5"/>
			</defs>
			<clipPath id="SVGID_16_">
				<use xlink:href="#SVGID_15_"  style="overflow:visible;"/>
			</clipPath>
			<g class="st18">
				<rect x="168.8" y="26.2" class="st1" width="79.6" height="53.1"/>
				<rect x="174.2" y="31.5" class="st2" width="69" height="42.4"/>
				<rect x="174.2" y="55.4" class="st3" width="69" height="18.6"/>
				<g>
					<defs>
						<rect id="SVGID_17_" x="174.2" y="31.5" width="69" height="42.4"/>
					</defs>
					<clipPath id="SVGID_18_">
						<use xlink:href="#SVGID_17_"  style="overflow:visible;"/>
					</clipPath>
					<g class="st19">
						<g>
							<path class="st5" d="M215.6,74.2c0-3.6-2.4-6.5-5.3-6.5c-2.9,0-5.3,2.9-5.3,6.5l0,0c0,1.8,2.4,3.2,5.3,3.2
								C213.2,77.4,215.6,76,215.6,74.2L215.6,74.2z"/>
							<g>
								<path class="st5" d="M204.9,74.1c0-3.5,2.4-6.4,5.3-6.4c2.9,0,5.3,2.9,5.3,6.4H204.9z"/>
							</g>
							<g>
								<path class="st6" d="M210.2,72c1.6,0,3.1-0.9,3.8-2.3c-1-1.2-2.3-1.9-3.8-1.9c-1.5,0-2.8,0.7-3.8,1.9
									C207.1,71.1,208.6,72,210.2,72z"/>
								<rect x="209.2" y="64.3" class="st6" width="2.1" height="4.1"/>
							</g>
							<g>
								<path class="st7" d="M213,52.1L213,52.1c0.7-0.8,1.8-1.3,2.9-1.3c2.2,0,3.9,1.7,3.9,3.9c0,0.4-0.1,0.9-0.2,1.2
									c-0.4-1-1.2-1.7-2.2-2.1c0,0,2.1,3,0.7,6.8c-1.5,3.8,0.8,5.4,0.8,5.4s-3.4,2.9-6.7-0.2h-1.9v-13L213,52.1z"/>
								<path class="st7" d="M207.4,52.1L207.4,52.1c-0.7-0.8-1.8-1.3-2.9-1.3c-2.2,0-3.9,1.7-3.9,3.9c0,0.4,0.1,0.9,0.2,1.2
									c0.4-1,1.2-1.7,2.2-2.1c0,0-2.1,3-0.7,6.8c1.5,3.8-0.8,5.4-0.8,5.4s3.4,2.9,6.7-0.2h1.9v-13L207.4,52.1z"/>
							</g>
							<path class="st6" d="M210.2,52.8c-2.9,0-5.3,2.5-5.3,5.6v2.8c0,3.1,2.4,5.6,5.3,5.6c2.9,0,5.3-2.5,5.3-5.6v-2.8
								C215.6,55.3,213.2,52.8,210.2,52.8z"/>
							<g>
								<path class="st8" d="M207.4,52.1L207.4,52.1L207.4,52.1c-0.2-0.2-0.4-0.4-0.7-0.6c-0.4,0.1-1,0.5-1.6,1
									c-0.9,0.9-1.3,1.8-1,2.2c0.3,0.3,1.3-0.1,2.2-1C207,53.2,207.3,52.6,207.4,52.1z"/>
								<path class="st8" d="M213,52.1L213,52.1L213,52.1c0.2-0.2,0.4-0.4,0.7-0.6c0.4,0.1,1,0.5,1.6,1c0.9,0.9,1.3,1.8,1,2.2
									c-0.3,0.3-1.3-0.1-2.2-1C213.5,53.2,213.1,52.6,213,52.1z"/>
								<path class="st7" d="M216.5,56.2c-0.9-2.7-3.4-4.7-6.3-4.7c-2.9,0-5.4,2-6.3,4.7c-0.2,0.6-0.2,1.4-0.1,2.1h1
									c0,0,4.4-0.5,5.3-2.8h0c0.9,2.3,5.3,2.8,5.3,2.8h1C216.7,57.6,216.7,56.9,216.5,56.2z"/>
							</g>
						</g>
						<g>
							<path class="st9" d="M194,65.2L194,65.2c-5.8,0-10.5-4.7-10.5-10.5v-6.8c0-5.8,4.7-10.5,10.5-10.5h0
								c5.8,0,10.5,4.7,10.5,10.5v6.8C204.5,60.5,199.8,65.2,194,65.2z"/>
							<g>
								<path class="st5" d="M202.1,72.4c0-5.5-3.7-9.9-8.3-9.9c-4.6,0-8.3,4.5-8.3,9.9l0,0c0,2.7,3.7,5,8.3,5
									C198.4,77.4,202.1,75.2,202.1,72.4L202.1,72.4z"/>
								<path class="st10" d="M197,63.3c-1-0.5-2.1-0.8-3.2-0.8s-2.2,0.3-3.2,0.8c-0.5,1.4,0,5.8,3.2,5.8l0,0
									C197,69.1,197.5,64.6,197,63.3z"/>
							</g>
							<g>
								<path class="st6" d="M197,63.3c-1-0.5-2.1-0.8-3.2-0.8c-1.1,0-2.2,0.3-3.2,0.8c0.4,1.5,1.7,2.5,3.2,2.5
									C195.4,65.8,196.7,64.7,197,63.3z"/>
								<rect x="192.1" y="57.2" class="st6" width="3.3" height="6.4"/>
							</g>
							<path class="st6" d="M193.8,39.3c-4.6,0-8.3,3.9-8.3,8.6v4.3c0,4.8,3.7,8.6,8.3,8.6c4.6,0,8.3-3.9,8.3-8.6v-4.3
								C202.1,43.2,198.4,39.3,193.8,39.3z"/>
							<path class="st9" d="M193.8,37.3c-5.7,0-10.3,4.8-10.3,10.6v4.3c0,1.6,0.5,3.1,1,4.6c0.2,0.6,0.4,1.4,0.2,2.3h2.4
								c-0.7-1.8-0.4-7.9,3.4-9.7c3.8-1.8,6.4-6,6.4-6c2.4,1.1,5.1,4.6,5.1,4.6h2C204.1,42.1,199.5,37.3,193.8,37.3z"/>
						</g>
					</g>
				</g>
			</g>
		</g>
	</g>
	<g>
		<g class="st0">
			<defs>
				<rect id="SVGID_19_" x="16.7" y="67.5" class="st0" width="39.8" height="26.5"/>
			</defs>
			<clipPath id="SVGID_20_">
				<use xlink:href="#SVGID_19_"  style="overflow:visible;"/>
			</clipPath>
			<rect x="48.5" y="74.1" class="st20" width="8" height="6.6"/>
			<rect x="48.5" y="67.5" class="st21" width="8" height="6.6"/>
			<rect x="48.5" y="80.7" class="st22" width="8" height="6.6"/>
			<rect x="48.5" y="87.4" class="st23" width="8" height="6.6"/>
			<rect x="40.6" y="67.5" class="st22" width="8" height="6.6"/>
			<rect x="40.6" y="74.1" class="st21" width="8" height="6.6"/>
			<rect x="40.6" y="80.7" class="st20" width="8" height="6.6"/>
			<rect x="40.6" y="87.4" class="st21" width="8" height="6.6"/>
			<rect x="32.6" y="87.4" class="st20" width="8" height="6.6"/>
			<rect x="32.6" y="67.5" class="st22" width="8" height="6.6"/>
			<rect x="32.6" y="74.1" class="st21" width="8" height="6.6"/>
			<rect x="32.6" y="80.7" class="st20" width="8" height="6.6"/>
			<rect x="24.7" y="67.5" class="st24" width="8" height="6.6"/>
			<rect x="24.7" y="74.1" class="st22" width="8" height="6.6"/>
			<rect x="24.7" y="67.5" class="st20" width="8" height="6.6"/>
			<rect x="24.7" y="80.7" class="st22" width="8" height="6.6"/>
			<rect x="24.7" y="87.4" class="st20" width="8" height="6.6"/>
			<rect x="16.7" y="67.5" class="st23" width="8" height="6.6"/>
			<rect x="16.7" y="74.1" class="st21" width="8" height="6.6"/>
			<rect x="16.7" y="87.4" class="st24" width="8" height="6.6"/>
			<rect x="16.7" y="80.7" class="st20" width="8" height="6.6"/>
		</g>
		<g class="st0">
			<defs>
				<rect id="SVGID_21_" x="69.8" y="27.7" class="st0" width="39.8" height="26.5"/>
			</defs>
			<clipPath id="SVGID_22_">
				<use xlink:href="#SVGID_21_"  style="overflow:visible;"/>
			</clipPath>
			<rect x="69.8" y="40.9" class="st25" width="8" height="6.6"/>
			<rect x="69.8" y="34.3" class="st26" width="8" height="6.6"/>
			<rect x="69.8" y="27.7" class="st25" width="8" height="6.6"/>
			<rect x="77.7" y="47.6" class="st26" width="8" height="6.6"/>
			<rect x="77.7" y="40.9" class="st27" width="8" height="6.6"/>
			<rect x="77.7" y="34.3" class="st28" width="8" height="6.6"/>
			<rect x="77.7" y="27.7" class="st26" width="8" height="6.6"/>
			<rect x="85.7" y="47.6" class="st28" width="8" height="6.6"/>
			<rect x="85.7" y="40.9" class="st26" width="8" height="6.6"/>
			<rect x="85.7" y="34.3" class="st26" width="8" height="6.6"/>
			<rect x="93.6" y="47.6" class="st26" width="8" height="6.6"/>
			<rect x="93.6" y="40.9" class="st28" width="8" height="6.6"/>
			<rect x="93.6" y="34.3" class="st27" width="8" height="6.6"/>
			<rect x="93.6" y="27.7" class="st26" width="8" height="6.6"/>
			<rect x="101.6" y="47.6" class="st27" width="8" height="6.6"/>
			<rect x="101.6" y="40.9" class="st26" width="8" height="6.6"/>
			<rect x="101.6" y="27.7" class="st28" width="8" height="6.6"/>
		</g>
		<g class="st0">
			<defs>
				<rect id="SVGID_23_" x="69.8" y="67.5" class="st0" width="39.8" height="26.5"/>
			</defs>
			<clipPath id="SVGID_24_">
				<use xlink:href="#SVGID_23_"  style="overflow:visible;"/>
			</clipPath>
			<rect x="101.6" y="74.1" class="st29" width="8" height="6.6"/>
			<rect x="101.6" y="67.5" class="st30" width="8" height="6.6"/>
			<rect x="101.6" y="80.7" class="st31" width="8" height="6.6"/>
			<rect x="101.6" y="87.4" class="st32" width="8" height="6.6"/>
			<rect x="93.6" y="67.5" class="st29" width="8" height="6.6"/>
			<rect x="93.6" y="74.1" class="st30" width="8" height="6.6"/>
			<rect x="93.6" y="80.7" class="st29" width="8" height="6.6"/>
			<rect x="93.6" y="87.4" class="st30" width="8" height="6.6"/>
			<rect x="85.7" y="87.4" class="st33" width="8" height="6.6"/>
			<rect x="85.7" y="67.5" class="st31" width="8" height="6.6"/>
			<rect x="85.7" y="74.1" class="st29" width="8" height="6.6"/>
			<rect x="85.7" y="80.7" class="st30" width="8" height="6.6"/>
			<rect x="77.7" y="67.5" class="st33" width="8" height="6.6"/>
			<rect x="77.7" y="74.1" class="st31" width="8" height="6.6"/>
			<rect x="77.7" y="67.5" class="st29" width="8" height="6.6"/>
			<rect x="77.7" y="80.7" class="st31" width="8" height="6.6"/>
			<rect x="77.7" y="87.4" class="st29" width="8" height="6.6"/>
			<rect x="69.8" y="67.5" class="st32" width="8" height="6.6"/>
			<rect x="69.8" y="74.1" class="st29" width="8" height="6.6"/>
			<rect x="69.8" y="87.4" class="st33" width="8" height="6.6"/>
			<rect x="69.8" y="80.7" class="st30" width="8" height="6.6"/>
		</g>
		<g class="st0">
			<defs>
				<rect id="SVGID_25_" x="16.7" y="27.7" class="st0" width="39.8" height="26.5"/>
			</defs>
			<clipPath id="SVGID_26_">
				<use xlink:href="#SVGID_25_"  style="overflow:visible;"/>
			</clipPath>
			<rect x="16.7" y="40.9" class="st34" width="8" height="6.6"/>
			<rect x="16.7" y="47.6" class="st35" width="8" height="6.6"/>
			<rect x="16.7" y="34.3" class="st36" width="8" height="6.6"/>
			<rect x="16.7" y="27.7" class="st37" width="8" height="6.6"/>
			<rect x="24.7" y="47.6" class="st34" width="8" height="6.6"/>
			<rect x="24.7" y="40.9" class="st35" width="8" height="6.6"/>
			<rect x="24.7" y="34.3" class="st34" width="8" height="6.6"/>
			<rect x="24.7" y="27.7" class="st35" width="8" height="6.6"/>
			<rect x="32.6" y="27.7" class="st38" width="8" height="6.6"/>
			<rect x="32.6" y="47.6" class="st36" width="8" height="6.6"/>
			<rect x="32.6" y="40.9" class="st34" width="8" height="6.6"/>
			<rect x="32.6" y="34.3" class="st35" width="8" height="6.6"/>
			<rect x="40.6" y="47.6" class="st38" width="8" height="6.6"/>
			<rect x="40.6" y="40.9" class="st36" width="8" height="6.6"/>
			<rect x="40.6" y="47.6" class="st34" width="8" height="6.6"/>
			<rect x="40.6" y="34.3" class="st36" width="8" height="6.6"/>
			<rect x="40.6" y="27.7" class="st34" width="8" height="6.6"/>
			<rect x="48.5" y="47.6" class="st37" width="8" height="6.6"/>
			<rect x="48.5" y="40.9" class="st34" width="8" height="6.6"/>
			<rect x="48.5" y="27.7" class="st38" width="8" height="6.6"/>
			<rect x="48.5" y="34.3" class="st35" width="8" height="6.6"/>
		</g>
		<g>
			<defs>
				<rect id="SVGID_27_" x="14.9" y="65.7" width="39.8" height="26.5"/>
			</defs>
			<clipPath id="SVGID_28_">
				<use xlink:href="#SVGID_27_"  style="overflow:visible;"/>
			</clipPath>
			<rect x="46.8" y="72.3" class="st39" width="8" height="6.6"/>
			<rect x="46.8" y="65.7" class="st40" width="8" height="6.6"/>
			<rect x="46.8" y="79" class="st41" width="8" height="6.6"/>
			<rect x="46.8" y="85.6" class="st42" width="8" height="6.6"/>
			<rect x="38.8" y="65.7" class="st41" width="8" height="6.6"/>
			<rect x="38.8" y="72.3" class="st40" width="8" height="6.6"/>
			<rect x="38.8" y="79" class="st39" width="8" height="6.6"/>
			<rect x="38.8" y="85.6" class="st40" width="8" height="6.6"/>
			<rect x="30.9" y="85.6" class="st39" width="8" height="6.6"/>
			<rect x="30.9" y="65.7" class="st41" width="8" height="6.6"/>
			<rect x="30.9" y="72.3" class="st40" width="8" height="6.6"/>
			<rect x="30.9" y="79" class="st39" width="8" height="6.6"/>
			<rect x="22.9" y="65.7" class="st43" width="8" height="6.6"/>
			<rect x="22.9" y="72.3" class="st41" width="8" height="6.6"/>
			<rect x="22.9" y="65.7" class="st39" width="8" height="6.6"/>
			<rect x="22.9" y="79" class="st41" width="8" height="6.6"/>
			<rect x="22.9" y="85.6" class="st39" width="8" height="6.6"/>
			<rect x="14.9" y="65.7" class="st42" width="8" height="6.6"/>
			<rect x="14.9" y="72.3" class="st40" width="8" height="6.6"/>
			<rect x="14.9" y="85.6" class="st43" width="8" height="6.6"/>
			<rect x="14.9" y="79" class="st39" width="8" height="6.6"/>
		</g>
		<g>
			<defs>
				<rect id="SVGID_29_" x="68" y="25.9" width="39.8" height="26.5"/>
			</defs>
			<clipPath id="SVGID_30_">
				<use xlink:href="#SVGID_29_"  style="overflow:visible;"/>
			</clipPath>
			<rect x="68" y="39.2" class="st44" width="8" height="6.6"/>
			<rect x="68" y="32.5" class="st45" width="8" height="6.6"/>
			<rect x="68" y="25.9" class="st44" width="8" height="6.6"/>
			<rect x="76" y="45.8" class="st45" width="8" height="6.6"/>
			<rect x="76" y="39.2" class="st46" width="8" height="6.6"/>
			<rect x="76" y="32.5" class="st47" width="8" height="6.6"/>
			<rect x="76" y="25.9" class="st45" width="8" height="6.6"/>
			<rect x="83.9" y="45.8" class="st47" width="8" height="6.6"/>
			<rect x="83.9" y="39.2" class="st45" width="8" height="6.6"/>
			<rect x="83.9" y="32.5" class="st45" width="8" height="6.6"/>
			<rect x="91.9" y="45.8" class="st45" width="8" height="6.6"/>
			<rect x="91.9" y="39.2" class="st47" width="8" height="6.6"/>
			<rect x="91.9" y="32.5" class="st46" width="8" height="6.6"/>
			<rect x="91.9" y="25.9" class="st45" width="8" height="6.6"/>
			<rect x="99.8" y="45.8" class="st46" width="8" height="6.6"/>
			<rect x="99.8" y="39.2" class="st45" width="8" height="6.6"/>
			<rect x="99.8" y="25.9" class="st47" width="8" height="6.6"/>
		</g>
		<g>
			<defs>
				<rect id="SVGID_31_" x="68" y="65.7" width="39.8" height="26.5"/>
			</defs>
			<clipPath id="SVGID_32_">
				<use xlink:href="#SVGID_31_"  style="overflow:visible;"/>
			</clipPath>
			<rect x="99.8" y="72.3" class="st48" width="8" height="6.6"/>
			<rect x="99.8" y="65.7" class="st49" width="8" height="6.6"/>
			<rect x="99.8" y="79" class="st50" width="8" height="6.6"/>
			<rect x="99.8" y="85.6" class="st51" width="8" height="6.6"/>
			<rect x="91.9" y="65.7" class="st48" width="8" height="6.6"/>
			<rect x="91.9" y="72.3" class="st49" width="8" height="6.6"/>
			<rect x="91.9" y="79" class="st48" width="8" height="6.6"/>
			<rect x="91.9" y="85.6" class="st49" width="8" height="6.6"/>
			<rect x="83.9" y="85.6" class="st52" width="8" height="6.6"/>
			<rect x="83.9" y="65.7" class="st50" width="8" height="6.6"/>
			<rect x="83.9" y="72.3" class="st48" width="8" height="6.6"/>
			<rect x="83.9" y="79" class="st49" width="8" height="6.6"/>
			<rect x="76" y="65.7" class="st52" width="8" height="6.6"/>
			<rect x="76" y="72.3" class="st50" width="8" height="6.6"/>
			<rect x="76" y="65.7" class="st48" width="8" height="6.6"/>
			<rect x="76" y="79" class="st50" width="8" height="6.6"/>
			<rect x="76" y="85.6" class="st48" width="8" height="6.6"/>
			<rect x="68" y="65.7" class="st51" width="8" height="6.6"/>
			<rect x="68" y="72.3" class="st48" width="8" height="6.6"/>
			<rect x="68" y="85.6" class="st52" width="8" height="6.6"/>
			<rect x="68" y="79" class="st49" width="8" height="6.6"/>
		</g>
		<g>
			<defs>
				<rect id="SVGID_33_" x="14.9" y="25.9" width="39.8" height="26.5"/>
			</defs>
			<clipPath id="SVGID_34_">
				<use xlink:href="#SVGID_33_"  style="overflow:visible;"/>
			</clipPath>
			<rect x="14.9" y="39.2" class="st53" width="8" height="6.6"/>
			<rect x="14.9" y="45.8" class="st54" width="8" height="6.6"/>
			<rect x="14.9" y="32.5" class="st55" width="8" height="6.6"/>
			<rect x="14.9" y="25.9" class="st56" width="8" height="6.6"/>
			<rect x="22.9" y="45.8" class="st53" width="8" height="6.6"/>
			<rect x="22.9" y="39.2" class="st54" width="8" height="6.6"/>
			<rect x="22.9" y="32.5" class="st53" width="8" height="6.6"/>
			<rect x="22.9" y="25.9" class="st54" width="8" height="6.6"/>
			<rect x="30.9" y="25.9" class="st57" width="8" height="6.6"/>
			<rect x="30.9" y="45.8" class="st55" width="8" height="6.6"/>
			<rect x="30.9" y="39.2" class="st53" width="8" height="6.6"/>
			<rect x="30.9" y="32.5" class="st54" width="8" height="6.6"/>
			<rect x="38.8" y="45.8" class="st57" width="8" height="6.6"/>
			<rect x="38.8" y="39.2" class="st55" width="8" height="6.6"/>
			<rect x="38.8" y="45.8" class="st53" width="8" height="6.6"/>
			<rect x="38.8" y="32.5" class="st55" width="8" height="6.6"/>
			<rect x="38.8" y="25.9" class="st53" width="8" height="6.6"/>
			<rect x="46.8" y="45.8" class="st56" width="8" height="6.6"/>
			<rect x="46.8" y="39.2" class="st53" width="8" height="6.6"/>
			<rect x="46.8" y="25.9" class="st57" width="8" height="6.6"/>
			<rect x="46.8" y="32.5" class="st54" width="8" height="6.6"/>
		</g>
	</g>
	<g>
		<line class="st58" x1="121.3" y1="58.2" x2="158.7" y2="58.2"/>
		<g>
			<line class="st59" x1="121.3" y1="58.2" x2="156.3" y2="58.2"/>
			<g>
				<polygon class="st60" points="149,67.3 147.5,65.7 155.5,58.2 147.5,50.8 149,49.2 158.7,58.2 				"/>
			</g>
		</g>
	</g>
	<g>
		<line class="st58" x1="275.2" y1="58.2" x2="312.6" y2="58.2"/>
		<g>
			<line class="st59" x1="275.2" y1="58.2" x2="310.2" y2="58.2"/>
			<g>
				<polygon class="st60" points="302.9,67.3 301.4,65.7 309.4,58.2 301.4,50.8 302.9,49.2 312.6,58.2 				"/>
			</g>
		</g>
	</g>
</g>
</svg>
