<?xml version="1.0" encoding="utf-8"?>
<!-- Generator: Adobe Illustrator 19.1.0, SVG Export Plug-In . SVG Version: 6.00 Build 0)  -->
<svg version="1.1" id="Layer_1" xmlns="http://www.w3.org/2000/svg" xmlns:xlink="http://www.w3.org/1999/xlink" x="0px" y="0px"
	 viewBox="0 0 420 120" style="enable-background:new 0 0 420 120;" xml:space="preserve">
<style type="text/css">
	.st0{clip-path:url(#SVGID_2_);}
	.st1{fill:url(#SVGID_3_);}
	.st2{fill:#3575B5;}
	.st3{opacity:0.15;}
	.st4{clip-path:url(#SVGID_5_);}
	.st5{opacity:0.25;clip-path:url(#SVGID_5_);}
	.st6{opacity:0.75;clip-path:url(#SVGID_5_);}
	.st7{opacity:0.5;clip-path:url(#SVGID_5_);}
	.st8{opacity:0;clip-path:url(#SVGID_5_);}
	.st9{clip-path:url(#SVGID_7_);fill:#FFFFFF;}
	.st10{opacity:0.25;clip-path:url(#SVGID_7_);fill:#FFFFFF;}
	.st11{opacity:0.75;clip-path:url(#SVGID_7_);fill:#FFFFFF;}
	.st12{opacity:0.5;clip-path:url(#SVGID_7_);fill:#FFFFFF;}
	.st13{opacity:0;clip-path:url(#SVGID_7_);fill:#FFFFFF;}
	.st14{clip-path:url(#SVGID_9_);}
	.st15{opacity:0.25;clip-path:url(#SVGID_9_);}
	.st16{opacity:0.75;clip-path:url(#SVGID_9_);}
	.st17{opacity:0.5;clip-path:url(#SVGID_9_);}
	.st18{opacity:0;clip-path:url(#SVGID_9_);}
	.st19{clip-path:url(#SVGID_11_);fill:#FFFFFF;}
	.st20{opacity:0.25;clip-path:url(#SVGID_11_);fill:#FFFFFF;}
	.st21{opacity:0.75;clip-path:url(#SVGID_11_);fill:#FFFFFF;}
	.st22{opacity:0.5;clip-path:url(#SVGID_11_);fill:#FFFFFF;}
	.st23{opacity:0;clip-path:url(#SVGID_11_);fill:#FFFFFF;}
	.st24{clip-path:url(#SVGID_13_);}
	.st25{opacity:0.25;clip-path:url(#SVGID_13_);}
	.st26{opacity:0.75;clip-path:url(#SVGID_13_);}
	.st27{opacity:0.5;clip-path:url(#SVGID_13_);}
	.st28{opacity:0;clip-path:url(#SVGID_13_);}
	.st29{clip-path:url(#SVGID_15_);fill:#FFFFFF;}
	.st30{opacity:0.25;clip-path:url(#SVGID_15_);fill:#FFFFFF;}
	.st31{opacity:0.75;clip-path:url(#SVGID_15_);fill:#FFFFFF;}
	.st32{opacity:0.5;clip-path:url(#SVGID_15_);fill:#FFFFFF;}
	.st33{opacity:0;clip-path:url(#SVGID_15_);fill:#FFFFFF;}
	.st34{opacity:0.5;clip-path:url(#SVGID_17_);}
	.st35{clip-path:url(#SVGID_17_);}
	.st36{opacity:0.25;clip-path:url(#SVGID_17_);}
	.st37{opacity:0.75;clip-path:url(#SVGID_17_);}
	.st38{opacity:0.5;clip-path:url(#SVGID_19_);fill:#FFFFFF;}
	.st39{clip-path:url(#SVGID_19_);fill:#FFFFFF;}
	.st40{opacity:0.25;clip-path:url(#SVGID_19_);fill:#FFFFFF;}
	.st41{opacity:0.75;clip-path:url(#SVGID_19_);fill:#FFFFFF;}
</style>
<g>
	<defs>
		<rect id="SVGID_1_" x="5" y="5" width="410.1" height="110.7"/>
	</defs>
	<clipPath id="SVGID_2_">
		<use xlink:href="#SVGID_1_"  style="overflow:visible;"/>
	</clipPath>
	<g class="st0">
		<linearGradient id="SVGID_3_" gradientUnits="userSpaceOnUse" x1="210.057" y1="115.7186" x2="210.057" y2="5">
			<stop  offset="0" style="stop-color:#FFFFFF;stop-opacity:0"/>
			<stop  offset="0.5" style="stop-color:#FFFFFF;stop-opacity:0.25"/>
			<stop  offset="0.9741" style="stop-color:#FFFFFF;stop-opacity:1.293255e-002"/>
			<stop  offset="1" style="stop-color:#FFFFFF;stop-opacity:0"/>
		</linearGradient>
		<path class="st1" d="M231.6,115.7l7.4-16.9c1.7,0.5,3.5,0.2,5-0.6l13.4,17.5h2.5L245.6,97c0.7-0.7,1.2-1.5,1.5-2.5
			c0.3-0.9,0.4-1.8,0.3-2.7l37.4-9c0.6,1.4,1.7,2.7,3.1,3.4l-9.9,29.5h2.1l9.7-28.9c1.2,0.2,2.4,0.1,3.5-0.3l13.6,24.2
			c-1,0.8-1.8,1.9-2.2,3.1c-0.2,0.6-0.3,1.3-0.3,1.9h18.1l29-3c0.3,1.2,0.9,2.2,1.8,3h9.4c0.7-0.7,1.3-1.6,1.6-2.6
			c0.3-1,0.4-2.1,0.3-3.1l37.6-11.6c0.6,1.2,1.5,2.2,2.7,2.9l-5.5,14.4h2.1l5.2-13.7c1.4,0.3,2.9,0.1,4.1-0.4l4.2,6.5v-3.7l-2.5-3.9
			c0.9-0.8,1.5-1.7,1.9-2.9c0.4-1.3,0.4-2.7,0.1-3.9l0.5-0.2v-2.2l-1.3,0.6c-0.6-1-1.5-1.8-2.6-2.3l3.9-11.6v-6.3l-5.8,17.2
			c-1.3-0.2-2.6-0.1-3.8,0.4l-20.6-33c0.9-0.8,1.6-1.8,2-3c0.4-1.2,0.4-2.5,0.1-3.7l28-11.6V36l-28.7,11.9c-0.6-1-1.5-1.9-2.7-2.5
			L397.2,5h-2.1l-13.3,39.7c-1.3-0.2-2.6-0.1-3.8,0.4L355.7,9.2c0.7-0.7,1.2-1.5,1.5-2.5c0.2-0.6,0.3-1.1,0.3-1.7h-13.3
			c0,0.4,0.1,0.8,0.2,1.2L312,19.8c-0.7-1.2-1.9-2.2-3.3-2.8l2.6-12h-2l-2.5,11.6c-1.5-0.1-2.9,0.3-4.1,1.1L290.9,5h-2.7l12.8,14.1
			c-0.5,0.6-0.9,1.3-1.1,2.1c-0.4,1.1-0.4,2.2-0.2,3.3l-40,13.6c-0.6-1.3-1.7-2.3-3-3L266.1,5h-2.1l-9.2,29.5
			c-1.6-0.3-3.1,0-4.4,0.8L226.4,5h-9.5c0.2,0.1,0.3,0.2,0.5,0.3l-14,32.8c-1.7-0.4-3.4-0.2-4.8,0.6L174.4,6.2
			c0.4-0.4,0.7-0.8,1-1.2h-11.4c0.7,1.2,1.7,2.1,3,2.7l-12.8,48.9c-1.5-0.2-3,0.2-4.3,1l-29.8-34.7c0.6-0.6,1-1.4,1.3-2.2
			c0.3-1,0.4-2.1,0.3-3.1L161.8,5h-6.8l-34,10.5c-0.6-1.1-1.4-2.1-2.5-2.8l3.2-7.7h-2.2l-2.9,7c-1.3-0.3-2.6-0.2-3.8,0.1L109.3,5
			H107l4.1,8c-1.1,0.8-2,1.9-2.4,3.3c-0.4,1.3-0.4,2.6-0.1,3.8L74,35c-0.6-0.9-1.3-1.7-2.3-2.2L82.7,5h-2.2L69.8,32
			c-1.3-0.3-2.6-0.2-3.7,0.2L51.7,5h-2.3l14.9,28.1c-1.1,0.8-1.9,1.9-2.4,3.2c-0.4,1.2-0.4,2.5-0.2,3.7L28.9,53.3
			c-0.6-0.7-1.3-1.2-2.1-1.7L42.5,5h-2.1L25,51c-1.4-0.3-2.9,0-4.1,0.6L5,29.2v3.5l14.2,20c-0.8,0.7-1.4,1.6-1.7,2.7
			c-0.4,1.2-0.4,2.5-0.2,3.7L5,64.1v2.2L18.1,61c0.6,1.1,1.6,2,2.8,2.6L5,112.3v3.4h1l16.7-51.6c0.8,0.1,1.5,0.1,2.3,0l18.5,36.4
			c-1.1,0.8-2,1.9-2.5,3.3c-0.4,1.2-0.4,2.5-0.2,3.7l-20.4,8.2h5.4l15.8-6.3c0.7,1.2,1.8,2.2,3.2,2.8l-0.9,3.6h2.1l0.8-3.1
			c1.1,0.1,2.3-0.1,3.3-0.5l2.3,3.6h2.4l-3-4.7c0.9-0.8,1.6-1.7,2-2.9c0.5-1.4,0.4-2.8,0-4.1l34.1-16.8c0.8,1.1,1.8,2,3.2,2.5
			l-5.3,26.1h2L93,90c1.2,0.1,2.3-0.2,3.3-0.7l18.4,26.4h2.4L98,88.2c0.8-0.7,1.4-1.6,1.7-2.7c0.4-1.1,0.4-2.2,0.2-3.3l47.6-16
			c0.5,1,1.3,1.9,2.4,2.6l-20.8,46.9h2.2l20.4-46.1c1.5,0.4,3.1,0.3,4.5-0.4l22.5,34.7c-0.6,0.7-1.1,1.5-1.4,2.4
			c-0.4,1.1-0.4,2.2-0.2,3.3l-18.3,6.1h6.3l12.6-4.2c0.6,1.1,1.5,2.1,2.6,2.7l-0.6,1.5h2.2l0.3-0.8c1.5,0.3,3,0.2,4.3-0.4l0.8,1.2
			h2.4l-1.5-2.3c0.9-0.8,1.5-1.7,1.9-2.9c0.3-1,0.4-2,0.3-2.9l44.4-12.5c0.5,1.2,1.4,2.2,2.5,2.9l-7.8,17.7H231.6z M48.4,99.4
			c-1.1-0.2-2.1-0.1-3.1,0.3L26.9,63.5c1.5-0.8,2.7-2.1,3.2-3.8c0.5-1.6,0.4-3.2-0.2-4.7l32.6-13.1c0.7,1.1,1.6,2,2.8,2.6L48.4,99.4
			z M87,81.2c-0.5,1.4-0.4,2.8,0,4.1l-34.1,16.8c-0.6-0.9-1.5-1.7-2.6-2.2l17-54.9c1.2,0.2,2.4,0,3.4-0.4l19.1,32.9
			C88.5,78.5,87.5,79.7,87,81.2z M94.5,76.8c-1-0.2-1.9-0.1-2.8,0.1L72.5,43.7c1-0.8,1.7-1.8,2.2-3.1c0.4-1.3,0.4-2.6,0.1-3.8
			L109.4,22c0.6,1,1.5,1.9,2.6,2.4L94.5,76.8z M147.2,61.1c-0.4,1.1-0.4,2.2-0.2,3.3l-47.6,16c-0.6-1.2-1.6-2.2-2.9-2.9L113.9,25
			c1.7,0.3,3.3-0.1,4.7-0.9l29.8,34.7C147.9,59.5,147.4,60.2,147.2,61.1z M308.7,109.7l-13.6-24.2c1-0.8,1.8-1.9,2.2-3.1
			c0.4-1.1,0.4-2.3,0.2-3.4l32.9-11.5c0.5,0.9,1.2,1.7,2.1,2.4l-19.5,39.7C311.6,109.1,310.1,109.2,308.7,109.7z M351.7,108.9
			c-0.2,0.6-0.3,1.2-0.3,1.8l-33.8,3.6c-0.4-1.5-1.3-2.9-2.7-3.8l19.5-39.7c1.3,0.4,2.7,0.4,3.9,0l16.1,34.6
			C353.1,106.2,352.2,107.4,351.7,108.9z M379.2,57.8c1.4,0.3,2.8,0.1,4-0.4l20.6,33c-0.9,0.8-1.6,1.8-2,3c-0.3,1-0.4,2.1-0.3,3.1
			L364,108.1c-0.6-1.2-1.5-2.2-2.7-2.9L379.2,57.8z M359.4,104.5c-1.1-0.2-2.2-0.2-3.3,0.1L340.1,70c1.2-0.8,2.2-2,2.7-3.4
			c0.3-1,0.4-2,0.3-3l31.6-9.4c0.6,1.2,1.5,2.3,2.8,3L359.4,104.5z M354.1,10.4l22.2,35.8c-0.9,0.8-1.6,1.8-2,3c-0.3,1-0.4,2-0.3,3
			l-31.6,9.4c-0.7-1.4-1.9-2.6-3.4-3.3l12.2-47C352.3,11.2,353.3,10.9,354.1,10.4z M312.6,25.4c0.4-1.3,0.4-2.6,0.1-3.7l32.4-13.6
			c0.8,1.3,2,2.3,3.6,2.9c0.2,0.1,0.3,0.1,0.5,0.1l-12.2,46.7c-1.3-0.1-2.6,0.1-3.8,0.7L311,28C311.7,27.3,312.3,26.4,312.6,25.4z
			 M309.4,29.2l22.3,30.5c-0.7,0.7-1.3,1.6-1.6,2.6c-0.4,1.1-0.4,2.3-0.2,3.4l-32.9,11.5c-0.7-1.3-1.8-2.4-3.2-3l11.8-44.2
			C306.9,30.1,308.2,29.8,309.4,29.2z M260.1,43.2c0.4-1.1,0.4-2.2,0.3-3.2l40-13.6c0.7,1.3,1.8,2.4,3.3,3l-11.8,44.2
			c-1.6-0.2-3.3,0.3-4.6,1.2L259,45.2C259.4,44.6,259.8,43.9,260.1,43.2z M257.5,46.5l28.2,29.6c-0.4,0.6-0.8,1.2-1.1,2
			c-0.3,0.9-0.4,1.8-0.3,2.7l-37.4,9c-0.6-1.6-1.9-2.9-3.6-3.6l9.8-38.5C254.7,47.9,256.3,47.4,257.5,46.5z M219.2,6.1
			c1.7,0.4,3.5,0.2,5-0.7l24.6,31.1c-0.6,0.7-1.1,1.5-1.5,2.4c-0.2,0.5-0.3,1.1-0.3,1.6l-38.8,2.6c-0.4-1.7-1.5-3.3-3-4.2L219.2,6.1
			z M156.1,57l12.8-48.9c1.4,0.1,2.7-0.1,3.9-0.8L197,39.9c-0.7,0.7-1.3,1.6-1.6,2.6c-0.4,1.2-0.4,2.4-0.2,3.6l-36,13.8
			C158.6,58.6,157.5,57.6,156.1,57z M184.5,101.8c-1.5-0.2-3,0.1-4.2,0.9l-22.3-34.5c0.8-0.8,1.5-1.7,1.9-2.9
			c0.4-1.2,0.4-2.4,0.2-3.6l36-13.8c0.7,1.2,1.7,2.2,3,2.8L184.5,101.8z M234.4,90.3c-0.3,1-0.4,2-0.3,2.9l-44.4,12.5
			c-0.7-1.4-1.8-2.6-3.3-3.3l14.5-51.1c1.5,0.2,3-0.1,4.2-0.9l30.6,37.5C235.2,88.6,234.7,89.4,234.4,90.3z M206.7,49.1
			c0.6-0.7,1.1-1.5,1.4-2.4c0.2-0.5,0.3-1,0.3-1.6l38.8-2.6c0.5,2.1,1.9,3.8,4,4.7l-9.8,38.5c-1.4-0.1-2.9,0.2-4.1,0.9L206.7,49.1z"
			/>
	</g>
	<g class="st0">
		<rect x="47.4" y="19.1" class="st2" width="39.8" height="26.5"/>
		<g>
			<g class="st3">
				<defs>
					<rect id="SVGID_4_" x="49.1" y="20.9" class="st3" width="39.8" height="26.5"/>
				</defs>
				<clipPath id="SVGID_5_">
					<use xlink:href="#SVGID_4_"  style="overflow:visible;"/>
				</clipPath>
				<rect x="81" y="27.5" class="st4" width="8" height="6.6"/>
				<rect x="81" y="20.9" class="st5" width="8" height="6.6"/>
				<rect x="81" y="34.2" class="st6" width="8" height="6.6"/>
				<rect x="81" y="40.8" class="st7" width="8" height="6.6"/>
				<rect x="73" y="20.9" class="st4" width="8" height="6.6"/>
				<rect x="73" y="27.5" class="st5" width="8" height="6.6"/>
				<rect x="73" y="34.2" class="st4" width="8" height="6.6"/>
				<rect x="73" y="40.8" class="st5" width="8" height="6.6"/>
				<rect x="65.1" y="40.8" class="st8" width="8" height="6.6"/>
				<rect x="65.1" y="20.9" class="st6" width="8" height="6.6"/>
				<rect x="65.1" y="27.5" class="st4" width="8" height="6.6"/>
				<rect x="65.1" y="34.2" class="st5" width="8" height="6.6"/>
				<rect x="57.1" y="20.9" class="st8" width="8" height="6.6"/>
				<rect x="57.1" y="27.5" class="st6" width="8" height="6.6"/>
				<rect x="57.1" y="20.9" class="st4" width="8" height="6.6"/>
				<rect x="57.1" y="34.2" class="st6" width="8" height="6.6"/>
				<rect x="57.1" y="40.8" class="st4" width="8" height="6.6"/>
				<rect x="49.1" y="20.9" class="st7" width="8" height="6.6"/>
				<rect x="49.1" y="27.5" class="st4" width="8" height="6.6"/>
				<rect x="49.1" y="40.8" class="st8" width="8" height="6.6"/>
				<rect x="49.1" y="34.2" class="st5" width="8" height="6.6"/>
			</g>
			<g>
				<defs>
					<rect id="SVGID_6_" x="47.4" y="19.1" width="39.8" height="26.5"/>
				</defs>
				<clipPath id="SVGID_7_">
					<use xlink:href="#SVGID_6_"  style="overflow:visible;"/>
				</clipPath>
				<rect x="79.2" y="25.8" class="st9" width="8" height="6.6"/>
				<rect x="79.2" y="19.1" class="st10" width="8" height="6.6"/>
				<rect x="79.2" y="32.4" class="st11" width="8" height="6.6"/>
				<rect x="79.2" y="39" class="st12" width="8" height="6.6"/>
				<rect x="71.2" y="19.1" class="st9" width="8" height="6.6"/>
				<rect x="71.2" y="25.8" class="st10" width="8" height="6.6"/>
				<rect x="71.2" y="32.4" class="st9" width="8" height="6.6"/>
				<rect x="71.2" y="39" class="st10" width="8" height="6.6"/>
				<rect x="63.3" y="39" class="st13" width="8" height="6.6"/>
				<rect x="63.3" y="19.1" class="st11" width="8" height="6.6"/>
				<rect x="63.3" y="25.8" class="st9" width="8" height="6.6"/>
				<rect x="63.3" y="32.4" class="st10" width="8" height="6.6"/>
				<rect x="55.3" y="19.1" class="st13" width="8" height="6.6"/>
				<rect x="55.3" y="25.8" class="st11" width="8" height="6.6"/>
				<rect x="55.3" y="19.1" class="st9" width="8" height="6.6"/>
				<rect x="55.3" y="32.4" class="st11" width="8" height="6.6"/>
				<rect x="55.3" y="39" class="st9" width="8" height="6.6"/>
				<rect x="47.4" y="19.1" class="st12" width="8" height="6.6"/>
				<rect x="47.4" y="25.8" class="st9" width="8" height="6.6"/>
				<rect x="47.4" y="39" class="st13" width="8" height="6.6"/>
				<rect x="47.4" y="32.4" class="st10" width="8" height="6.6"/>
			</g>
		</g>
	</g>
	<g class="st0">
		<rect x="362.1" y="36.3" class="st2" width="39.8" height="26.5"/>
		<g>
			<g class="st3">
				<defs>
					<rect id="SVGID_8_" x="363.9" y="38.1" class="st3" width="39.8" height="26.5"/>
				</defs>
				<clipPath id="SVGID_9_">
					<use xlink:href="#SVGID_8_"  style="overflow:visible;"/>
				</clipPath>
				<rect x="363.9" y="51.3" class="st14" width="8" height="6.6"/>
				<rect x="363.9" y="58" class="st15" width="8" height="6.6"/>
				<rect x="363.9" y="44.7" class="st16" width="8" height="6.6"/>
				<rect x="363.9" y="38.1" class="st17" width="8" height="6.6"/>
				<rect x="371.9" y="58" class="st14" width="8" height="6.6"/>
				<rect x="371.9" y="51.3" class="st15" width="8" height="6.6"/>
				<rect x="371.9" y="44.7" class="st14" width="8" height="6.6"/>
				<rect x="371.9" y="38.1" class="st15" width="8" height="6.6"/>
				<rect x="379.8" y="38.1" class="st18" width="8" height="6.6"/>
				<rect x="379.8" y="58" class="st16" width="8" height="6.6"/>
				<rect x="379.8" y="51.3" class="st14" width="8" height="6.6"/>
				<rect x="379.8" y="44.7" class="st15" width="8" height="6.6"/>
				<rect x="387.8" y="58" class="st18" width="8" height="6.6"/>
				<rect x="387.8" y="51.3" class="st16" width="8" height="6.6"/>
				<rect x="387.8" y="58" class="st14" width="8" height="6.6"/>
				<rect x="387.8" y="44.7" class="st16" width="8" height="6.6"/>
				<rect x="387.8" y="38.1" class="st14" width="8" height="6.6"/>
				<rect x="395.7" y="58" class="st17" width="8" height="6.6"/>
				<rect x="395.7" y="51.3" class="st14" width="8" height="6.6"/>
				<rect x="395.7" y="38.1" class="st18" width="8" height="6.6"/>
				<rect x="395.7" y="44.7" class="st15" width="8" height="6.6"/>
			</g>
			<g>
				<defs>
					<rect id="SVGID_10_" x="362.1" y="36.3" width="39.8" height="26.5"/>
				</defs>
				<clipPath id="SVGID_11_">
					<use xlink:href="#SVGID_10_"  style="overflow:visible;"/>
				</clipPath>
				<rect x="362.1" y="49.6" class="st19" width="8" height="6.6"/>
				<rect x="362.1" y="56.2" class="st20" width="8" height="6.6"/>
				<rect x="362.1" y="42.9" class="st21" width="8" height="6.6"/>
				<rect x="362.1" y="36.3" class="st22" width="8" height="6.6"/>
				<rect x="370.1" y="56.2" class="st19" width="8" height="6.6"/>
				<rect x="370.1" y="49.6" class="st20" width="8" height="6.6"/>
				<rect x="370.1" y="42.9" class="st19" width="8" height="6.6"/>
				<rect x="370.1" y="36.3" class="st20" width="8" height="6.6"/>
				<rect x="378.1" y="36.3" class="st23" width="8" height="6.6"/>
				<rect x="378.1" y="56.2" class="st21" width="8" height="6.6"/>
				<rect x="378.1" y="49.6" class="st19" width="8" height="6.6"/>
				<rect x="378.1" y="42.9" class="st20" width="8" height="6.6"/>
				<rect x="386" y="56.2" class="st23" width="8" height="6.6"/>
				<rect x="386" y="49.6" class="st21" width="8" height="6.6"/>
				<rect x="386" y="56.2" class="st19" width="8" height="6.6"/>
				<rect x="386" y="42.9" class="st21" width="8" height="6.6"/>
				<rect x="386" y="36.3" class="st19" width="8" height="6.6"/>
				<rect x="394" y="56.2" class="st22" width="8" height="6.6"/>
				<rect x="394" y="49.6" class="st19" width="8" height="6.6"/>
				<rect x="394" y="36.3" class="st23" width="8" height="6.6"/>
				<rect x="394" y="42.9" class="st20" width="8" height="6.6"/>
			</g>
		</g>
	</g>
	<g class="st0">
		<rect x="72.4" y="70.3" class="st2" width="39.8" height="26.5"/>
		<g>
			<g class="st3">
				<defs>
					<rect id="SVGID_12_" x="74.2" y="72.1" class="st3" width="39.8" height="26.5"/>
				</defs>
				<clipPath id="SVGID_13_">
					<use xlink:href="#SVGID_12_"  style="overflow:visible;"/>
				</clipPath>
				<rect x="106" y="78.7" class="st24" width="8" height="6.6"/>
				<rect x="106" y="72.1" class="st25" width="8" height="6.6"/>
				<rect x="106" y="85.3" class="st26" width="8" height="6.6"/>
				<rect x="106" y="92" class="st27" width="8" height="6.6"/>
				<rect x="98" y="72.1" class="st26" width="8" height="6.6"/>
				<rect x="98" y="78.7" class="st25" width="8" height="6.6"/>
				<rect x="98" y="85.3" class="st24" width="8" height="6.6"/>
				<rect x="98" y="92" class="st25" width="8" height="6.6"/>
				<rect x="90.1" y="92" class="st24" width="8" height="6.6"/>
				<rect x="90.1" y="72.1" class="st26" width="8" height="6.6"/>
				<rect x="90.1" y="78.7" class="st25" width="8" height="6.6"/>
				<rect x="90.1" y="85.3" class="st24" width="8" height="6.6"/>
				<rect x="82.1" y="72.1" class="st28" width="8" height="6.6"/>
				<rect x="82.1" y="78.7" class="st26" width="8" height="6.6"/>
				<rect x="82.1" y="72.1" class="st24" width="8" height="6.6"/>
				<rect x="82.1" y="85.3" class="st26" width="8" height="6.6"/>
				<rect x="82.1" y="92" class="st24" width="8" height="6.6"/>
				<rect x="74.2" y="72.1" class="st27" width="8" height="6.6"/>
				<rect x="74.2" y="78.7" class="st25" width="8" height="6.6"/>
				<rect x="74.2" y="92" class="st28" width="8" height="6.6"/>
				<rect x="74.2" y="85.3" class="st24" width="8" height="6.6"/>
			</g>
			<g>
				<defs>
					<rect id="SVGID_14_" x="72.4" y="70.3" width="39.8" height="26.5"/>
				</defs>
				<clipPath id="SVGID_15_">
					<use xlink:href="#SVGID_14_"  style="overflow:visible;"/>
				</clipPath>
				<rect x="104.2" y="76.9" class="st29" width="8" height="6.6"/>
				<rect x="104.2" y="70.3" class="st30" width="8" height="6.6"/>
				<rect x="104.2" y="83.6" class="st31" width="8" height="6.6"/>
				<rect x="104.2" y="90.2" class="st32" width="8" height="6.6"/>
				<rect x="96.3" y="70.3" class="st31" width="8" height="6.6"/>
				<rect x="96.3" y="76.9" class="st30" width="8" height="6.6"/>
				<rect x="96.3" y="83.6" class="st29" width="8" height="6.6"/>
				<rect x="96.3" y="90.2" class="st30" width="8" height="6.6"/>
				<rect x="88.3" y="90.2" class="st29" width="8" height="6.6"/>
				<rect x="88.3" y="70.3" class="st31" width="8" height="6.6"/>
				<rect x="88.3" y="76.9" class="st30" width="8" height="6.6"/>
				<rect x="88.3" y="83.6" class="st29" width="8" height="6.6"/>
				<rect x="80.4" y="70.3" class="st33" width="8" height="6.6"/>
				<rect x="80.4" y="76.9" class="st31" width="8" height="6.6"/>
				<rect x="80.4" y="70.3" class="st29" width="8" height="6.6"/>
				<rect x="80.4" y="83.6" class="st31" width="8" height="6.6"/>
				<rect x="80.4" y="90.2" class="st29" width="8" height="6.6"/>
				<rect x="72.4" y="70.3" class="st32" width="8" height="6.6"/>
				<rect x="72.4" y="76.9" class="st30" width="8" height="6.6"/>
				<rect x="72.4" y="90.2" class="st33" width="8" height="6.6"/>
				<rect x="72.4" y="83.6" class="st29" width="8" height="6.6"/>
			</g>
		</g>
	</g>
	<g class="st0">
		<rect x="234.3" y="24" class="st2" width="39.8" height="26.5"/>
		<g>
			<g class="st3">
				<defs>
					<rect id="SVGID_16_" x="236.1" y="25.8" class="st3" width="39.8" height="26.5"/>
				</defs>
				<clipPath id="SVGID_17_">
					<use xlink:href="#SVGID_16_"  style="overflow:visible;"/>
				</clipPath>
				<rect x="236.1" y="39" class="st34" width="8" height="6.6"/>
				<rect x="236.1" y="32.4" class="st35" width="8" height="6.6"/>
				<rect x="236.1" y="25.8" class="st34" width="8" height="6.6"/>
				<rect x="244" y="45.7" class="st35" width="8" height="6.6"/>
				<rect x="244" y="39" class="st36" width="8" height="6.6"/>
				<rect x="244" y="32.4" class="st37" width="8" height="6.6"/>
				<rect x="244" y="25.8" class="st35" width="8" height="6.6"/>
				<rect x="252" y="45.7" class="st37" width="8" height="6.6"/>
				<rect x="252" y="39" class="st35" width="8" height="6.6"/>
				<rect x="252" y="32.4" class="st35" width="8" height="6.6"/>
				<rect x="260" y="45.7" class="st35" width="8" height="6.6"/>
				<rect x="260" y="39" class="st37" width="8" height="6.6"/>
				<rect x="260" y="32.4" class="st36" width="8" height="6.6"/>
				<rect x="260" y="25.8" class="st35" width="8" height="6.6"/>
				<rect x="267.9" y="45.7" class="st36" width="8" height="6.6"/>
				<rect x="267.9" y="39" class="st35" width="8" height="6.6"/>
				<rect x="267.9" y="25.8" class="st37" width="8" height="6.6"/>
			</g>
			<g>
				<defs>
					<rect id="SVGID_18_" x="234.3" y="24" width="39.8" height="26.5"/>
				</defs>
				<clipPath id="SVGID_19_">
					<use xlink:href="#SVGID_18_"  style="overflow:visible;"/>
				</clipPath>
				<rect x="234.3" y="37.3" class="st38" width="8" height="6.6"/>
				<rect x="234.3" y="30.6" class="st39" width="8" height="6.6"/>
				<rect x="234.3" y="24" class="st38" width="8" height="6.6"/>
				<rect x="242.3" y="43.9" class="st39" width="8" height="6.6"/>
				<rect x="242.3" y="37.3" class="st40" width="8" height="6.6"/>
				<rect x="242.3" y="30.6" class="st41" width="8" height="6.6"/>
				<rect x="242.3" y="24" class="st39" width="8" height="6.6"/>
				<rect x="250.2" y="43.9" class="st41" width="8" height="6.6"/>
				<rect x="250.2" y="37.3" class="st39" width="8" height="6.6"/>
				<rect x="250.2" y="30.6" class="st39" width="8" height="6.6"/>
				<rect x="258.2" y="43.9" class="st39" width="8" height="6.6"/>
				<rect x="258.2" y="37.3" class="st41" width="8" height="6.6"/>
				<rect x="258.2" y="30.6" class="st40" width="8" height="6.6"/>
				<rect x="258.2" y="24" class="st39" width="8" height="6.6"/>
				<rect x="266.2" y="43.9" class="st40" width="8" height="6.6"/>
				<rect x="266.2" y="37.3" class="st39" width="8" height="6.6"/>
				<rect x="266.2" y="24" class="st41" width="8" height="6.6"/>
			</g>
		</g>
	</g>
</g>
</svg>
