<?xml version="1.0" encoding="utf-8"?>
<!-- Generator: Adobe Illustrator 19.1.0, SVG Export Plug-In . SVG Version: 6.00 Build 0)  -->
<svg version="1.1" id="Layer_1" xmlns="http://www.w3.org/2000/svg" xmlns:xlink="http://www.w3.org/1999/xlink" x="0px" y="0px"
	 viewBox="0 0 125 135" style="enable-background:new 0 0 125 135;" xml:space="preserve">
<style type="text/css">
	.st0{fill:#FFFFFF;}
	.st1{fill:#EAEAEA;stroke:#EAEAEA;stroke-width:2;stroke-miterlimit:10;}
	.st2{clip-path:url(#SVGID_2_);}
	.st3{fill:#EAEAEA;}
	.st4{fill:#5892CE;}
</style>
<g>
	<g>
		<circle class="st0" cx="11.3" cy="117.1" r="10.3"/>
		<g>
			<circle class="st1" cx="67.8" cy="108.3" r="11.7"/>
			<circle class="st0" cx="64.5" cy="110.6" r="13.4"/>
		</g>
		<g>
			<circle class="st1" cx="34.4" cy="95.5" r="12.6"/>
			<circle class="st0" cx="36.5" cy="100.3" r="15.6"/>
		</g>
		<g>
			<circle class="st1" cx="19.8" cy="104.8" r="8"/>
			<circle class="st0" cx="19.9" cy="107.7" r="10.3"/>
		</g>
		<g>
			<g>
				<g>
					<defs>
						
							<rect id="SVGID_1_" x="49" y="53.9" transform="matrix(0.7997 0.6004 -0.6004 0.7997 61.243 -22.4702)" width="30.7" height="53.3"/>
					</defs>
					<clipPath id="SVGID_2_">
						<use xlink:href="#SVGID_1_"  style="overflow:visible;"/>
					</clipPath>
					<g class="st2">
						<polyline class="st0" points="38.6,108.4 70.3,59.8 82.8,69.2 45,113.2 						"/>
						<path class="st3" d="M38.6,108.4c1.2-2.1,2.4-4.2,3.6-6.3l3.7-6.3c1.2-2.1,2.5-4.1,3.7-6.2l3.8-6.2l3.8-6.2l3.9-6.1
							c1.3-2,2.6-4.1,3.9-6.1l3.9-6.1l1-1.6l1.5,1.1l6.3,4.7l6.3,4.7l1.5,1.1l-1.2,1.4l-4.8,5.5l-4.8,5.4l-4.8,5.4l-4.9,5.4L60,97.4
							c-1.6,1.8-3.2,3.6-4.9,5.3l-5,5.3c-1.7,1.8-3.3,3.5-5,5.2l-0.2-0.1l37.8-44l0,0.3L70.2,60l0.3,0l-31.7,48.5L38.6,108.4z"/>
					</g>
				</g>
				<polyline class="st3" points="95.4,49.2 55.3,92.6 85.9,42.1 				"/>
				<polyline class="st0" points="100,43 68.1,75.5 90.6,35.9 				"/>
			</g>
			<path class="st4" d="M104.5,71.5c2.3-8.1-1.4-14.7-2.1-16c4.5-4.7,11.6-13.2,16.4-25.8c4.4-11.6,5.1-21.8,5.1-28.2
				c-6.1,1.7-15.8,5.2-25.6,12.7C87.5,22.4,81.3,31.5,78,37.2c-1.4-0.3-8.7-2-15.9,2.5c-8.4,5.2-9.5,14.4-9.6,15.5
				c1.9-1,4.9-2.3,8.9-2.7c3.5-0.4,6.4,0,8.4,0.4c-0.9,2.3-1.8,4.6-2.7,6.8c2.7,2.2,5.5,4.4,8.2,6.5c2.9,2,5.7,4,8.6,6.1
				c1.9-1.5,3.9-3,5.8-4.5c0.9,1.8,2.1,4.5,2.7,8c0.7,3.9,0.3,7.2-0.2,9.3C93.3,84.6,101.8,81,104.5,71.5z M96.3,38.3
				c-2.9-2.2-3.5-6.3-1.3-9.2c2.2-2.9,6.3-3.5,9.2-1.3c2.9,2.2,3.5,6.3,1.3,9.2C103.3,39.9,99.2,40.4,96.3,38.3z"/>
		</g>
		<g>
			<circle class="st1" cx="36.4" cy="103.4" r="9.4"/>
			<circle class="st0" cx="34.3" cy="106" r="12"/>
		</g>
		<g>
			<circle class="st1" cx="52" cy="112.1" r="9.4"/>
			<circle class="st0" cx="51.7" cy="115.4" r="12"/>
		</g>
		<g>
			<circle class="st1" cx="34.9" cy="117.7" r="11.7"/>
			<circle class="st0" cx="32.8" cy="120.1" r="13.4"/>
		</g>
	</g>
</g>
</svg>
