<?xml version="1.0" encoding="utf-8"?>
<!-- Generator: Adobe Illustrator 19.1.0, SVG Export Plug-In . SVG Version: 6.00 Build 0)  -->
<svg version="1.1" id="Layer_1" xmlns="http://www.w3.org/2000/svg" xmlns:xlink="http://www.w3.org/1999/xlink" x="0px" y="0px"
	 viewBox="0 0 1000 400" style="enable-background:new 0 0 1000 400;" xml:space="preserve">
<style type="text/css">
	.st0{opacity:0.7;fill:url(#SVGID_1_);}
	.st1{opacity:0.7;fill:url(#SVGID_2_);}
	.st2{fill:#FFFFFF;}
	.st3{opacity:0.6;fill:#FFFFFF;}
	.st4{opacity:0.2;fill:#FFFFFF;}
	.st5{opacity:0.7;}
</style>
<g>
	<linearGradient id="SVGID_1_" gradientUnits="userSpaceOnUse" x1="755.5167" y1="400" x2="755.5167" y2="399.9655">
		<stop  offset="0" style="stop-color:#FFFFFF;stop-opacity:0"/>
		<stop  offset="0.4941" style="stop-color:#FFFFFF;stop-opacity:0.761"/>
		<stop  offset="0.5" style="stop-color:#FFFFFF;stop-opacity:0.77"/>
		<stop  offset="1" style="stop-color:#FFFFFF;stop-opacity:0"/>
	</linearGradient>
	<path class="st0" d="M756.2,400c-0.2,0-0.4,0-0.6,0c-0.3,0-0.5,0-0.8,0H756.2z"/>
	<linearGradient id="SVGID_2_" gradientUnits="userSpaceOnUse" x1="500" y1="400" x2="500" y2="-2.061097e-008">
		<stop  offset="0" style="stop-color:#FFFFFF;stop-opacity:0"/>
		<stop  offset="0.4941" style="stop-color:#FFFFFF;stop-opacity:0.761"/>
		<stop  offset="0.5" style="stop-color:#FFFFFF;stop-opacity:0.77"/>
		<stop  offset="1" style="stop-color:#FFFFFF;stop-opacity:0"/>
	</linearGradient>
	<path class="st1" d="M1000,398.5l-29.2-17.4c0.6-1.4,1-2.9,1-4.5c0-2.8-1.1-5.4-2.9-7.3l31.1-36v-3.1L967.4,368
		c-1.7-1.2-3.8-1.9-6.1-1.9c-0.1,0-0.2,0-0.3,0l-11.6-94.4c2.2-0.5,4.1-1.6,5.5-3.2l45,33.4v-2.5l-43.8-32.5c1-1.6,1.5-3.4,1.5-5.4
		c0-2-0.6-3.9-1.6-5.5l43.9-33.1v-2.5l-45.1,34c-1.7-1.9-4.1-3.1-6.7-3.4v-85.6c3.1-0.3,5.8-1.9,7.5-4.4l44.3,25.7v-2.3l-43.3-25.1
		c0.6-1.3,1-2.8,1-4.4c0-1.9-0.5-3.7-1.4-5.3l43.8-31.5v-2.5l-44.9,32.3c-1.6-1.8-3.7-3-6.1-3.4l5.6-76.9c3.1-0.1,5.9-1.5,7.8-3.8
		l37.6,25.8v-2.5l-36.5-25c0.8-1.5,1.3-3.2,1.3-5.1c0-1.2-0.2-2.3-0.6-3.4l35.7-16.2v-2.2l-36.6,16.6c-1.6-2.7-4.3-4.6-7.4-5.1
		L959.1,0h-2l-3,46.5c-3.3,0.1-6.1,1.7-8,4.1l-52.2-32.7c0.7-1.4,1.1-3,1.1-4.7c0-1.2-0.2-2.3-0.6-3.4L915.9,0H911l-17.5,7.9
		c-1.7-2.9-4.6-4.9-8.1-5.3V0h-2v2.6c-2.8,0.3-5.3,1.6-7,3.6L867.5,0h-3.5l11.3,7.9c-0.9,1.5-1.4,3.3-1.4,5.2c0,2,0.6,3.9,1.6,5.5
		l-46.3,35.1c-1.7-1.9-4.1-3.1-6.7-3.4V0h-2v50.3c-2.4,0.2-4.5,1.2-6.1,2.8L772,15.5c1.3-1.7,2-3.9,2-6.2c0-1.9-0.5-3.6-1.3-5.1
		l5.9-4.1H775l-3.5,2.4c-0.8-1-1.9-1.8-3-2.4h-10.1c-1.1,0.6-2.2,1.4-3,2.4L751.9,0h-3.6l5.9,4.1c-0.9,1.5-1.3,3.3-1.3,5.1
		c0,2.3,0.7,4.4,2,6.1l-47.5,41.2c-1.7-1.6-3.8-2.6-6.2-2.9V0h-2v53.7c-2.5,0.2-4.7,1.3-6.4,3l-51.2-42.5c0.8-1.5,1.3-3.2,1.3-5
		c0-1.5-0.3-2.9-0.8-4.1l7.7-5.1H646l-5,3.3C640,2,638.8,0.8,637.3,0h-10.1c-0.9,0.5-1.7,1.1-2.4,1.8L622.1,0h-3.6l5,3.4
		c-1.1,1.7-1.8,3.7-1.8,5.9c0,2.3,0.7,4.4,2,6.1L582,51.9c-1.9-1.8-4.4-2.9-7.2-2.9c0,0-0.1,0-0.1,0l-5.3-49h-2l5.3,49.2
		c-2.7,0.6-5,2.1-6.5,4.3L513.1,24c0.6-1.3,0.9-2.7,0.9-4.2c0-2.4-0.8-4.7-2.2-6.5l14-13.3h-2.9l-12.4,11.8
		c-1.6-1.4-3.6-2.3-5.9-2.5V0h-2v9.3c-2.7,0.3-5.1,1.5-6.8,3.4L478.7,0h-3.4l19.1,14.3c-1,1.6-1.5,3.5-1.5,5.5
		c0,1.9,0.5,3.6,1.3,5.1l-50.9,35.2c-1.8-2.1-4.3-3.5-7.2-3.7L435.5,0h-2l0.7,56.5c-2.5,0.3-4.8,1.4-6.5,3.2l-48.8-38.5
		c1.1-1.6,1.7-3.6,1.7-5.7c0-2-0.6-3.9-1.5-5.4l13.4-10h-3.4l-11.3,8.4c-1.9-2.1-4.7-3.5-7.8-3.5c-0.1,0-0.1,0-0.2,0L369.3,0h-2
		l0.6,5.2c-2.5,0.5-4.7,2-6.2,4L346.4,0h-3.9l18.2,10.9c-0.7,1.4-1,2.9-1,4.5c0,1.2,0.2,2.3,0.6,3.4l-57.4,26.1
		c-1.6-2.7-4.3-4.6-7.4-5.1L297.9,0h-2l-2.6,39.7c-2.8,0.1-5.4,1.3-7.2,3.2l-38.6-30.8c1.1-1.7,1.7-3.6,1.7-5.7c0-1.5-0.3-3-0.9-4.3
		l3.7-2.1h-4.1l-0.5,0.3c-0.1-0.1-0.1-0.2-0.2-0.3h-18.8l1.3,1c-0.9,1.6-1.5,3.4-1.5,5.3c0,1.6,0.4,3.1,1,4.5l-51.3,30.6
		c-0.8-0.3-1.7-0.5-2.6-0.6V0h-2v40.8c-2.7,0.3-5.1,1.5-6.8,3.5L113.1,5.1c0.9-1.5,1.4-3.3,1.5-5.1H93.5c0.1,2.2,0.8,4.2,1.9,5.8
		L48,47c-1.7-1.6-3.8-2.6-6.2-2.9V0h-2v44.2c-2.5,0.2-4.8,1.4-6.5,3.1L0,20.4V23l31.9,25.8c-1.1,1.7-1.7,3.7-1.7,5.8
		c0,1.9,0.5,3.7,1.4,5.2L0,82v2.5l32.7-22.9c1.6,1.9,4,3.2,6.6,3.6l-3.1,79.7c-2.2,0.1-4.2,0.9-5.9,2.2L0,115v3l28.8,30.5
		c-1.6,1.9-2.6,4.3-2.6,6.9c0,1.2,0.2,2.4,0.6,3.4L0,171v2.2l27.6-12.6c1.6,2.8,4.4,4.7,7.7,5.2l-2.9,73.1c-2.3,0.1-4.5,1-6.2,2.4
		L0,215.3v2.8l24.9,24.5c-1.5,1.8-2.4,4.1-2.4,6.6c0,2.2,0.7,4.3,1.9,6L0,276v2.7l25.7-21.7c1.9,1.8,4.4,2.9,7.2,3l6,77.1
		c-2.4,0.4-4.4,1.6-6,3.3L0,315.7v2.5l31.7,23.7c-1,1.6-1.5,3.5-1.5,5.5c0,2.4,0.8,4.5,2.1,6.3L0,382.9v2.7l33.6-30.5
		c1.9,1.7,4.4,2.8,7.1,2.8c2.6,0,5-1,6.8-2.5l40.4,39.1c-1.2,1.6-2,3.5-2.2,5.6h21c-0.1-1-0.3-2-0.7-2.9l55.7-28.7
		c1.9,2.9,5.1,4.8,8.9,4.8c2.5,0,4.8-0.9,6.7-2.4L206,400h2.9l-30.2-30.6c1.5-1.8,2.4-4.2,2.4-6.7c0-2.2-0.7-4.3-1.9-6l42.6-36.2
		c1.9,1.8,4.4,2.9,7.2,3L235,400h2l-6.2-76.8c2.2-0.4,4.1-1.4,5.6-3l55.2,45.1c-1.1,1.7-1.8,3.7-1.8,5.8c0,2.5,0.9,4.8,2.3,6.6
		L269.5,400h2.9l21.3-20.8c1.8,1.6,4.2,2.5,6.8,2.5c5.8,0,10.5-4.7,10.5-10.5c0-2.8-1.1-5.4-2.9-7.3l41.5-48
		c1.7,1.2,3.8,1.9,6.1,1.9c2.9,0,5.6-1.2,7.5-3.1l55.5,45.1c-1.1,1.7-1.8,3.7-1.8,5.8c0,5.8,4.7,10.5,10.5,10.5
		c5.8,0,10.5-4.7,10.5-10.5c0-2.3-0.7-4.3-1.9-6l58.1-49.7c1.9,1.8,4.5,3,7.3,3c2.8,0,5.3-1.1,7.2-2.8l57.6,51.2
		c-1.3,1.7-2,3.9-2,6.2c0,5.8,4.7,10.5,10.5,10.5c5.8,0,10.5-4.7,10.5-10.5c0-2.5-0.9-4.9-2.4-6.7l44.8-44.7
		c1.8,1.5,4.2,2.4,6.7,2.4c3.1,0,5.9-1.3,7.8-3.5l48.9,36.5c-1,1.6-1.5,3.5-1.5,5.5c0,5.8,4.7,10.5,10.5,10.5c2.6,0,5-1,6.8-2.5
		l36.3,35.1h2.9l-37.8-36.6c1.4-1.8,2.3-4.1,2.3-6.6c0-1.6-0.4-3.2-1-4.5l41.5-25c1.9,2.6,5,4.3,8.5,4.3c3,0,5.7-1.3,7.6-3.3
		l41.5,32.4c-1,1.6-1.7,3.6-1.7,5.7c0,1.9,0.5,3.7,1.4,5.2L768.6,400h3.5l37.6-26.7c1.9,2.2,4.8,3.6,8,3.6c2.8,0,5.4-1.1,7.3-3
		l30.4,26h3.1l-32.2-27.5c1.2-1.7,1.9-3.8,1.9-6c0-2.2-0.6-4.2-1.8-5.8l46.4-37.6c1.8,1.8,4.2,3,6.9,3.1l2.8,73.9h2l-2.8-74
		c2.5-0.3,4.7-1.5,6.3-3.3l64.2,48.4c-1,1.6-1.6,3.5-1.6,5.5c0,1.6,0.4,3.2,1.1,4.6L920.9,400h3.9l28-17.1c1.9,2.6,5,4.2,8.4,4.2
		c3.5,0,6.6-1.7,8.5-4.3l28.7,17.2h1.5V398.5z M952.5,67.4l-5.6,76.9c-3,0.1-5.6,1.3-7.5,3.4l-52.2-39.9c1-1.6,1.6-3.5,1.6-5.6
		c0-1.6-0.4-3.1-1-4.5l58-34.5C947.4,65.4,949.8,66.9,952.5,67.4z M887.7,207.6l52.2-45.1c1.7,1.6,3.8,2.6,6.3,2.9v85.6
		c-2.8,0.3-5.3,1.6-7,3.6l-50.9-35.7c0.9-1.5,1.4-3.3,1.4-5.2C889.6,211.4,888.9,209.3,887.7,207.6z M884.7,23.6
		c3.3-0.1,6.2-1.7,8-4.1l52.2,32.7c-0.7,1.4-1.1,3-1.1,4.7c0,1.6,0.4,3.1,1,4.5l-58,34.5c-1.6-2.2-4-3.7-6.8-4.2L884.7,23.6z
		 M876.7,20.2c1.6,1.7,3.6,2.9,6,3.2L878,91.7c-3,0.1-5.7,1.4-7.6,3.5l-39.9-29c0.9-1.6,1.5-3.4,1.5-5.3c0-2-0.6-3.9-1.6-5.5
		L876.7,20.2z M825.1,152.8l46.2-42.7c1.6,1.5,3.7,2.4,6,2.6v90.6c-2.1,0.4-3.9,1.3-5.4,2.7l-46.6-40.7c1.2-1.7,2-3.8,2-6.1
		C827.2,156.8,826.4,154.6,825.1,152.8z M821.9,71.3c2.9-0.1,5.5-1.5,7.4-3.5l39.9,29c-0.9,1.6-1.5,3.4-1.5,5.3
		c0,2.4,0.8,4.6,2.2,6.4l-46.2,42.7c-1.5-1.3-3.4-2.3-5.5-2.6L821.9,71.3z M815.5,69.5c1.3,0.9,2.8,1.5,4.4,1.7l-3.7,77.4
		c-2.8,0.1-5.2,1.3-7,3.2l-36.9-29.6c1.1-1.7,1.7-3.6,1.7-5.8c0-2.4-0.8-4.6-2.2-6.4L815.5,69.5z M768.1,204.7l41.5-37.7
		c1.7,1.5,3.9,2.5,6.3,2.7l1.9,79.6c-2.4,0.3-4.6,1.4-6.2,3l-43.2-35.4c1.1-1.7,1.8-3.7,1.8-5.9
		C770.2,208.6,769.4,206.5,768.1,204.7z M764.5,19.7c2.4-0.2,4.5-1.2,6.1-2.8l42.3,37.7c-1.3,1.7-2,3.9-2,6.2c0,2.9,1.2,5.5,3,7.4
		l-43.5,40.4c-1.6-1.4-3.7-2.4-6-2.6V19.7z M771,123.9l36.9,29.6c-1.1,1.7-1.7,3.6-1.7,5.8c0,2.4,0.8,4.5,2.1,6.3l-41.5,37.7
		c-1.5-1.4-3.5-2.3-5.6-2.6l3-73.5C766.8,126.9,769.2,125.7,771,123.9z M756.2,16.9c1.7,1.6,3.8,2.6,6.2,2.9V106
		c-2.5,0.2-4.7,1.3-6.4,3l-47.1-39c1.1-1.7,1.8-3.7,1.8-5.9c0-2.3-0.7-4.4-2-6.1L756.2,16.9z M700.7,74.7c2.7-0.2,5.1-1.3,6.8-3
		l47.1,39c-1.1,1.7-1.8,3.7-1.8,5.9c0,1.9,0.5,3.7,1.4,5.3l-50.3,36.1c-1.6-1.9-3.9-3.1-6.5-3.5L700.7,74.7z M750.5,216.3L700.4,252
		c-1.6-1.9-3.9-3.2-6.5-3.5l2.9-73.1c2.9-0.2,5.5-1.5,7.3-3.5l46.5,33.8c-0.9,1.6-1.5,3.4-1.5,5.3
		C749.1,212.9,749.6,214.7,750.5,216.3z M620,202.1l-34,31.5c-1.3-1.1-2.8-2-4.5-2.4v-68.3c2.3-0.2,4.4-1.2,6.1-2.7l32.3,29.2
		c-1.3,1.8-2.1,3.9-2.1,6.3C617.9,198.1,618.7,200.3,620,202.1z M589,158.7c1.3-1.8,2.1-3.9,2.1-6.3c0-2.1-0.6-4-1.6-5.6l43.4-33.6
		c1.4,1.5,3.2,2.6,5.3,3l-9.3,69c-0.1,0-0.3,0-0.4,0c-2.7,0-5.2,1.1-7.1,2.8L589,158.7z M640.1,116.5c0.1,0,0.3,0,0.4,0
		c2.4,0,4.7-0.8,6.5-2.2l41.3,43.6c-1.6,1.9-2.6,4.3-2.6,6.9c0,1.2,0.2,2.4,0.6,3.4l-48.7,22.2c-1.4-2.5-3.8-4.3-6.7-5L640.1,116.5z
		 M639,195.7c0-1.2-0.2-2.4-0.6-3.4l48.7-22.2c1.6,2.8,4.4,4.7,7.7,5.2l-2.9,73.1c-2.3,0.1-4.5,1-6.2,2.4l-49.1-48.4
		C638.1,200.5,639,198.2,639,195.7z M698.7,74.6l-3.1,79.7c-2.2,0.1-4.2,0.9-5.9,2.2l-41.3-43.6c1.6-1.9,2.6-4.3,2.6-6.9
		c0-1.9-0.5-3.7-1.4-5.2L692.1,71C693.8,73,696.1,74.3,698.7,74.6z M640.4,15.9l51,42.3c-1.1,1.7-1.8,3.7-1.8,5.9
		c0,1.9,0.5,3.7,1.4,5.2l-42.5,29.7c-1.9-2.2-4.6-3.6-7.7-3.7l-5.2-76.2C637.5,18.6,639.1,17.4,640.4,15.9z M625,16.9
		c1.9,1.8,4.4,2.9,7.2,2.9c0.5,0,0.9,0,1.4-0.1l5.2,75.9c-2.5,0.4-4.7,1.7-6.2,3.5L584,64.8c0.9-1.5,1.4-3.3,1.4-5.2
		c0-2.3-0.7-4.4-2-6.1L625,16.9z M582.8,66.4l48.5,34.3c-0.9,1.5-1.4,3.3-1.4,5.2c0,2.1,0.6,4,1.6,5.6l-43.4,33.6
		c-1.8-2-4.4-3.2-7.3-3.3l-4.4-71.9C579,69.5,581.2,68.3,582.8,66.4z M567.1,66.7c1.8,2,4.4,3.3,7.4,3.4l4.4,71.9
		c-3,0.5-5.5,2.2-7.1,4.6l-56.9-30.1c0.5-1.2,0.8-2.6,0.8-4c0-2-0.6-3.8-1.5-5.4L567.1,66.7z M512.1,25.8l53.1,29.5
		c-0.6,1.3-0.9,2.7-0.9,4.2c0,2,0.6,3.9,1.6,5.5L513,105.4c-1.7-1.9-4.1-3.2-6.9-3.5l-1.4-71.7C507.8,29.9,510.4,28.2,512.1,25.8z
		 M495.4,26.6c1.8,2.1,4.3,3.5,7.2,3.7l1.4,71.7c-2.9,0.3-5.4,1.8-7.2,3.9l-52.2-34c0.8-1.5,1.2-3.1,1.2-4.9c0-1.9-0.5-3.6-1.3-5.1
		L495.4,26.6z M435.5,77.5c3.3-0.1,6.2-1.6,8.1-4l52.2,34c-0.8,1.5-1.2,3.1-1.2,4.9c0,1.1,0.2,2.2,0.5,3.2l-56.6,23.2
		c-1.5-2.8-4.2-4.9-7.5-5.5L435.5,77.5z M433.5,77.3l-4.5,55.9c-3.2,0.1-6,1.5-7.9,3.7l-52.4-36.4c0.9-1.5,1.3-3.3,1.3-5.1
		c0-0.9-0.1-1.9-0.4-2.7l56.2-21.1C427.3,74.5,430.1,76.7,433.5,77.3z M375,189.8l46.7-38.6c1.8,1.8,4.2,2.9,6.9,3.1l3.9,83.6
		c-2.7,0.4-5.2,1.8-6.8,3.9l-50.6-40.4c1.1-1.7,1.7-3.6,1.7-5.7C376.8,193.5,376.2,191.5,375,189.8z M357.3,201.2l-63.1,47.6
		c-1.7-1.9-4.1-3.1-6.7-3.4v-87c3.1-0.3,5.7-1.9,7.5-4.2l61.9,36.9c-0.6,1.4-1,2.9-1,4.5C355.7,197.7,356.3,199.6,357.3,201.2z
		 M295.9,152.5c0.6-1.4,1-2.9,1-4.5c0-1.9-0.5-3.7-1.4-5.3l56.1-40.4c1.9,2.1,4.6,3.5,7.6,3.6l5.3,79.4c-2.8,0.5-5.2,2-6.8,4.1
		L295.9,152.5z M361.3,105.8c2.5-0.4,4.7-1.7,6.3-3.6l52.4,36.4c-0.9,1.5-1.3,3.3-1.3,5.1c0,2.2,0.7,4.2,1.8,5.9l-46.7,38.6
		c-1.8-1.8-4.4-3-7.1-3.1L361.3,105.8z M369.7,26c0.1,0,0.2,0,0.4,0c3,0,5.7-1.3,7.6-3.3l48.8,38.5c-1.1,1.6-1.7,3.6-1.7,5.7
		c0,0.9,0.1,1.9,0.4,2.7L369,90.8c-1.4-2.8-4-4.9-7.1-5.6L369.7,26z M303.5,46.8L361,20.7c1.4,2.5,3.9,4.3,6.8,5l-7.8,59.2
		c-0.1,0-0.2,0-0.4,0c-3.2,0-6.1,1.5-8.1,3.8l-48.7-33.4c0.8-1.5,1.3-3.2,1.3-5.1C304.1,49,303.9,47.9,303.5,46.8z M293.8,60.7
		c3.1-0.1,5.9-1.5,7.8-3.8l48.7,33.4c-0.8,1.5-1.3,3.2-1.3,5.1c0,1.9,0.5,3.7,1.4,5.3l-56.1,40.4c-1.6-1.8-3.7-3-6.1-3.4L293.8,60.7
		z M291.8,60.6l-5.6,76.9c-2.5,0.1-4.8,1-6.6,2.5l-38.9-38c1.5-1.8,2.3-4.1,2.3-6.6c0-2-0.6-3.8-1.5-5.4l44.3-32.8
		C287.3,59,289.4,60.2,291.8,60.6z M235,195.2l44.3-39.5c1.6,1.5,3.8,2.5,6.1,2.8v87c-1.9,0.2-3.7,0.9-5.2,2L235,207.6
		c1.3-1.7,2-3.9,2-6.2C237,199.1,236.3,197,235,195.2z M177.8,143.2l47.3-40.2c1.5,1.5,3.5,2.5,5.7,2.8l-4.8,85.1
		c-2.5,0.1-4.7,1-6.5,2.6l-40.8-38.9c0.8-1.5,1.2-3.1,1.2-4.9C180,147.2,179.2,145,177.8,143.2z M232.9,105.9c2.4-0.1,4.6-1,6.4-2.5
		l38.9,38c-1.5,1.8-2.3,4.1-2.3,6.6c0,2.3,0.8,4.5,2,6.2l-44.3,39.5c-1.5-1.4-3.4-2.4-5.5-2.7L232.9,105.9z M246.2,13.7l38.6,30.8
		c-1.1,1.7-1.7,3.6-1.7,5.7c0,2,0.6,3.8,1.5,5.4l-44.3,32.8c-1.6-1.7-3.7-2.9-6.1-3.3l4.7-68.2C241.7,16.8,244.3,15.6,246.2,13.7z
		 M230.1,12.6c1.6,2.2,4,3.7,6.7,4.1l-4.7,68.2c-2.9,0.1-5.5,1.3-7.3,3.3L183.7,56c0.7-1.4,1.1-3,1.1-4.7c0-3.7-1.9-6.9-4.8-8.8
		L230.1,12.6z M174.7,61.8c3.2-0.2,6-1.7,7.9-4.1l41,32c-1,1.6-1.7,3.6-1.7,5.7c0,2.2,0.7,4.3,1.9,6l-47.4,40.3
		c-1.5-1.3-3.3-2.2-5.4-2.4L174.7,61.8z M105.1,10.2c2.7-0.3,5.1-1.5,6.8-3.5l53.3,39.2c-0.9,1.6-1.5,3.4-1.5,5.4
		c0,2.1,0.6,4.1,1.7,5.7l-53.7,42.6c-1.7-1.8-4-2.9-6.6-3.2V10.2z M112.3,113.6l47.9,31.2c-0.8,1.5-1.2,3.1-1.2,4.9
		c0,2,0.6,3.9,1.5,5.5L108,194.4c-1.6-1.8-3.8-3-6.3-3.3l3-73.5C107.7,117.3,110.5,115.9,112.3,113.6z M42.2,244.1l50.1-35.7
		c1.7,2,4.2,3.3,6.9,3.6v89.1c-2.3,0.2-4.4,1.2-6,2.6l-51.8-48c1.4-1.8,2.2-4,2.2-6.4C43.6,247.5,43.1,245.7,42.2,244.1z
		 M92.3,194.5l-46.5-33.8c0.9-1.6,1.5-3.4,1.5-5.3c0-1.9-0.5-3.7-1.4-5.3l50.3-36.1c1.6,1.9,3.9,3.1,6.5,3.5l-3,73.5
		C96.7,191.1,94.2,192.5,92.3,194.5z M101.2,212c2.7-0.3,5.1-1.6,6.8-3.5l52.3,38.3c-0.9,1.6-1.5,3.4-1.5,5.4c0,2.3,0.7,4.3,1.9,6.1
		L107.5,304c-1.7-1.6-3.9-2.7-6.3-2.9V212z M109.3,206.9c0.9-1.6,1.5-3.4,1.5-5.4c0-2-0.6-3.9-1.5-5.5l52.5-39.3
		c1.7,1.9,4.1,3.1,6.8,3.4v81.6c-2.7,0.3-5.1,1.6-6.8,3.5L109.3,206.9z M96.8,7.4c1.7,1.6,3.8,2.6,6.2,2.9v86.3
		c-2.5,0.2-4.7,1.3-6.4,3l-47.1-39c1.1-1.7,1.8-3.7,1.8-5.9c0-2.3-0.7-4.4-2-6.1L96.8,7.4z M41.3,65.2c2.7-0.2,5.1-1.3,6.8-3
		l47.1,39c-1.1,1.7-1.8,3.7-1.8,5.9c0,1.9,0.5,3.7,1.4,5.3l-50.3,36.1c-1.6-1.9-3.9-3.1-6.5-3.5L41.3,65.2z M37.3,165.8
		c2.9-0.2,5.5-1.5,7.3-3.5l46.5,33.8c-0.9,1.6-1.5,3.4-1.5,5.3c0,1.9,0.5,3.7,1.4,5.3L41,242.5c-1.6-1.9-3.9-3.2-6.5-3.5L37.3,165.8
		z M40.9,336.8l-6-77.1c2-0.3,3.7-1.2,5.2-2.5l51.8,48c-1.4,1.8-2.2,4-2.2,6.4c0,1.6,0.4,3.2,1,4.5l-41.5,25
		C47.3,338.6,44.3,336.9,40.9,336.8z M89.3,393L49,353.9c1.4-1.8,2.3-4.1,2.3-6.6c0-1.6-0.4-3.2-1-4.5l41.5-25
		c1.6,2.2,4.1,3.8,7,4.2l-3.1,68.4C93.2,390.6,91,391.5,89.3,393z M160.7,366.6L105,395.3c-1.6-2.5-4.3-4.3-7.4-4.7l3.1-68.4
		c2.9-0.1,5.5-1.5,7.3-3.5l53.3,38.7c-0.9,1.6-1.5,3.4-1.5,5.3C159.9,364.1,160.2,365.4,160.7,366.6z M162.6,355.7L109.3,317
		c0.9-1.6,1.5-3.4,1.5-5.3c0-2.3-0.7-4.3-1.9-6.1l53.3-45.7c1.7,1.6,3.9,2.7,6.4,2.9l0.8,89.5C166.7,352.5,164.3,353.8,162.6,355.7z
		 M169,139.2c-3.1,0.1-5.9,1.6-7.7,3.9l-47.9-31.2c0.8-1.5,1.2-3.1,1.2-4.9c0-2.1-0.6-4.1-1.7-5.7l53.7-42.6
		c1.6,1.6,3.7,2.8,6.1,3.1L169,139.2z M170.5,160.2c2.9-0.3,5.5-1.7,7.2-3.9l40.5,38.6c-1.4,1.8-2.3,4-2.3,6.5c0,2.2,0.7,4.3,1.9,6
		l-42.4,36.1c-1.4-1-3.2-1.7-5-1.8V160.2z M220.4,318.9l-42.6,36.2c-1.7-1.6-3.9-2.7-6.4-2.9l-0.8-89.5c1.6-0.2,3.1-0.7,4.5-1.5
		l45.8,45.1c-1.5,1.8-2.4,4.1-2.4,6.6C218.5,315.1,219.2,317.2,220.4,318.9z M222.3,304.8l-45.6-44.9c2.1-1.9,3.3-4.7,3.3-7.7
		c0-2.8-1.1-5.4-3-7.3l42.1-35.9c1.7,1.7,4,2.7,6.5,2.9l2.1,90.4C225.7,302.6,223.8,303.5,222.3,304.8z M235.8,304.7
		c-1.6-1.4-3.7-2.2-6-2.4l-2.1-90.4c2.3-0.3,4.3-1.3,5.9-2.8l45,39.7c-1.7,1.9-2.8,4.4-2.8,7.2c0,2.5,0.9,4.9,2.4,6.7L235.8,304.7z
		 M293,363.8l-55.2-45.1c1.1-1.7,1.8-3.7,1.8-5.8c0-2.5-0.9-4.9-2.4-6.7l42.4-42.1c1.8,1.5,4.2,2.4,6.7,2.4c0.1,0,0.2,0,0.3,0
		l11.6,94.4C296.2,361.3,294.4,362.3,293,363.8z M306.6,362.6c-1.7-1.2-3.8-1.9-6.1-1.9c-0.1,0-0.2,0-0.3,0l-11.6-94.4
		c2.2-0.5,4.1-1.6,5.5-3.2l52.5,38.9c-1,1.6-1.5,3.4-1.5,5.4c0,2.8,1.1,5.4,2.9,7.3L306.6,362.6z M355.7,296.8
		c-3.1,0-5.9,1.4-7.8,3.5l-52.5-38.9c1-1.6,1.5-3.4,1.5-5.4c0-2-0.6-3.9-1.6-5.5l63.1-47.6c1.5,1.6,3.5,2.8,5.8,3.2L355.7,296.8z
		 M357.7,297l8.6-90.8c3,0,5.6-1.2,7.5-3.2l50.8,40.5c-0.7,1.4-1.2,3.1-1.2,4.8c0,2,0.6,3.9,1.6,5.5l-61.6,46.4
		C362,298.6,360,297.4,357.7,297z M427.1,355.2c-2.8,0.1-5.3,1.3-7.1,3.1l-55.5-45.1c1.1-1.7,1.8-3.7,1.8-5.8c0-2-0.6-3.9-1.6-5.5
		l61.6-46.4c1.6,1.7,3.7,2.9,6.2,3.3L427.1,355.2z M434.9,358.1c-1.5-1.5-3.5-2.5-5.7-2.8l5.3-96.4c2.8-0.1,5.3-1.3,7.1-3.2
		l51.2,40.9c-1.1,1.7-1.7,3.6-1.7,5.8c0,2.3,0.7,4.3,1.9,6L434.9,358.1z M503.6,292l5.3-57l-1.9-1.1l-5.3,57.9
		c-2.9,0-5.6,1.2-7.5,3.2l-51.2-40.9c1.1-1.7,1.7-3.6,1.7-5.8c0-1.8-0.5-3.6-1.3-5.1l36.7-24.9l-2-1.1l-35.9,24.4
		c-1.8-2.2-4.5-3.6-7.6-3.8l-3.9-83.6c2.8-0.4,5.2-1.9,6.8-4l45.7,28.8l2-1.1l-46.6-29.4c0.7-1.4,1.1-3,1.1-4.7c0-1.1-0.2-2.1-0.5-3
		l56.6-23.2c1.8,3.2,5.2,5.5,9.2,5.5l3.1,41.7l1.7-1l0,0c0.1-0.1,0.2-0.1,0.3-0.2l-3-40.7c2.9-0.5,5.3-2.2,6.9-4.5l56.9,30.1
		c-0.5,1.2-0.8,2.6-0.8,4c0,1.7,0.4,3.3,1.1,4.7l-33.4,20.9v2.4l34.5-21.6c1.7,2.2,4.3,3.8,7.3,4.1v68c-0.1,0-0.3,0-0.4,0
		c-3.3,0-6.2,1.5-8.1,3.8l-33.3-22.5v2.4l32.1,21.7c-0.8,1.5-1.3,3.2-1.3,5c0,2.1,0.6,4,1.7,5.7l-61,47.9
		C507.7,293.5,505.8,292.4,503.6,292z M574.2,356.9c-2.5,0.2-4.8,1.2-6.5,2.8l-57.6-51.2c1.3-1.7,2-3.9,2-6.2c0-2.1-0.6-4-1.7-5.7
		l61-47.9c1.6,1.7,3.8,2.9,6.3,3.2L574.2,356.9z M626.3,314.6l-44.8,44.7c-1.5-1.2-3.3-2-5.3-2.3l3.6-105c1.9-0.1,3.8-0.8,5.3-1.8
		l41.9,50.3c-1.9,1.9-3,4.5-3,7.4C623.9,310.4,624.8,312.7,626.3,314.6z M628.5,299.2l-41.9-50.3c1.9-1.9,3-4.5,3-7.4
		c0-2.4-0.8-4.6-2.2-6.4l34-31.5c1.8,1.6,4,2.5,6.5,2.6l4.9,91.2C631.3,297.7,629.8,298.3,628.5,299.2z M641.8,300.3
		c-1.8-1.8-4.2-2.9-6.9-3l-4.9-91.2c2-0.3,3.7-1.1,5.2-2.3l49.1,48.4c-1.5,1.8-2.4,4.1-2.4,6.6c0,2.2,0.7,4.3,1.9,6L641.8,300.3z
		 M692.3,349.8l-48.9-36.5c1-1.6,1.5-3.5,1.5-5.5c0-2.2-0.7-4.3-1.9-6l42-35.5c1.9,1.8,4.4,2.9,7.2,3l6,77.1
		C696,346.9,693.9,348.1,692.3,349.8z M749.1,321.1c0,1.6,0.4,3.2,1,4.5l-41.5,25c-1.9-2.5-4.9-4.2-8.3-4.3l-6-77.1
		c2-0.3,3.7-1.2,5.2-2.5l51.8,48C749.9,316.5,749.1,318.7,749.1,321.1z M758.6,310.6c-2.3,0.2-4.4,1.2-6,2.6l-51.8-48
		c1.4-1.8,2.2-4,2.2-6.4c0-1.9-0.5-3.7-1.4-5.3l50.1-35.7c1.7,2,4.2,3.3,6.9,3.6V310.6z M759.1,200.5c-2.9,0.2-5.5,1.5-7.3,3.5
		l-46.5-33.8c0.9-1.6,1.5-3.4,1.5-5.3c0-1.9-0.5-3.7-1.4-5.3l50.3-36.1c1.6,1.9,3.9,3.1,6.5,3.5L759.1,200.5z M766.2,312.9
		c-1.6-1.2-3.5-2.1-5.6-2.3v-89.1c2.5-0.2,4.8-1.4,6.5-3.1l43.2,35.4c-1.1,1.7-1.8,3.7-1.8,5.9c0,2.6,1,5,2.5,6.8L766.2,312.9z
		 M816.8,355.9c-2.7,0.2-5,1.4-6.8,3.2l-41.5-32.4c1-1.6,1.7-3.6,1.7-5.7c0-2.6-1-5-2.5-6.8l44.8-46.3c1.5,1.2,3.4,2,5.4,2.2
		L816.8,355.9z M823.9,166.8l46.6,40.7c-1.2,1.7-2,3.8-2,6.1c0,2.1,0.6,4,1.6,5.6l-43.4,33.3c-1.8-1.9-4.2-3.1-6.9-3.3l-1.9-79.6
		C820.2,169.4,822.3,168.3,823.9,166.8z M871.5,321.4L825.2,359c-1.7-1.7-3.9-2.8-6.4-3.1l1.1-85.7c2.4-0.2,4.5-1.2,6.2-2.7
		l45.7,41.7c-1.3,1.8-2.1,3.9-2.1,6.3C869.8,317.7,870.4,319.7,871.5,321.4z M873.2,307.8L827.5,266c1.3-1.8,2.1-3.9,2.1-6.3
		c0-2.1-0.6-4-1.6-5.6l43.4-33.3c1.7,1.9,4.2,3.1,6.9,3.3l0.9,80.9C876.9,305.3,874.9,306.3,873.2,307.8z M879.3,203.1v-90.4
		c2.6-0.3,5-1.5,6.7-3.3l52.2,39.9c-1,1.6-1.6,3.5-1.6,5.6c0,2.3,0.7,4.4,1.9,6.1L886.4,206C884.5,204.3,882,203.2,879.3,203.1z
		 M887.8,308.2c-1.7-1.7-4-2.9-6.6-3.1l-0.9-80.9c2.7-0.3,5.1-1.6,6.8-3.6l50.9,35.7c-0.9,1.5-1.4,3.3-1.4,5.2
		c0,2.2,0.6,4.1,1.8,5.8L887.8,308.2z M953.5,369.5l-64.2-48.4c1-1.6,1.6-3.5,1.6-5.5c0-2.2-0.6-4.1-1.8-5.8l50.5-40.9
		c1.9,1.9,4.6,3.1,7.5,3.1c0.1,0,0.2,0,0.3,0l11.6,94.4C956.8,366.8,955,367.9,953.5,369.5z"/>
</g>
<g>
	<g>
		<g>
			<g>
				<path class="st2" d="M522.9,186.7v56.4l-47.5-27.4l0,0c-14.1-8.2-13.1-13.3-13.1-24.6l48.8,28.2v-25.7L522.9,186.7z"/>
				<path class="st3" d="M511.1,219.3l-48.8-28.2l47.5-27.4l0,0c14.1-8.1,18-4.7,27.9,0.9l-48.8,28.2l22.3,12.9V219.3z"/>
				<path class="st4" d="M488.9,192.8l48.8-28.2v54.8l0,0c0,16.3-5,17.9-14.7,23.7l0-56.4l-22.3,12.9L488.9,192.8z"/>
			</g>
		</g>
	</g>
</g>
<g>
	<g class="st5">
		<defs>
			<polygon id="SVGID_3_" class="st5" points="362.7,455.7 -13.4,455.7 -13.4,805.1 362.7,805.1 738.7,805.1 738.7,455.7 			"/>
		</defs>
		<clipPath id="SVGID_4_">
			<use xlink:href="#SVGID_3_"  style="overflow:visible;"/>
		</clipPath>
	</g>
</g>
</svg>
