<?xml version="1.0" encoding="utf-8"?>
<!-- Generator: Adobe Illustrator 19.0.0, SVG Export Plug-In . SVG Version: 6.00 Build 0)  -->
<svg version="1.1" id="Layer_1" xmlns="http://www.w3.org/2000/svg" xmlns:xlink="http://www.w3.org/1999/xlink" x="0px" y="0px"
	 viewBox="0 0 432.7 324.5" style="enable-background:new 0 0 432.7 324.5;" xml:space="preserve">
<style type="text/css">
	.st0{opacity:0.25;clip-path:url(#XMLID_11_);fill:url(#XMLID_12_);}
	.st1{fill:#523533;}
	.st2{fill:#FAB483;}
	.st3{fill:#F7954D;}
	.st4{fill:#FEE899;}
	.st5{fill:#F9CB65;}
	.st6{fill:#F7C1A2;}
	.st7{fill:#F4B090;}
</style>
<g id="XMLID_62_">
	<g id="XMLID_63_">
		<defs>
			<path id="XMLID_290_" d="M429.3,324.5H3.4c-1.9,0-3.4-1.5-3.4-3.4V0h432.7v321.1C432.7,323,431.2,324.5,429.3,324.5z"/>
		</defs>
		<clipPath id="XMLID_11_">
			<use xlink:href="#XMLID_290_"  style="overflow:visible;"/>
		</clipPath>
		
			<radialGradient id="XMLID_12_" cx="220.6188" cy="122.6773" r="163.7158" gradientTransform="matrix(1 0 0 0.7659 0 28.7235)" gradientUnits="userSpaceOnUse">
			<stop  offset="0" style="stop-color:#FFFFFF"/>
			<stop  offset="1" style="stop-color:#FFFFFF;stop-opacity:0"/>
		</radialGradient>
		<path id="XMLID_70_" class="st0" d="M8.8,246.1c-1.1,1.3-1.8,3.1-1.8,5c0,1.7,0.5,3.2,1.5,4.5l-2,1.9h3l0.4-0.4
			c0.2,0.1,0.4,0.2,0.5,0.4h8.8c0.3-0.2,0.6-0.4,0.8-0.7l0.8,0.7H24l-2.7-2.2c0.8-1.2,1.2-2.6,1.2-4.1c0-1.8-0.6-3.5-1.6-4.8
			l30.4-30.9c1.3,1,2.9,1.6,4.6,1.6l5,40.5h2l-5-40.8c1.4-0.4,2.7-1.1,3.6-2.1l38.7,28.7c-0.6,1.1-1,2.4-1,3.8c0,2,0.7,3.8,2,5.2
			l-4.6,5.3h2.7l3.4-3.9c1.2,0.8,2.7,1.3,4.3,1.3c2.1,0,3.9-0.8,5.3-2.1l5.9,4.8h3.2l-7.8-6.4c0.7-1.2,1.2-2.6,1.2-4.1
			c0-1.4-0.4-2.7-1-3.8l45.4-34.2c1.1,1.1,2.5,1.9,4.1,2.2l-2.6,46.3h2l2.5-46.2c1.9-0.1,3.5-0.9,4.8-2.1l37.8,30.2
			c-0.7,1.2-1.1,2.5-1.1,4c0,1.6,0.5,3,1.3,4.2l-11.6,9.9h3.1l9.8-8.4c1.4,1.2,3.2,2,5.2,2c1.9,0,3.7-0.7,5.1-1.9l9.3,8.3h3.1
			l-11-9.8c0.8-1.2,1.3-2.7,1.3-4.4c0-1.4-0.4-2.8-1.1-4l45-35.3c1.1,1.1,2.5,1.8,4.2,2.1l-1.7,51.3h2l1.7-51.2
			c1.2-0.1,2.4-0.5,3.4-1.2l30.9,37.1c-1.3,1.4-2.1,3.2-2.1,5.3c0,1.8,0.6,3.4,1.6,4.7l-5.3,5.3h2.9l3.9-3.9c1.3,1,2.9,1.6,4.7,1.6
			c2.2,0,4.2-0.9,5.6-2.4l6.2,4.6h3.4l-8.4-6.3c0.6-1.1,1-2.4,1-3.8c0-1.5-0.5-3-1.2-4.2l31-26.2c1.3,1.2,3,1.9,4.8,2l3,38.4h2
			l-3-38.5c1.3-0.3,2.4-0.8,3.3-1.6l38.2,35.4c-0.9,1.3-1.4,2.8-1.4,4.5c0,0.1,0,0.2,0,0.3h15.5c0-0.1,0-0.2,0-0.3
			c0-1.5-0.4-2.9-1.1-4l37.8-30.6c1.4,1.3,3.3,2.1,5.3,2.1c4.3,0,7.8-3.5,7.8-7.8s-3.5-7.8-7.8-7.8c-2.1,0-3.9,0.8-5.3,2.1
			l-37.9-31.1c0.7-1.2,1.2-2.6,1.2-4.1c0-1.6-0.5-3.2-1.4-4.4l30.6-27.8c1.4,1.1,3.1,1.8,5,1.8c4.3,0,7.8-3.5,7.8-7.8
			c0-4.3-3.5-7.8-7.8-7.8c-2.1,0-4,0.8-5.4,2.2l-27.2-21.8c0.7-1.2,1.1-2.5,1.1-4c0-1.7-0.5-3.2-1.4-4.5L446,72
			c1.2,0.8,2.6,1.2,4.1,1.2c4.3,0,7.8-3.5,7.8-7.8s-3.5-7.8-7.8-7.8c-1.9,0-3.7,0.7-5.1,1.9l-31.2-27.8c0.8-1.2,1.3-2.7,1.3-4.4
			c0-1.6-0.5-3.1-1.4-4.4l37-33.1l-1.4-1.5l-37,33.1c-1.2-1-2.7-1.7-4.4-1.8l-2.4-50.9l-2,0.1l2.4,50.9c-1.7,0.3-3.2,1.2-4.4,2.4
			l-34-23.5c0.5-1.1,0.9-2.3,0.9-3.5c0-4.3-3.5-7.8-7.8-7.8c-4.3,0-7.8,3.5-7.8,7.8c0,1.2,0.3,2.4,0.8,3.4L317,22.8
			c-0.9-1.2-2.1-2.2-3.6-2.7l3.3-51.3l-2-0.1l-3.2,50.9c-0.2,0-0.5,0-0.7,0c-2.1,0-3.9,0.8-5.3,2.1L267.6-4c0.5-1,0.8-2.2,0.8-3.5
			c0-4.3-3.5-7.8-7.8-7.8c-4.3,0-7.8,3.5-7.8,7.8c0,1.7,0.6,3.3,1.5,4.6l-33.7,32c-1.1-0.9-2.4-1.5-3.9-1.7v-51.2h-2v51.2
			c-1.8,0.2-3.4,1.1-4.5,2.3L171.5,0.7c0.6-1.1,1-2.4,1-3.8c0-4.3-3.5-7.8-7.8-7.8S157-7.4,157-3.1c0,1.4,0.4,2.7,1,3.8l-34.8,25.9
			c-1.4-1.4-3.3-2.3-5.4-2.3l-6.9-59l-2,0.2l6.9,59c-1.7,0.4-3.1,1.4-4.2,2.7L72.1,3.4c0.4-1,0.6-2,0.6-3.1c0-4.3-3.5-7.8-7.8-7.8
			c-4.3,0-7.8,3.5-7.8,7.8c0,1.1,0.2,2.1,0.6,3L27.9,20.5c-1-1.3-2.4-2.3-4-2.7L30.5-26l-2-0.3l-6.6,43.8c0,0-0.1,0-0.1,0
			c-1.7,0-3.2,0.5-4.5,1.4l-28.2-30.5l-1.5,1.4l28.2,30.5c-1.1,1.3-1.8,3.1-1.8,5c0,1.2,0.3,2.3,0.8,3.3L-25,54.4l0.6,0.9l-0.7,0.8
			l35.8,30.7c-0.8,1.2-1.3,2.7-1.3,4.2c0,1.7,0.5,3.2,1.4,4.5l-36,33.5l0.7,0.7l-0.7,0.7l32,33.8c-1.1,1.3-1.7,3-1.7,4.9
			c0,1.7,0.5,3.2,1.5,4.5l-34.1,32l0.7,0.7l-0.7,0.7L8.8,246.1z M49.9,213.9l-30.4,30.9c-1.1-0.8-2.4-1.4-3.8-1.5L14,176.7
			c1.5-0.2,2.8-0.8,3.8-1.8L50.2,204c-1.2,1.4-1.9,3.2-1.9,5.1C48.2,211,48.8,212.6,49.9,213.9z M49.6,134.1l-31.8,29
			c-1-0.8-2.2-1.4-3.6-1.7l3.5-62.7c1.6-0.1,3-0.7,4.1-1.6l27.9,27.9c-1,1.3-1.6,2.9-1.6,4.7C48.2,131.3,48.7,132.8,49.6,134.1z
			 M55,201.5c-1.2,0.2-2.3,0.6-3.3,1.2l-32.5-29.3c0.9-1.3,1.4-2.8,1.4-4.4c0-1.7-0.5-3.2-1.4-4.4l31.8-29c1.1,0.9,2.5,1.6,4,1.8
			V201.5z M55.5,121.9c-1.6,0.1-3.1,0.7-4.3,1.6L23.4,95.6c1-1.3,1.6-2.9,1.6-4.7c0-1.4-0.4-2.7-1-3.8l31.8-24
			c1.1,1.1,2.4,1.8,4,2.2L55.5,121.9z M103,94.6l-41.4,29.8c-1.1-1.1-2.5-2-4.1-2.3l4.2-56.7c2.1-0.1,4-1.1,5.3-2.6l35.9,24.6
			c-0.5,1.1-0.8,2.2-0.8,3.5C102.1,92.2,102.4,93.5,103,94.6z M117.4,89.1l41.4-15.6c1.1,2,3,3.5,5.2,3.9l-3.3,41.2
			c-2.1,0.1-4,1.1-5.3,2.5l-38.7-26.8c0.5-1.1,0.9-2.3,0.9-3.6C117.6,90.3,117.5,89.7,117.4,89.1z M154.3,122.9
			c-0.5,1.1-0.9,2.3-0.9,3.6c0,1.5,0.4,2.9,1.2,4.1l-34.5,28.5c-1.3-1.2-2.9-1.9-4.8-2.1l-3.9-58.5c1.7-0.3,3.1-1.2,4.2-2.4
			L154.3,122.9z M113.3,157.2c-1.8,0.4-3.4,1.4-4.6,2.8l-45.6-27.2c0.4-0.9,0.6-2,0.6-3.1c0-1.3-0.3-2.6-0.9-3.7l41.4-29.8
			c1.3,1.4,3.1,2.3,5.2,2.4L113.3,157.2z M61.5,203.7c-1.2-1.2-2.8-2-4.5-2.2v-64.1c2.1-0.3,3.8-1.3,5.1-2.9l45.6,27.2
			c-0.4,0.9-0.6,2-0.6,3.1c0,1.4,0.4,2.7,1,3.8L61.5,203.7z M106.8,239.3c-2.1,0.1-3.9,1-5.3,2.4l-38.7-28.7c0.6-1.1,1-2.4,1-3.8
			c0-1.4-0.4-2.7-1-3.8l46.6-35.1c1,1,2.3,1.8,3.8,2.1L106.8,239.3z M112.6,241.6c-1-1-2.3-1.8-3.8-2.1l6.3-66.9
			c2-0.1,3.8-0.9,5.1-2.2l37.5,29.9c-0.5,1-0.7,2.1-0.7,3.3c0,1.4,0.4,2.7,1,3.8L112.6,241.6z M158.8,198.5l-37.3-29.8
			c0.7-1.2,1.1-2.5,1.1-4c0-1.5-0.4-2.9-1.2-4.1l34.5-28.5c1.2,1.2,2.8,1.9,4.6,2.1l2.8,61.7C161.5,196.2,159.9,197.2,158.8,198.5z
			 M269.9,72.1c1.7-0.3,3.1-1.2,4.2-2.4L310,95c-0.6,1.1-0.9,2.3-0.9,3.6c0,1.4,0.4,2.8,1.1,3.9l-32,24.8c-1.3-1.3-3-2.1-4.9-2.2
			L269.9,72.1z M323.7,95.1l31.3-22c1.1,1.2,2.7,2.1,4.4,2.4l-2.3,58.8c-1.4,0.1-2.7,0.6-3.8,1.4l-30.4-32.2c1.1-1.3,1.7-3,1.7-4.9
			C324.6,97.4,324.3,96.2,323.7,95.1z M351.8,137.1c-1.1,1.3-1.7,3-1.7,4.9c0,0.8,0.1,1.6,0.3,2.3l-35.9,16.4
			c-1-1.6-2.6-2.9-4.5-3.4l6.8-50.9c0,0,0,0,0,0c1.7,0,3.3-0.6,4.5-1.5L351.8,137.1z M308,157C308,157,307.9,157,308,157
			c-1.9,0-3.7,0.7-5,1.9L279,137.3c0.9-1.3,1.4-2.8,1.4-4.4c0-1.4-0.4-2.8-1.1-3.9l32-24.8c0.9,0.9,2.1,1.6,3.4,2L308,157z
			 M273.7,191v-50.4c1.5-0.2,2.9-0.8,4-1.8l23.9,21.6c-0.9,1.3-1.4,2.8-1.4,4.4c0,1.7,0.5,3.2,1.4,4.5l-25.1,23.2
			C275.7,191.8,274.7,191.3,273.7,191z M308.2,240.8l-30.9-37.1c1.3-1.4,2.1-3.2,2.1-5.3c0-1.7-0.5-3.2-1.4-4.5l25.1-23.2
			c1.2,1,2.7,1.6,4.4,1.8l3.6,67.3C310,240,309.1,240.3,308.2,240.8z M348.6,215.5l-31,26.2c-1.2-1.1-2.8-1.9-4.6-2l-3.6-67.3
			c1.2-0.2,2.4-0.8,3.3-1.5l36.2,35.7c-1,1.3-1.6,2.9-1.6,4.7C347.4,212.9,347.8,214.3,348.6,215.5z M354.4,203.6
			c-1.5,0.1-2.9,0.7-4.1,1.6l-36.2-35.7c1-1.3,1.6-2.9,1.6-4.7c0-0.8-0.1-1.6-0.3-2.3l35.9-16.4c1.2,1.8,3,3.2,5.3,3.5L354.4,203.6z
			 M356.5,203.7l2.1-53.9c1.9-0.2,3.6-1.1,4.9-2.4l34.3,25c-0.6,1.1-0.9,2.4-0.9,3.7c0,1.3,0.3,2.6,0.9,3.6L360.8,206
			C359.7,204.8,358.2,204,356.5,203.7z M403.6,249.5c-1.5,0.2-2.8,0.8-3.9,1.7l-38.2-35.4c0.9-1.3,1.4-2.8,1.4-4.5
			c0-1.3-0.3-2.6-0.9-3.6l36.9-26.3c1.2,1.3,2.8,2.2,4.7,2.4V249.5z M399,170.7l-34.3-25c0.6-1.1,0.9-2.4,0.9-3.7
			c0-1.3-0.3-2.6-0.9-3.7l37.1-26.6c1.1,1.2,2.6,2,4.3,2.3l-2.2,54.2C402,168.5,400.2,169.4,399,170.7z M447.8,212.8
			c-0.7,1.2-1.2,2.6-1.2,4.1c0,1.5,0.4,2.9,1.1,4L410,251.5c-1.2-1.1-2.7-1.9-4.3-2.1v-65.7c1.6-0.2,3.1-0.9,4.3-2L447.8,212.8z
			 M408.4,35.1c1.5-0.2,2.9-0.9,4.1-1.8l31.2,27.8c-0.8,1.2-1.3,2.7-1.3,4.4c0,2,0.8,3.9,2.1,5.3l-32,29.8c-1.1-0.9-2.5-1.5-3.9-1.7
			V35.1z M408.1,114.2c1.8-0.2,3.4-0.9,4.7-2.1l27.2,21.8c-0.7,1.2-1.1,2.5-1.1,4c0,1.6,0.5,3.2,1.4,4.4l-30.6,27.8
			c-1-0.9-2.3-1.5-3.7-1.7L408.1,114.2z M402.3,33.2c1.1,1,2.6,1.7,4.1,1.9v63.6c-1.6,0.2-3.1,0.9-4.3,2L367.3,72
			c0.7-1.2,1.2-2.6,1.2-4.1c0-1.6-0.5-3.1-1.3-4.3L402.3,33.2z M361.8,2.8c1.9-0.2,3.5-1.2,4.7-2.5l34,23.5
			c-0.5,1.1-0.9,2.3-0.9,3.5c0,1.6,0.5,3.1,1.3,4.3l-35,30.4c-1.1-1-2.6-1.7-4.1-1.9V2.8z M361.5,75.6c1.8-0.2,3.3-0.9,4.6-2
			l34.8,28.7c-0.7,1.2-1.2,2.6-1.2,4.1c0,1.3,0.3,2.6,0.9,3.7l-37.1,26.6c-1.1-1.2-2.6-2-4.3-2.3L361.5,75.6z M318,24.6l36.9-24.4
			c1.2,1.4,2.9,2.3,4.8,2.6v57.4c-1.6,0.2-3.1,0.9-4.3,2l-37.8-31.4c0.5-1,0.8-2.2,0.8-3.4C318.5,26.4,318.3,25.5,318,24.6z
			 M316.6,32.5l37.6,31.2c-0.8,1.2-1.2,2.6-1.2,4.1c0,1.3,0.3,2.5,0.9,3.6l-31.3,22c-1.3-1.4-3.2-2.4-5.2-2.5l-3.8-56.3
			C314.7,34.2,315.7,33.5,316.6,32.5z M305.6,33.2c1.4,1.2,3.2,1.9,5.1,1.9c0.2,0,0.5,0,0.7,0l3.8,55.9c-1.6,0.3-3.1,1.2-4.2,2.3
			l-35.8-25.3c0.6-1.1,0.9-2.3,0.9-3.6c0-1.6-0.5-3.1-1.3-4.3L305.6,33.2z M266.5-2.3l37.7,25.6c-0.7,1.2-1.2,2.6-1.2,4.1
			c0,1.6,0.5,3.1,1.3,4.3l-30.7,26.9c-1.3-1.2-3-1.9-4.9-1.9l-6.1-56.6C264.1-0.3,265.5-1.1,266.5-2.3z M255.8-1.4
			c1.3,1,2.9,1.7,4.7,1.7l6.1,56.6c-1.8,0.4-3.3,1.5-4.4,2.9L223.1,38c0.4-0.9,0.6-1.8,0.6-2.9c0-1.7-0.6-3.3-1.5-4.6L255.8-1.4z
			 M170.3,2.3l38.8,29.1c-0.6,1.1-1,2.4-1,3.8c0,1.3,0.3,2.5,0.9,3.5l-37.5,26c-1.2-1.4-2.9-2.3-4.8-2.5l-0.8-57.6
			C167.6,4.3,169.1,3.5,170.3,2.3z M166.1,77.7c4.1-0.2,7.4-3.6,7.4-7.7c0-1.3-0.3-2.5-0.9-3.5l37.5-26c1.4,1.6,3.5,2.6,5.7,2.6
			c2.6,0,4.8-1.2,6.2-3.1l39.1,21.8c-0.4,0.9-0.5,1.8-0.5,2.9c0,4.1,3.2,7.5,7.2,7.7l3.3,53.1c-3.6,0.7-6.3,3.8-6.3,7.6
			c0,3.9,2.9,7.2,6.8,7.7v50.2c0,0,0,0,0,0c-4.3,0-7.8,3.5-7.8,7.8c0,1.4,0.4,2.8,1.1,4l-45,35.3c-1.4-1.4-3.3-2.2-5.4-2.2
			c-2.1,0-4,0.8-5.4,2.2l-37.8-30.2c0.7-1.2,1.1-2.5,1.1-4c0-4.1-3.1-7.4-7.1-7.7l-2.8-61.7c3.6-0.6,6.4-3.8,6.4-7.6
			c0-3.7-2.6-6.8-6.1-7.6L166.1,77.7z M124.4,28.2l34.8-25.9c1.2,1.2,2.8,2.1,4.7,2.3l0.8,57.6c-1.7,0.2-3.2,1-4.3,2.1l-36-28.4
			c0.7-1.2,1.1-2.5,1.1-4C125.4,30.6,125,29.3,124.4,28.2z M117.6,39.8C117.6,39.8,117.6,39.8,117.6,39.8c2.1,0,4-0.8,5.4-2.2
			l36,28.4c-0.7,1.2-1.1,2.5-1.1,4c0,0.6,0.1,1.2,0.2,1.8l-41.4,15.6c-1-1.9-2.7-3.3-4.8-3.8L117.6,39.8z M115.6,39.5l-5.8,43.6
			c0,0,0,0,0,0c-2.3,0-4.3,1-5.8,2.6L68.2,61.1c0.5-1.1,0.8-2.2,0.8-3.5c0-0.8-0.1-1.5-0.3-2.3L111,36.1
			C112.1,37.7,113.7,39,115.6,39.5z M65.5,8.1c2.2-0.1,4.2-1.2,5.6-2.9l39.4,23.7c-0.4,1-0.6,2-0.6,3.1c0,0.8,0.1,1.5,0.3,2.3
			L67.9,53.5c-1.1-1.8-2.9-3.1-5.1-3.5L65.5,8.1z M28.9,22.3L58.9,5c1.1,1.5,2.8,2.5,4.6,2.9l-2.7,41.9c-1.9,0.1-3.5,0.9-4.8,2.1
			L28.3,29.3c0.7-1.2,1.2-2.6,1.2-4.1C29.5,24.2,29.3,23.2,28.9,22.3z M22.2,33c1.9-0.1,3.5-0.9,4.8-2.1l27.6,22.6
			c-0.7,1.2-1.2,2.6-1.2,4.1c0,1.4,0.4,2.7,1,3.8l-31.8,24c-1.1-1.1-2.4-1.8-4-2.2L22.2,33z M-22.7,55.3l38.6-25
			c1.1,1.3,2.6,2.2,4.4,2.6l-3.5,50.3c-1.8,0.1-3.4,0.8-4.7,2L-22.7,55.3z M-23,129.7l35.3-32.8c1,0.8,2.2,1.4,3.5,1.6l-3.5,62.7
			c-1.5,0.1-2.8,0.6-4,1.5L-23,129.7z M7.9,175c1.1,0.9,2.5,1.5,4.1,1.7l1.5,66.7c-1.2,0.2-2.3,0.7-3.3,1.3l-35.7-38.4L7.9,175z"/>
	</g>
</g>
<g id="XMLID_44_">
	<g id="XMLID_45_">
		<path id="XMLID_61_" class="st1" d="M245.6,142.3c-7.2-3.8-6.5-9.6-5.4-12.9c1.1-3.5,2.4-7.1,2.4-11.1v-10.5
			c0-14.2-11.2-25.8-25-25.8c-13.8,0-25,11.6-25,25.8v10.5c0,4,1.3,7.6,2.4,11.1c1.1,3.3,1.8,9.1-5.4,12.9c-1.2,0.6-1.8,1.9-1.1,3
			c2.7,4.5,10.9,14.6,29.1,14.6s26.3-10.1,29.1-14.6C247.4,144.2,246.8,142.9,245.6,142.3z"/>
		<g id="XMLID_54_">
			<path id="XMLID_60_" class="st2" d="M237.8,167.3C237.8,167.3,237.8,167.3,237.8,167.3C237.8,167.3,237.8,167.3,237.8,167.3
				c0-13.4-9-24.1-20.1-24.1c-11.1,0-20.1,10.8-20.1,24.1c0,0,0,0,0,0c0,0,0,0,0,0c0,0,0,0,0,0l0,0c0,11.1,9,20.1,20.1,20.1
				C228.8,187.4,237.8,178.4,237.8,167.3L237.8,167.3C237.8,167.3,237.8,167.3,237.8,167.3z"/>
			<path id="XMLID_57_" class="st3" d="M237.8,167.3C237.8,167.3,237.8,167.3,237.8,167.3L237.8,167.3
				C237.8,167.3,237.8,167.3,237.8,167.3c0-13.3-9-24.1-20.1-24.1v4v20.1v20.1C228.8,187.4,237.8,178.4,237.8,167.3L237.8,167.3z"/>
			<path id="XMLID_56_" class="st4" d="M209.8,145.1c-1.2,3.3,0,14.2,7.8,14.2v-16.1C214.9,143.2,212.2,143.9,209.8,145.1z"/>
			<path id="XMLID_55_" class="st5" d="M225.5,145.1c1.2,3.3,0,14.2-7.8,14.2v-16.1C220.4,143.2,223.1,143.9,225.5,145.1z"/>
		</g>
		<g id="XMLID_50_">
			<path id="XMLID_53_" class="st6" d="M225.5,145.1c-2.4-1.2-5-1.9-7.8-1.9c-2.8,0-5.4,0.7-7.8,1.9c0.9,3.5,4,6.2,7.8,6.2
				S224.6,148.6,225.5,145.1z"/>
			<rect id="XMLID_52_" x="213.6" y="130.5" class="st6" width="8" height="15.6"/>
			<path id="XMLID_51_" class="st7" d="M221.7,143.7v-13.2h-4v20.8c3.8,0,7-2.6,7.8-6.2C224.3,144.5,223,144,221.7,143.7z"/>
		</g>
		<ellipse id="XMLID_49_" class="st6" cx="237.8" cy="113.8" rx="3.2" ry="6"/>
		<path id="XMLID_48_" class="st6" d="M217.7,86.8c-11.1,0-20.1,9.4-20.1,20.9v10.5c0,11.6,9,20.9,20.1,20.9
			c11.1,0,20.1-9.4,20.1-20.9v-10.5C237.8,96.2,228.8,86.8,217.7,86.8z"/>
		<path id="XMLID_47_" class="st7" d="M217.7,86.8c8.9,0,16.1,9.4,16.1,20.9v10.5c0,11.6-7.2,20.9-16.1,20.9
			c11.1,0,20.1-9.4,20.1-20.9v-10.5C237.8,96.2,228.8,86.8,217.7,86.8z"/>
		<path id="XMLID_46_" class="st1" d="M217.7,82c-13.8,0-25,11.6-25,25.8v10.5c0,4,1.3,7.6,2.4,11.1c0.5,1.5,0.9,3.5,0.5,5.6h5.9
			c-1.6-4.4-1-19.2,8.3-23.5c9.3-4.3,15.6-14.7,15.6-14.7c5.8,2.6,12.3,11.1,12.3,11.1h4.8C242.6,93.6,231.4,82,217.7,82z"/>
	</g>
</g>
</svg>
