<?xml version="1.0" encoding="utf-8"?>
<!-- Generator: Adobe Illustrator 19.1.0, SVG Export Plug-In . SVG Version: 6.00 Build 0)  -->
<svg version="1.1" id="Layer_1" xmlns="http://www.w3.org/2000/svg" xmlns:xlink="http://www.w3.org/1999/xlink" x="0px" y="0px"
	 viewBox="0 0 20 20" enable-background="new 0 0 20 20" xml:space="preserve">
<path fill="#4C4C4C" d="M17,10c0-1,0.8-1.9,1.8-2c-0.2-1-0.6-2-1.2-2.8c-0.8,0.6-1.9,0.6-2.7-0.1c-0.7-0.7-0.8-1.9-0.1-2.7
	C13.9,1.9,13,1.5,12,1.2C11.9,2.2,11,3,10,3S8.1,2.2,8,1.2c-1,0.2-2,0.6-2.8,1.2c0.6,0.8,0.6,1.9-0.1,2.7C4.3,5.8,3.2,5.8,2.4,5.2
	C1.9,6.1,1.5,7,1.2,8C2.2,8.1,3,9,3,10s-0.8,1.9-1.8,2c0.2,1,0.6,2,1.2,2.8c0.8-0.6,1.9-0.6,2.7,0.1c0.7,0.7,0.8,1.9,0.1,2.7
	C6.1,18.1,7,18.5,8,18.8c0.1-1,0.9-1.8,2-1.8s1.9,0.8,2,1.8c1-0.2,2-0.6,2.8-1.2c-0.6-0.8-0.6-1.9,0.1-2.7c0.7-0.7,1.9-0.8,2.7-0.1
	c0.5-0.9,0.9-1.8,1.2-2.8C17.8,11.9,17,11,17,10z M10,14.1c-2.3,0-4.1-1.8-4.1-4.1c0-2.3,1.8-4.1,4.1-4.1s4.1,1.8,4.1,4.1
	C14.1,12.3,12.3,14.1,10,14.1z"/>
</svg>
