<?xml version="1.0" encoding="utf-8"?>
<!-- Generator: Adobe Illustrator 19.0.0, SVG Export Plug-In . SVG Version: 6.00 Build 0)  -->
<svg version="1.1" id="Layer_1" xmlns="http://www.w3.org/2000/svg" xmlns:xlink="http://www.w3.org/1999/xlink" x="0px" y="0px"
	 viewBox="-285 408.9 24 24" style="enable-background:new -285 408.9 24 24;" xml:space="preserve">
<style type="text/css">
	.st0{fill:#6FAFEF;}
</style>
<path class="st0" d="M-273,413.4c-5,0-9.3,3.1-11,7.5c1.7,4.4,6,7.5,11,7.5s9.3-3.1,11-7.5C-263.7,416.5-268,413.4-273,413.4z
	 M-273,425.9c-2.8,0-5-2.2-5-5c0-2.8,2.2-5,5-5s5,2.2,5,5C-268,423.6-270.2,425.9-273,425.9z M-273,417.9c-1.7,0-3,1.3-3,3
	c0,1.7,1.3,3,3,3s3-1.3,3-3C-270,419.2-271.3,417.9-273,417.9z"/>
</svg>
